<?xml version="1.0" encoding="iso-8859-1"?>
<!-- Generator: Adobe Illustrator 19.0.1, SVG Export Plug-In . SVG Version: 6.00 Build 0)  -->
<svg version="1.1" xmlns="http://www.w3.org/2000/svg" xmlns:xlink="http://www.w3.org/1999/xlink" x="0px" y="0px"
	 viewBox="0 0 960 560" style="enable-background:new 0 0 960 560;" xml:space="preserve">
<g id="dirt-dark">
	<g id="Dirt_1_">
		<path style="fill:#191717;" d="M-0.75,416.8l15.823-2.9l6.309,0.6l6.209-2.3l7.611,1.4l5.608-1.6h7.511l3.505-2h3.505l13.52-0.8
			l3.505,2.4l4.006-1.6h6.009l5.007-0.2l2.504-3.8h3.505c0,0,6.51-0.8,8.012-0.2s3.505-2.6,5.508-0.3s5.007,3.7,5.007,3.7
			s-0.501-5.2,2.003-4.6c2.504,0.6-2.504,0.5,2.504,0.5c5.007,0,8.513-1.2,10.515-0.6s-1.502,0.6,2.003,0.6
			c3.505,0,1.502-2.6,6.51-0.8c5.007,1.8,5.007,1.8,5.007,1.8s0-3.3,2.504-2.4s-4.507-1.2,6.009-0.2c10.516,1.1,13.42-0.3,13.42-0.3
			l2.904,2.8l7.01-1.9h7.211c0,0,2.103-4.8,2.804-4.5c0.701,0.3,10.816-0.1,10.816-0.1l16.124-0.1c0,0-0.401-3.8,5.708-2.3
			s6.109,1.5,6.109,1.5s1.102,0.9,3.806,1.1c2.704,0.3,7.01,0.4,7.01,0.4h6.71c0,0,6.009-2.8,8.212-2.8c2.303,0-2.704-1.6,2.303-0.1
			c5.007,1.5,7.711,0.1,7.711,0.1s4.106-1.4,6.209-0.6c2.103,0.9,0.1-1.9,3.405,0.5c3.205,2.4,3.205,0.6,5.708,0
			s4.507-0.4,8.513-0.5c4.006-0.1,3.505,5.9,7.01,2.6c3.505-3.2,4.006-2.5,10.015-2.1s9.013,1.6,12.518-0.5
			c3.505-2.1-0.501,0.2,6.51-0.5c7.01-0.7,5.007-3.8,10.515-0.5s4.006,2.5,6.51,0.9s-1.001-1.1,2.504-1.6
			c3.505-0.5-0.501-0.5,3.505-0.5c4.006,0,1.502-1.6,7.01-0.3c5.508,1.3,3.505-1.3,7.511-0.5s-2.504,1.6,4.006,1.1
			c6.51-0.5,10.516-1.8,13.019-1.8s-0.501,0,5.508,0s5.508,2.9,9.514,0.8c4.006-2.1-1.502-1.8,8.012-2.5
			c9.514-0.7,7.511,0.8,11.517,1.1c4.006,0.2,3.505,0.7,6.51-1.3s-14.521-1.5,3.004-2s16.324,4.3,18.227,2.2
			c1.803-2.2,0.401-4.7,3.105-4.7c2.704,0,1.903-1.3,6.81,0c4.907,1.3,11.617-1.2,13.72-1.4c2.203-0.1,1.703,0.4,5.208-0.1
			c3.505-0.5,12.318-4.7,15.623-3.5c3.305,1.2,2.504,1.8,5.208,0c2.804-1.8,135.8,1,143.311-0.5s7.711,0.8,11.317-0.1
			c3.706-0.9,4.707,0.1,7.211-0.4c2.504-0.5,13.82,0,16.625,0c2.804,0-0.1,0,2.904,0c3.004,0,2.203-0.5,6.109-0.2
			c3.906,0.2-1.602-1.2,3.906,0.2c5.508,1.4,8.513,2,17.526,1.7c9.013-0.3,3.505-0.2,9.013-0.2s5.508,0.5,9.514,0.2
			s-4.507-1.7,4.006-0.2c8.513,1.5-0.501,1.5,8.513,1.5c9.013,0,5.007-2,11.517-1.3s1.502,2.8,8.513,2.8c7.01,0,5.508,2,9.013,0
			c3.505-2,0-1.5,3.505-2s-5.007-3.5,10.015-0.8c15.022,2.7,4.507,6.5,16.024,5.6c11.617-0.9,14.621-0.8,21.632-0.9s1.001-3,7.01,0
			s4.006,2.5,8.012,2.5c4.006,0-9.514-1,4.006,0c13.52,1,16.524-1.8,16.524-1.8c12.018,1-2.504,1.2,12.018,1.2
			c14.521,0,8.513,0,14.521,0s8.513-2.4,15.523-0.6c7.01,1.8,7.01,1.7,7.01,1.7s-4.006-3.6,8.012-3.6s11.517,0,18.527,0
			c7.01,0,4.507-2,9.514-1.5s0.501-1.2,7.511,0.1c7.01,1.4,8.012,1.4,12.018,1.4c4.006,0,7.511,3.5,10.516,3
			c3.004-0.5,6.51-2.6,6.51-2.6V561H-0.75V416.8z"/>
	</g>
	<rect id="empty_box__x28_use_for_every_layer_1_" style="opacity:0;" width="960" height="560"/>
</g>
<g id="Layer_1">
</g>
</svg>
