<?xml version="1.0" encoding="iso-8859-1"?>
<!-- Generator: Adobe Illustrator 19.0.1, SVG Export Plug-In . SVG Version: 6.00 Build 0)  -->
<svg version="1.1" xmlns="http://www.w3.org/2000/svg" xmlns:xlink="http://www.w3.org/1999/xlink" x="0px" y="0px"
	 viewBox="0 0 960 560" style="enable-background:new 0 0 960 560;" xml:space="preserve">
<g id="left-shadow">
	<g>
		<path style="fill:#110F0E;" d="M673.1,421.3c-0.4-0.1-0.7-0.2-1.1-0.3c-2.8,0-5.1,0.1-6.5,0.3c-0.5,0-1.1,0-1.6,0
			c0,0-0.3-0.2-0.6-0.2c-6.5,0-11.27,1.329-15.67,3.029l12.396-0.113c-0.484,0.323-0.791,0.527-1.326,0.884c0.5,0,0.7,0,1.2,0
			c-6.8,3.7-10.6,5.7-19.4,10.2c0,0,0,0,0.001,0c-2.665,1.028-6.337,2.53-11.801,4.6c-2.7,0.5-4.9,0.8-7,1.2
			c-7.6-3.9-71.625,10.8-79.325,7c-0.45,0.007-0.816,0.011-1.123,0.014c-0.127,0.025-0.637,0.035-1.72,0.025c0,0,0,0-0.001,0
			c0,0,0,0-0.001,0c-0.046,0-0.099-0.001-0.147-0.002l0.004-0.006h0l0,0l0,0c0,0,0.004-0.006,0.008-0.014l0.015-0.025
			c-0.002-0.001-0.005-0.002-0.006-0.002c0-0.001,0-0.001,0-0.002c0.005-0.011,0.008-0.021,0.013-0.032
			c0.003,0.003,0.007,0.007,0.01,0.01l0.012-0.02l0.222-0.046c0.065,0.036,0.044,0.079-0.103,0.128
			c0.255-0.005,0.432-0.013,0.543-0.025c-0.236-0.015-0.118-0.043,0.108-0.077c-0.061-0.023-0.172-0.048-0.314-0.074l0.094-0.019
			c0,0,0,0,0,0c0.188,0.018,0.365,0.035,0.527,0.052c0.049-0.007,0.098-0.013,0.145-0.02c0.463-0.065,0.795-0.131-0.344-0.161
			c-0.086-0.002-0.177-0.004-0.28-0.006c0.074-0.013,0.142-0.025,0.193-0.035c0.139-0.027,0.153-0.044-0.111-0.052
			c-0.067-0.002-0.155-0.003-0.261-0.004c-0.031-0.087-0.063-0.169-0.108-0.169l8.05-17.737h-0.1l0.4-0.1c-0.1,0-0.2,0-0.3,0
			s-0.2,0-0.3,0c-7.6,0.1-11.6,0.1-19.3,0.1c3.2-1.5,4.8-2.2,8-3.7c4.7,0,7.3,0,11.5,0l4.2-4.6c-1.9,0-3.3,0.2-4.3,0.5
			c-1-0.3-2.4-0.5-4.3-0.5c-9.4,0.1-23.5,4.6-23.5,4.6c4.3,0,6.4,0,10.7,0c-3.2,1.5-4.8,2.2-7.9,3.7c-6.5,0-9.7,0-16.1-0.1
			c-7.7,3.8-15.3,7.6-22.9,11.5c-2.1-0.4-4.3-0.7-7-1.2c-4.871-1.096-10.035-2.598-14.98-3.991c0.004,0.001,0.007,0.002,0.011,0.003
			c-8.8-4.5-13.831-7.312-20.631-10.912c0.5,0,0.7,0,1.2,0c-0.6-0.4-0.9-0.6-1.5-1c5.2,0.2,7.8,0.2,13,0.4c0,0-0.3,0-1-0.5
			c0.3,0,0.4,0,0.7,0c-4.4-1.7-9.4-2.6-15.8-2.7v0.1l0.1,0.1c-0.3,0-0.7,0-0.7,0c-0.6,0-1.1,0-1.6,0c-1.4-0.2-3.6-0.3-6.4-0.3
			c0.3-0.1,1.4-0.3,1.4-0.3c-8.9,0.2-18.4,2.7-18.4,2.7c3.7,0.2,5.5,0.2,9.3,0.4c-0.9,0.4-1.4,0.6-2.3,1c0.1,0,0.2,0,0.3,0
			c-2.4,0.9-4.8,1.8-7.2,2.7c2.5-0.9,4.9-1.8,7.2-2.6c0.9,0,1.4,0.1,2.3,0.1c-4.9,1.8-9.8,3.1-14.9,4.5c-4.4,1.6-8.8,3.2-13.3,4.9
			c-0.8,0.7-2,1.6-2.8,2.3c-0.1-0.4-0.1-0.7-0.2-1.2c-16.8,7.8-33.3,15.9-49.5,24.8c-0.6,0.2-1.6,0.6-2.2,0.8
			c-7.2,1.4-10.8,2.1-17.8,3.5c2.4-1.7,4.1-2.9,5.9-4.1c0.104-0.044,0.208-0.089,0.311-0.133c1.231-0.767,2.485-1.626,4.189-2.667
			c-7.2,3.3-10.8,4.9-17.9,8.4c-0.9,2.2-1.3,3.3-1.6,5.5c0.5-0.4,0.7-0.6,1.1-0.9c-0.4,1.7-0.6,2.7-0.6,4.1c-0.8,0.7-1.2,1.2-2,2
			c-1.7,0-2.5,0-4.2,0c-0.2,1.9-0.2,2.8,0,4.7c1.6-0.6,2.5-0.9,4.1-1.6c-8.3,4.2-16.6,8.5-24.7,13.1c-0.7,0.3-1,0.5-1.7,0.8
			c-0.2,0-0.3,0-0.4,0.1c-3,0.8-4.5,1.2-7.5,2c-8.7,3.8-13,5.7-21.5,9.6c-1.8-0.1-2.7-0.2-4.4-0.3c-6.9,2.3-10.3,3.5-17.2,5.8
			c0.9,0.7,1.5,1.1,2.3,1.6c-2.1,0.3-3.6,0.5-6,0.9c2.3,0.4,3.5,0.7,6,1.1c0.4-0.5,0.7-0.9,1.1-1.3c0.3,0.2,0.6,0.4,0.9,0.6
			c1.4,0.5,2.9,0.9,4.5,1.2c-5.5,2.3-8.3,3.5-13.8,5.9c-0.4-0.2-0.6-0.3-1.1-0.5c-7.1,5.5-10.3,8.2-16.1,13.7
			c-1.7,0.7-3.3,1.4-5,2.1c-1.8,0.1-3.5,0.1-5.3,0.2c-6.8,0.2-10.8,7.1-8.6,12.8c-0.4,0-0.8,0-1.3,0.1c0.1-1.5-1.2-2.9-4-3.7
			c-9.4-2.8-20.4-1.1-29.6,1.7c-10.4,3.3-14.7,8.7-8,10.7c10.2,3.1,22.8,1,32.8-2.4c4.9-1.7,8-3.7,9-5.5c-0.5,2.1-0.7,3.3-0.8,5.1
			l-0.2,0.1l0.2,0.1c0,0.3,0,0.7,0,1c0.2-0.2,0.4-0.4,0.7-0.6l5.5,4.1h229l14.9-6h-4.8c5.9-1.4,11.9-2.9,17.8-5.4
			c2-1.1,2.9-1.6,4.9-2.7c2.6-0.6,3.9-0.8,6.5-1.4c2.6-0.5,3.8-0.8,6.4-1.4c-1.9,0.5-2.8,0.8-4.7,1.3c5.1-0.5,7.7-0.8,12.8-1.3
			c-1.1-0.4-1.7-0.7-2.8-1.1c0.5,0,0.8,0,1.4-0.1c2-0.7,3-1.1,4.9-1.8c0.4-0.3,0.351-1.662,0.651-5.162L488,530.5l7.583-3.25
			c6.4-1-1.083-0.45,4.517-1.25h2.6l1.3-0.8c13.4-3.9,26.7-14.9,39.9-18.7c-0.1,0-0.1,0-0.2,0l0.204-0.04l-0.004,0.04l0.046-0.048
			l4.907-0.956l-0.332-0.804c0.625,0.939,1.336-0.649,1.972-0.408c-0.121-0.381,6.107-5.534,6.007-5.534l74.6-55.25
			c5.6-2.6,11.8-7.3,17.3-10.1c5.3-3.6,7.7-5.4,12.1-8.6c1.3,0,1.9-0.1,3.2-0.1c0.523-0.299,0.823-0.486,1.192-0.729l2.322-0.021
			c0.659,0.246,0.486,0.25,0.486,0.25c4.177-0.091,6.474-0.182,10.227-0.348l5.673-0.052c3.8-0.1,5.6-0.2,9.3-0.4
			C692.9,423.4,681.9,421.6,673.1,421.3z M312.9,479.3c-0.5,0-0.7,0-1.1,0c0.6-0.3,1-0.5,1.7-0.7C313.2,478.9,313.1,479,312.9,479.3
			z M315,476.9v-0.1c0-0.2,0-0.3,0-0.4c0.7-0.5,1-0.7,1.7-1.2C316,475.9,315.7,476.2,315,476.9z M470,447.9
			c-4.8-0.1-7.2-0.1-11.8-0.2c1.3-0.4,2.6-0.8,3.7-1.2c4.1,0.1,6.2,0.1,10.5,0.2C471.5,447.2,471,447.4,470,447.9z M466.4,444.7
			c0.6-0.3,1.2-0.7,1.7-1c-8.6,0.7-14,0.7-17,2c-1.2,0.5-2.4,1-3.5,1.7c-15.4-0.6-30.7-1.5-46.1-2.9c-2.6-0.5-3.8-0.8-6.1-1.4
			c-1.1-0.2-1.7-0.4-2.8-0.6c-0.1-0.2-0.2-0.4-0.3-0.6c1.8,0.4,2.8,0.6,4.7,0.9c-0.8-0.4-1.2-0.6-1.9-1c-1.5-0.8-2.2-1.2-3.6-2
			c-0.2-0.7-0.4-1.3-0.5-1.8c10.1-4.5,22.3-9.4,31-13.1c0.4,0,0.6,0,1,0c1.1-0.4,1.6-0.6,2.7-1c4.5,0.2,2.8,0.2,7.4,0.4
			c0,0,2.6,1,4.1,0.4c1.3,0.1,1.9,0.1,3.2,0.1c3.5,2.6,5.8,4.3,12.1,8.6c5.5,2.8,16.1,7.6,21.7,10.2
			C471.8,443.9,469.5,444.2,466.4,444.7z M539.245,447.935c-0.078-0.001-0.143-0.001-0.226-0.002c0.083,0,0.153-0.001,0.227-0.001
			L539.245,447.935z M546.266,500.234l-0.009,0.016c0.014-0.051,0.029-0.1,0.043-0.151L546.266,500.234z M665.037,423.874
			c0.085-0.056,0.165-0.11,0.263-0.174c0.2,0,0.3,0,0.5,0c0.3,0,0.4,0,0.7,0c0.186,0.062,0.345,0.116,0.48,0.164L665.037,423.874z"
			/>
		<path style="fill:#110F0E;" d="M539.75,447.337c0.128,0.06,0.251,0.118,0.369,0.173C540.009,447.459,539.9,447.407,539.75,447.337
			z"/>
		<path style="fill:#110F0E;" d="M328.901,459.6c-0.596,0.255-1.192,0.511-1.789,0.766c-0.07,0.044-0.142,0.09-0.211,0.133
			C327.601,460.2,328.201,459.9,328.901,459.6z"/>
		<path style="fill:#110F0E;" d="M540.102,447.903c0.169,0.011,0.524,0.015,1.151,0.011c0.145-0.028-0.2-0.075-0.736-0.13
			c-0.109,0.015-0.216,0.029-0.307,0.042C540.294,447.858,540.278,447.884,540.102,447.903z"/>
		<polygon style="fill:#110F0E;" points="539.388,447.931 539.388,447.931 539.388,447.931 		"/>
		<path style="fill:#110F0E;" d="M539.507,447.929c0.01,0.003,0.014,0.006,0.025,0.01c0,0,0.001,0,0.001,0
			c0.012-0.004,0.015-0.007,0.026-0.01C539.542,447.928,539.524,447.929,539.507,447.929z"/>
		<path style="fill:#110F0E;" d="M539.428,447.866l-0.016,0.026c0.006,0.003,0.017,0.006,0.024,0.009
			C539.44,447.892,539.439,447.881,539.428,447.866z"/>
		<path style="fill:#110F0E;" d="M539.388,447.931c0.044,0,0.078-0.001,0.118-0.002c-0.028-0.009-0.05-0.018-0.07-0.027
			C539.431,447.915,539.428,447.93,539.388,447.931z"/>
	</g>
	<rect id="empty_box__x28_use_for_every_layer_10_" style="opacity:0;" width="960" height="560"/>
</g>
<g id="Layer_1">
</g>
</svg>
