<?xml version="1.0" encoding="iso-8859-1"?>
<!-- Generator: Adobe Illustrator 19.0.1, SVG Export Plug-In . SVG Version: 6.00 Build 0)  -->
<svg version="1.1" xmlns="http://www.w3.org/2000/svg" xmlns:xlink="http://www.w3.org/1999/xlink" x="0px" y="0px"
	 viewBox="0 0 960 560" style="enable-background:new 0 0 960 560;" xml:space="preserve">
<filter  id="AI_GaussianBlur_7">
	<feGaussianBlur  stdDeviation="7"></feGaussianBlur>
</filter>
<g id="left-light">
	<g id="left_lights__x28_change_to_white_x29__2_" style="filter:url(#AI_GaussianBlur_7);">
		<path style="fill:#FFFFFF;" d="M180.4,179.9l-17.5-1.8c-0.9-0.1-1.4-1-1.3-2l1.6-10.6c0.2-1,1-1.7,1.8-1.6l17.5,1.8
			c0.9,0.1,1.4,1,1.3,2l-1.6,10.6C182.1,179.3,181.3,180,180.4,179.9z"/>
		<path style="fill:#FFFFFF;" d="M177.1,202.5l-17.5-1.8c-0.9-0.1-1.4-1-1.3-2l1.6-10.6c0.2-1,1-1.7,1.8-1.6l17.5,1.8
			c0.9,0.1,1.4,1,1.3,2l-1.6,10.6C178.7,201.9,177.9,202.6,177.1,202.5z"/>
		<path style="fill:#FFFFFF;" d="M173.7,225.1l-17.5-1.8c-0.9-0.1-1.4-1-1.3-2l1.6-10.6c0.2-1,1-1.7,1.8-1.6l17.5,1.8
			c0.9,0.1,1.4,1,1.3,2l-1.6,10.6C175.3,224.4,174.5,225.2,173.7,225.1z"/>
		<path style="fill:#FFFFFF;" d="M208.1,182.9l-17.5-1.8c-0.9-0.1-1.4-1-1.3-2l1.6-10.6c0.2-1,1-1.7,1.8-1.6l17.5,1.8
			c0.9,0.1,1.4,1,1.3,2l-1.6,10.6C209.7,182.2,208.9,183,208.1,182.9z"/>
		<path style="fill:#FFFFFF;" d="M204.7,205.4l-17.5-1.8c-0.9-0.1-1.4-1-1.3-2l1.6-10.6c0.2-1,1-1.7,1.8-1.6l17.5,1.8
			c0.9,0.1,1.4,1,1.3,2l-1.6,10.6C206.3,204.8,205.5,205.5,204.7,205.4z"/>
		<path style="fill:#FFFFFF;" d="M201.3,228l-17.5-1.8c-0.9-0.1-1.4-1-1.3-2l1.6-10.6c0.2-1,1-1.7,1.8-1.6l17.5,1.8
			c0.9,0.1,1.4,1,1.3,2l-1.6,10.6C203,227.4,202.1,228.1,201.3,228z"/>
		<path style="fill:#FFFFFF;" d="M235.7,185.8l-17.5-1.8c-0.9-0.1-1.4-1-1.3-2l1.6-10.6c0.2-1,1-1.7,1.8-1.6l17.5,1.8
			c0.9,0.1,1.4,1,1.3,2l-1.6,10.6C237.4,185.1,236.5,185.9,235.7,185.8z"/>
		<path style="fill:#FFFFFF;" d="M232.3,208.4l-17.5-1.8c-0.9-0.1-1.4-1-1.3-2l1.6-10.6c0.2-1,1-1.7,1.8-1.6l17.5,1.8
			c0.9,0.1,1.4,1,1.3,2l-1.6,10.6C234,207.7,233.2,208.5,232.3,208.4z"/>
		<path style="fill:#FFFFFF;" d="M228.9,230.9l-17.5-1.8c-0.9-0.1-1.4-1-1.3-2l1.6-10.6c0.2-1,1-1.7,1.8-1.6l17.5,1.8
			c0.9,0.1,1.4,1,1.3,2l-1.6,10.6C230.6,230.3,229.8,231,228.9,230.9z"/>
		<path style="fill:#FFFFFF;" d="M263.3,188.7l-17.5-1.8c-0.9-0.1-1.4-1-1.3-2l1.6-10.6c0.2-1,1-1.7,1.8-1.6l17.5,1.8
			c0.9,0.1,1.4,1,1.3,2l-1.6,10.6C265,188.1,264.2,188.8,263.3,188.7z"/>
		<path style="fill:#FFFFFF;" d="M259.9,211.3l-17.5-1.8c-0.9-0.1-1.4-1-1.3-2l1.6-10.6c0.2-1,1-1.7,1.8-1.6l17.5,1.8
			c0.9,0.1,1.4,1,1.3,2l-1.6,10.6C261.6,210.6,260.8,211.4,259.9,211.3z"/>
		<path style="fill:#FFFFFF;" d="M256.5,233.9l-17.5-1.8c-0.9-0.1-1.4-1-1.3-2l1.6-10.6c0.2-1,1-1.7,1.8-1.6l17.5,1.8
			c0.9,0.1,1.4,1,1.3,2l-1.6,10.6C258.2,233.2,257.4,234,256.5,233.9z"/>
	</g>
	<g id="left_lights__x28_change_to_white_x29__6_" style="filter:url(#AI_GaussianBlur_7);">
		<path style="fill:#FFFFFF;" d="M180.4,179.9l-17.5-1.8c-0.9-0.1-1.4-1-1.3-2l1.6-10.6c0.2-1,1-1.7,1.8-1.6l17.5,1.8
			c0.9,0.1,1.4,1,1.3,2l-1.6,10.6C182.1,179.3,181.3,180,180.4,179.9z"/>
		<path style="fill:#FFFFFF;" d="M177.1,202.5l-17.5-1.8c-0.9-0.1-1.4-1-1.3-2l1.6-10.6c0.2-1,1-1.7,1.8-1.6l17.5,1.8
			c0.9,0.1,1.4,1,1.3,2l-1.6,10.6C178.7,201.9,177.9,202.6,177.1,202.5z"/>
		<path style="fill:#FFFFFF;" d="M173.7,225.1l-17.5-1.8c-0.9-0.1-1.4-1-1.3-2l1.6-10.6c0.2-1,1-1.7,1.8-1.6l17.5,1.8
			c0.9,0.1,1.4,1,1.3,2l-1.6,10.6C175.3,224.4,174.5,225.2,173.7,225.1z"/>
		<path style="fill:#FFFFFF;" d="M208.1,182.9l-17.5-1.8c-0.9-0.1-1.4-1-1.3-2l1.6-10.6c0.2-1,1-1.7,1.8-1.6l17.5,1.8
			c0.9,0.1,1.4,1,1.3,2l-1.6,10.6C209.7,182.2,208.9,183,208.1,182.9z"/>
		<path style="fill:#FFFFFF;" d="M204.7,205.4l-17.5-1.8c-0.9-0.1-1.4-1-1.3-2l1.6-10.6c0.2-1,1-1.7,1.8-1.6l17.5,1.8
			c0.9,0.1,1.4,1,1.3,2l-1.6,10.6C206.3,204.8,205.5,205.5,204.7,205.4z"/>
		<path style="fill:#FFFFFF;" d="M201.3,228l-17.5-1.8c-0.9-0.1-1.4-1-1.3-2l1.6-10.6c0.2-1,1-1.7,1.8-1.6l17.5,1.8
			c0.9,0.1,1.4,1,1.3,2l-1.6,10.6C203,227.4,202.1,228.1,201.3,228z"/>
		<path style="fill:#FFFFFF;" d="M235.7,185.8l-17.5-1.8c-0.9-0.1-1.4-1-1.3-2l1.6-10.6c0.2-1,1-1.7,1.8-1.6l17.5,1.8
			c0.9,0.1,1.4,1,1.3,2l-1.6,10.6C237.4,185.1,236.5,185.9,235.7,185.8z"/>
		<path style="fill:#FFFFFF;" d="M232.3,208.4l-17.5-1.8c-0.9-0.1-1.4-1-1.3-2l1.6-10.6c0.2-1,1-1.7,1.8-1.6l17.5,1.8
			c0.9,0.1,1.4,1,1.3,2l-1.6,10.6C234,207.7,233.2,208.5,232.3,208.4z"/>
		<path style="fill:#FFFFFF;" d="M228.9,230.9l-17.5-1.8c-0.9-0.1-1.4-1-1.3-2l1.6-10.6c0.2-1,1-1.7,1.8-1.6l17.5,1.8
			c0.9,0.1,1.4,1,1.3,2l-1.6,10.6C230.6,230.3,229.8,231,228.9,230.9z"/>
		<path style="fill:#FFFFFF;" d="M263.3,188.7l-17.5-1.8c-0.9-0.1-1.4-1-1.3-2l1.6-10.6c0.2-1,1-1.7,1.8-1.6l17.5,1.8
			c0.9,0.1,1.4,1,1.3,2l-1.6,10.6C265,188.1,264.2,188.8,263.3,188.7z"/>
		<path style="fill:#FFFFFF;" d="M259.9,211.3l-17.5-1.8c-0.9-0.1-1.4-1-1.3-2l1.6-10.6c0.2-1,1-1.7,1.8-1.6l17.5,1.8
			c0.9,0.1,1.4,1,1.3,2l-1.6,10.6C261.6,210.6,260.8,211.4,259.9,211.3z"/>
		<path style="fill:#FFFFFF;" d="M256.5,233.9l-17.5-1.8c-0.9-0.1-1.4-1-1.3-2l1.6-10.6c0.2-1,1-1.7,1.8-1.6l17.5,1.8
			c0.9,0.1,1.4,1,1.3,2l-1.6,10.6C258.2,233.2,257.4,234,256.5,233.9z"/>
	</g>
	<g id="left_lights__x28_change_to_white_x29__1_">
		<path style="fill:#FFFFFF;" d="M182.7,182.5l-15.7-1.7c-0.8-0.1-1.3-0.8-1.2-1.6l1.3-8.7c0.1-0.8,0.9-1.4,1.6-1.3l15.7,1.7
			c0.8,0.1,1.3,0.8,1.2,1.6l-1.3,8.7C184.2,182,183.4,182.6,182.7,182.5z"/>
		<path style="fill:#FFFFFF;" d="M179.8,201l-15.7-1.7c-0.8-0.1-1.3-0.8-1.2-1.6l1.3-8.7c0.1-0.8,0.9-1.4,1.6-1.3l15.7,1.7
			c0.8,0.1,1.3,0.8,1.2,1.6l-1.3,8.7C181.3,200.5,180.6,201.1,179.8,201z"/>
		<path style="fill:#FFFFFF;" d="M176.9,219.5l-15.7-1.7c-0.8-0.1-1.3-0.8-1.2-1.6l1.3-8.7c0.1-0.8,0.9-1.4,1.6-1.3l15.7,1.7
			c0.8,0.1,1.3,0.8,1.2,1.6l-1.3,8.7C178.4,219,177.7,219.6,176.9,219.5z"/>
		<path style="fill:#FFFFFF;" d="M207.5,185.1l-15.7-1.7c-0.8-0.1-1.3-0.8-1.2-1.6l1.3-8.7c0.1-0.8,0.9-1.4,1.6-1.3l15.7,1.7
			c0.8,0.1,1.3,0.8,1.2,1.6l-1.3,8.7C208.9,184.6,208.2,185.2,207.5,185.1z"/>
		<path style="fill:#FFFFFF;" d="M204.6,203.6l-15.7-1.7c-0.8-0.1-1.3-0.8-1.2-1.6l1.3-8.7c0.1-0.8,0.9-1.4,1.6-1.3l15.7,1.7
			c0.8,0.1,1.3,0.8,1.2,1.6l-1.3,8.7C206.1,203.1,205.4,203.7,204.6,203.6z"/>
		<path style="fill:#FFFFFF;" d="M201.7,222.1l-15.7-1.7c-0.8-0.1-1.3-0.8-1.2-1.6l1.3-8.7c0.1-0.8,0.9-1.4,1.6-1.3l15.7,1.7
			c0.8,0.1,1.3,0.8,1.2,1.6l-1.3,8.7C203.2,221.6,202.5,222.2,201.7,222.1z"/>
		<path style="fill:#FFFFFF;" d="M232.3,187.8l-15.7-1.7c-0.8-0.1-1.3-0.8-1.2-1.6l1.3-8.7c0.1-0.8,0.9-1.4,1.6-1.3l15.7,1.7
			c0.8,0.1,1.3,0.8,1.2,1.6l-1.3,8.7C233.7,187.2,233,187.8,232.3,187.8z"/>
		<path style="fill:#FFFFFF;" d="M229.4,206.3l-15.7-1.7c-0.8-0.1-1.3-0.8-1.2-1.6l1.3-8.7c0.1-0.8,0.9-1.4,1.6-1.3l15.7,1.7
			c0.8,0.1,1.3,0.8,1.2,1.6L231,205C230.9,205.7,230.2,206.3,229.4,206.3z"/>
		<path style="fill:#FFFFFF;" d="M226.5,224.8l-15.7-1.7c-0.8-0.1-1.3-0.8-1.2-1.6l1.3-8.7c0.1-0.8,0.9-1.4,1.6-1.3l15.7,1.7
			c0.8,0.1,1.3,0.8,1.2,1.6l-1.3,8.7C228,224.2,227.3,224.8,226.5,224.8z"/>
		<path style="fill:#FFFFFF;" d="M257,190.4l-15.7-1.7c-0.8-0.1-1.3-0.8-1.2-1.6l1.3-8.7c0.1-0.8,0.9-1.4,1.6-1.3l15.7,1.7
			c0.8,0.1,1.3,0.8,1.2,1.6l-1.3,8.7C258.5,189.9,257.8,190.5,257,190.4z"/>
		<path style="fill:#FFFFFF;" d="M254.2,208.9l-15.7-1.7c-0.8-0.1-1.3-0.8-1.2-1.6l1.3-8.7c0.1-0.8,0.9-1.4,1.6-1.3l15.7,1.7
			c0.8,0.1,1.3,0.8,1.2,1.6l-1.3,8.7C255.7,208.4,255,209,254.2,208.9z"/>
		<path style="fill:#FFFFFF;" d="M251.3,227.4l-15.7-1.7c-0.8-0.1-1.3-0.8-1.2-1.6l1.3-8.7c0.1-0.8,0.9-1.4,1.6-1.3l15.7,1.7
			c0.8,0.1,1.3,0.8,1.2,1.6l-1.3,8.7C252.8,226.9,252.1,227.5,251.3,227.4z"/>
	</g>
	<rect id="empty_box__x28_use_for_every_layer_8_" style="opacity:0;" width="960" height="560"/>
</g>
<g id="Layer_1">
</g>
</svg>
