<?xml version="1.0" encoding="iso-8859-1"?>
<!-- Generator: Adobe Illustrator 19.0.1, SVG Export Plug-In . SVG Version: 6.00 Build 0)  -->
<svg version="1.1" xmlns="http://www.w3.org/2000/svg" xmlns:xlink="http://www.w3.org/1999/xlink" x="0px" y="0px"
	 viewBox="0 0 960 560" style="enable-background:new 0 0 960 560;" xml:space="preserve">
<g id="light-poles">
	<g>
		<g>
			<path style="fill:#110F0E;" d="M204.9,218.893c0,20.412-0.1,40.913-0.1,61.325c-0.1,32.587-0.1,65.175-0.2,97.762
				c0,7.52,0,14.951,0,22.471c0,2.865,5,2.865,5,0c0-20.412,0.1-40.913,0.1-61.325c0.1-32.587,0.1-65.175,0.2-97.762
				c0-7.52,0-14.951,0-22.471C209.9,216.029,204.9,216.029,204.9,218.893L204.9,218.893z"/>
		</g>
	</g>
	<g>
		<g>
			<path style="fill:#110F0E;" d="M203.7,353.6c-9.9,15.6-19.9,31.2-29.8,46.8c-2.4,3.8,3.6,7.3,6,3.5c9.9-15.6,19.9-31.2,29.8-46.8
				C212.1,353.3,206.1,349.8,203.7,353.6L203.7,353.6z"/>
		</g>
	</g>
	<g>
		<g>
			<path style="fill:#110F0E;" d="M204.7,358.1c10.2,14.1,20.4,28.2,30.7,42.4c2.6,3.6,8.7,0.1,6-3.5
				c-10.2-14.1-20.4-28.2-30.7-42.4C208.1,351,202,354.4,204.7,358.1L204.7,358.1z"/>
		</g>
	</g>
	<g>
		<g>
			<path style="fill:#110F0E;" d="M735.9,184.4c-0.1,22.4-0.2,44.7-0.3,67.1c-0.1,35.7-0.3,71.4-0.4,107c0,8.3-0.1,16.5-0.1,24.8
				c0,3.2,5,3.2,5,0c0.1-22.4,0.2-44.7,0.3-67.1c0.1-35.7,0.3-71.4,0.4-107c0-8.3,0.1-16.5,0.1-24.8
				C740.9,181.2,735.9,181.2,735.9,184.4L735.9,184.4z"/>
		</g>
	</g>
	<g>
		<g>
			<path style="fill:#110F0E;" d="M734.7,340.6c-8,13.2-16,26.3-24,39.5c-2.3,3.9,3.7,7.4,6,3.5c8-13.2,16-26.3,24-39.5
				C743,340.2,737,336.7,734.7,340.6L734.7,340.6z"/>
		</g>
	</g>
	<g>
		<g>
			<path style="fill:#110F0E;" d="M734.7,344.1c9.3,13.3,18.5,26.6,27.8,39.9c2.6,3.7,8.6,0.2,6-3.5c-9.3-13.3-18.5-26.6-27.8-39.9
				C738.1,336.9,732.1,340.4,734.7,344.1L734.7,344.1z"/>
		</g>
	</g>
	<g id="Lights_1_">
		<g id="left_lights__x28_change_to_white_x29__3_">
			<path style="fill:#110F0E;" d="M182.7,182.5l-15.7-1.7c-0.8-0.1-1.3-0.8-1.2-1.6l1.3-8.7c0.1-0.8,0.9-1.4,1.6-1.3l15.7,1.7
				c0.8,0.1,1.3,0.8,1.2,1.6l-1.3,8.7C184.2,182,183.4,182.6,182.7,182.5z"/>
			<path style="fill:#110F0E;" d="M179.8,201l-15.7-1.7c-0.8-0.1-1.3-0.8-1.2-1.6l1.3-8.7c0.1-0.8,0.9-1.4,1.6-1.3l15.7,1.7
				c0.8,0.1,1.3,0.8,1.2,1.6l-1.3,8.7C181.3,200.5,180.6,201.1,179.8,201z"/>
			<path style="fill:#110F0E;" d="M176.9,219.5l-15.7-1.7c-0.8-0.1-1.3-0.8-1.2-1.6l1.3-8.7c0.1-0.8,0.9-1.4,1.6-1.3l15.7,1.7
				c0.8,0.1,1.3,0.8,1.2,1.6l-1.3,8.7C178.4,219,177.7,219.6,176.9,219.5z"/>
			<path style="fill:#110F0E;" d="M207.5,185.1l-15.7-1.7c-0.8-0.1-1.3-0.8-1.2-1.6l1.3-8.7c0.1-0.8,0.9-1.4,1.6-1.3l15.7,1.7
				c0.8,0.1,1.3,0.8,1.2,1.6l-1.3,8.7C208.9,184.6,208.2,185.2,207.5,185.1z"/>
			<path style="fill:#110F0E;" d="M204.6,203.6l-15.7-1.7c-0.8-0.1-1.3-0.8-1.2-1.6l1.3-8.7c0.1-0.8,0.9-1.4,1.6-1.3l15.7,1.7
				c0.8,0.1,1.3,0.8,1.2,1.6l-1.3,8.7C206.1,203.1,205.4,203.7,204.6,203.6z"/>
			<path style="fill:#110F0E;" d="M201.7,222.1l-15.7-1.7c-0.8-0.1-1.3-0.8-1.2-1.6l1.3-8.7c0.1-0.8,0.9-1.4,1.6-1.3l15.7,1.7
				c0.8,0.1,1.3,0.8,1.2,1.6l-1.3,8.7C203.2,221.6,202.5,222.2,201.7,222.1z"/>
			<path style="fill:#110F0E;" d="M232.3,187.8l-15.7-1.7c-0.8-0.1-1.3-0.8-1.2-1.6l1.3-8.7c0.1-0.8,0.9-1.4,1.6-1.3l15.7,1.7
				c0.8,0.1,1.3,0.8,1.2,1.6l-1.3,8.7C233.7,187.2,233,187.8,232.3,187.8z"/>
			<path style="fill:#110F0E;" d="M229.4,206.3l-15.7-1.7c-0.8-0.1-1.3-0.8-1.2-1.6l1.3-8.7c0.1-0.8,0.9-1.4,1.6-1.3l15.7,1.7
				c0.8,0.1,1.3,0.8,1.2,1.6L231,205C230.9,205.7,230.2,206.3,229.4,206.3z"/>
			<path style="fill:#110F0E;" d="M226.5,224.8l-15.7-1.7c-0.8-0.1-1.3-0.8-1.2-1.6l1.3-8.7c0.1-0.8,0.9-1.4,1.6-1.3l15.7,1.7
				c0.8,0.1,1.3,0.8,1.2,1.6l-1.3,8.7C228,224.2,227.3,224.8,226.5,224.8z"/>
			<path style="fill:#110F0E;" d="M257,190.4l-15.7-1.7c-0.8-0.1-1.3-0.8-1.2-1.6l1.3-8.7c0.1-0.8,0.9-1.4,1.6-1.3l15.7,1.7
				c0.8,0.1,1.3,0.8,1.2,1.6l-1.3,8.7C258.5,189.9,257.8,190.5,257,190.4z"/>
			<path style="fill:#110F0E;" d="M254.2,208.9l-15.7-1.7c-0.8-0.1-1.3-0.8-1.2-1.6l1.3-8.7c0.1-0.8,0.9-1.4,1.6-1.3l15.7,1.7
				c0.8,0.1,1.3,0.8,1.2,1.6l-1.3,8.7C255.7,208.4,255,209,254.2,208.9z"/>
			<path style="fill:#110F0E;" d="M251.3,227.4l-15.7-1.7c-0.8-0.1-1.3-0.8-1.2-1.6l1.3-8.7c0.1-0.8,0.9-1.4,1.6-1.3l15.7,1.7
				c0.8,0.1,1.3,0.8,1.2,1.6l-1.3,8.7C252.8,226.9,252.1,227.5,251.3,227.4z"/>
		</g>
		<path id="right_lights_3_" style="fill:#110F0E;" d="M759.6,239.9h-40.2c-16.4,0-29.7-13.3-29.7-29.7v-13.9
			c0-16.4,13.3-29.7,29.7-29.7h40.2c16.4,0,29.7,13.3,29.7,29.7v13.9C789.3,226.6,776,239.9,759.6,239.9z"/>
	</g>
	<rect id="empty_box__x28_use_for_every_layer_7_" style="opacity:0;" width="960" height="560"/>
</g>
<g id="Layer_1">
</g>
</svg>
