<svg xmlns="http://www.w3.org/2000/svg" viewBox="0 0 960 560" enable-background="new 0 0 960 560"><filter id="a"><feGaussianBlur stdDeviation="7"/></filter><path fill="none" stroke="#000" stroke-miterlimit="10" d="M503.7 255.4l-7.9 7.3 2.9 2.2"/><path fill="none" stroke="#FEFEFE" stroke-width=".5" stroke-miterlimit="10" d="M528.4 247.6l4.3 6.3 7.4-4.9"/><ellipse cx="553.8" cy="240.1" rx="8.9" ry="9.1" fill="#FFF"/><path fill="none" stroke="#545454" stroke-width=".25" stroke-miterlimit="10" d="M548.6 235.9l10.3 8.6"/><path d="M506 289.1l7.4-23.3 5.3-4-1.2 30s1.4 43.6-3.4 43c-1.2-.1-7.4-8.7-9.2-8.6-.5 0 1.6-37.1 1.1-37.1z" fill="#FEF5EA"/><path fill="#DFDFDF" d="M501.9 300.9l-2 12.5.8 3.2 6.9 7.8 6.6-6.7.8-7.3"/><path fill="none" stroke="#FFE9C7" stroke-miterlimit="10" d="M518.3 263l-15-7.5H530"/><path d="M505.3 289.4l-5.2 2 .2 8.5 18.5 3.7-.8-11.4c0-.5-3.3-4.9-12.7-2.8z" fill="#C6C6C6"/><path fill="none" stroke="#545454" stroke-width=".25" stroke-miterlimit="10" d="M549.1 244.9l9.8-9"/><ellipse cx="553.9" cy="240.6" rx=".8" ry=".8" fill="#1A1A1A" stroke="#262626" stroke-miterlimit="10"/><circle cx="490" cy="255.3" r="9.4" fill="#FEFEFE"/><path d="M489.4 256c1.6 1.1 3.2 2.2 4.8 3.2.4.3.8-.4.4-.6-1.6-1.1-3.2-2.2-4.8-3.2-.5-.4-.8.3-.4.6z" fill="#1A1A1A"/><path fill="#C6C6C6" d="M518 262.7l-9.1 18.6 9.1-3.3"/><ellipse cx="505.2" cy="294.6" rx="2" ry="1.9" fill="#1A1A1A" stroke="#1A1A1A" stroke-miterlimit="10"/><path fill="#C6C6C6" stroke="#C6C6C6" stroke-miterlimit="10" d="M496.5 293.3v3.8l3-1.9zM505.3 287.5h-3.8l1.9 2.5z"/><path d="M499.9 313.4c4.4-.2 8.9-.4 13.3-.5.6 0 1.3-.1 1.9-.1.1 0 .2-.1 0-.1-4.4.2-8.9.4-13.3.5-.6 0-1.3.1-1.9.1-.2 0-.2.1 0 .1z" fill="#FEF5EA"/><path fill="#797979" d="M503.9 300.7l.4 2.8 2.3.5-.5-2.9"/><path d="M506.1 300.7l13.5 2.6 3.9 10.3c.1 0-10.3-.5-17.4-12.9z" fill="none" stroke="#858585" stroke-miterlimit="10"/><path d="M492.3 375.2c-5.6 3.6-11.1 7.1-16.7 10.7-.5.3 0 1.2.5.9 5.6-3.6 11.1-7.1 16.7-10.7.5-.4 0-1.2-.5-.9z" fill="#000107"/><path fill="#FBB03B" stroke="gray" stroke-miterlimit="10" d="M506.8 359.4h14.7v8.8h-14.7z"/><path d="M527.173 381.131c.593-.586 1.156-1.198 1.703-1.826L516.2 335.5h-24.7v50.8h34.493c-.569-1.761-.146-3.858 1.18-5.169z" fill="#BE7C33"/><path d="M527.173 381.131c.783-.774 3.927-4.672 4.055-4.824l-.579-2.014L519.5 335.5l-7.7.2-8.5 50.8 18.033-.117 4.675-.03c-.594-1.771-.174-3.899 1.165-5.222z" fill="#3F2401"/><path d="M497.2 344.8c11.4-2.1 22.8-4.1 34.2-6.2.6-.1.4-1.1-.3-1-11.4 2.1-22.8 4.1-34.2 6.2-.6.2-.3 1.1.3 1z"/><path d="M506.1 336.2l-.6 9.8c3.9-2.1 7.9-2 12 0l-1.6-10H506" fill="#1A1A1A"/><path d="M493.6 337.8c11.8 2.9 23.7 5.7 35.5 8.6.6.2.9-.8.3-1-11.8-2.9-23.7-5.7-35.5-8.6-.6-.1-.9.8-.3 1z"/><path d="M524.5 388.4c1.3 0 1.3-2 0-2-1.2 0-1.2 2 0 2z" fill="#573102"/><path d="M438.1 415.3c2.6-5.5 6-11.1 8-16.9.3-.8.9-1.5.2-.9.7-.5 2.1-.8 2.8-1.1 3.4-1.3 6.8-2.6 10.3-3.9 5.3-2 10.6-4.7 16.3-5.2 5.6-.5 11.1-1.1 16.6-1.7.7-.1 1.3-.8.9-1.5-6.9-12.2-13.8-24.3-20.7-36.5-.1.5-.2.9-.4 1.4 7-3.9 14-7.8 21-11.6 1.1-.6.1-2.4-1-1.7-7 3.9-14 7.8-21 11.6-.5.3-.6.9-.4 1.4 6.9 12.2 13.8 24.3 20.7 36.5l.9-1.5c-5.8.6-11.5 1.3-17.3 1.7-5.9.5-11.6 3.5-17.1 5.6-3.8 1.4-10.7 2.5-13.2 5.8-2.1 2.6-3.2 6.7-4.6 9.7-1.2 2.6-2.4 5.2-3.7 7.8-.6 1.1 1.1 2.1 1.7 1z" fill="#755F44"/><path d="M470.7 347.4c6.6 11.3 13.1 22.6 19.7 33.8.9 1.6 1.8 3.2 2.7 4.7.1.2.7.1.6-.1-6.6-11.3-13.1-22.6-19.7-33.8-.9-1.6-1.8-3.2-2.7-4.7-.1-.2-.7-.1-.6.1z" fill="#7F561F"/><path d="M503.9 338.1c-3.1 2.3-6.3 4.6-9.4 6.8-.5.4 0 1.2.5.9 3.1-2.3 6.3-4.6 9.4-6.8.5-.4 0-1.3-.5-.9z" fill="#FEF5EA"/><path d="M470.6 348.1l24.3-14.1c.6-.3.1-1.2-.5-.9l-24.3 14.1c-.5.3 0 1.2.5.9z" fill="#FCDBB1"/><path d="M469.8 347.4c7.1-4.2 14.3-8.4 21.4-12.6l3-1.8c.3-.2-.2-.3-.4-.2-7.1 4.2-14.3 8.4-21.4 12.6l-3 1.8c-.3.2.2.3.4.2z" fill="#FFC57D"/><path fill="#C6C6C6" stroke="#C6C6C6" stroke-miterlimit="10" d="M500.5 317.7l-7 17.8 12.7 3.2 1.7-34-4.1-.7z"/><path d="M526.7 270.8s-3.2 4-4.5 6.6l5.7-2-1.2-4.6z" fill="#1A1A1A"/><path fill="#FFF" d="M494.4 268.6l8.1-7.6 5.9 5.8-8.1 7.9"/><circle cx="494.6" cy="259" r=".7" fill="#1A1A1A"/><path fill="none" stroke="#1A1A1A" stroke-width=".25" stroke-miterlimit="10" d="M502.8 272.3l-2.8-2.8 3.1-3.1 2.9 2.8"/><path d="M509 293.3v2.5s3.2.2 3.2 2.5-3.2 1.2-3.2 1.2v1.3l9.8 2-.5-4.5c-2.3-3.2-5.6-5.4-9.4-6.6l.1 1.6z" fill="#FEFEFE"/><path d="M510.3 314.6c7.1 8 14.1 16 21.2 23.9.1-.3.2-.6.4-.9l-20.1.6c-.6 0-.7.8-.1 1 5.9 1.9 11.8 3.8 17.7 5.6.6.2.9-.8.3-1-5.9-1.9-11.8-3.8-17.7-5.6 0 .3-.1.7-.1 1l20.1-.6c.4 0 .6-.5.4-.9-7.1-8-14.1-16-21.2-23.9-.6-.4-1.3.3-.9.8z" fill="#706B66"/><path fill="#7A7A7A" d="M505.6 347.3h17.2V358h-17.2z"/><path d="M506.6 348.7h7.3v4.6h-7.3z"/><path d="M514.9 349.2h6.4c.4 0 .4-.4 0-.4h-6.4c-.4.1-.4.4 0 .4zM514.9 350.5h6.4c.4 0 .4-.4 0-.4h-6.4c-.4 0-.4.4 0 .4zM514.9 351.7h6.4c.4 0 .4-.4 0-.4h-6.4c-.4.1-.4.4 0 .4zM514.9 353h6.4c.4 0 .4-.4 0-.4h-6.4c-.4 0-.4.4 0 .4zM506.8 354.2h14.5c.4 0 .4-.4 0-.4h-14.5c-.3.1-.3.4 0 .4zM506.8 355.5h14.5c.4 0 .4-.4 0-.4h-14.5c-.3 0-.3.4 0 .4zM506.8 356.7h14.5c.4 0 .4-.4 0-.4h-14.5c-.3.1-.3.4 0 .4z" fill="#E01919"/><path d="M469.3 347.3c-4 7.6-7.9 15.3-11.9 22.9-6.3 12.1-12.6 24.1-18.8 36.2-1.5 2.8-2.9 5.6-4.4 8.4-.1.2.5.3.6.1 4-7.6 7.9-15.3 11.9-22.9 6.3-12.1 12.6-24.1 18.8-36.2 1.5-2.8 2.9-5.6 4.4-8.4.1-.3-.5-.3-.6-.1z" fill="#FDE0BB"/><path fill="none" stroke="#FD8E05" stroke-miterlimit="10" d="M492.2 334.9"/><path fill="none" stroke="#77541C" stroke-miterlimit="10" d="M443.6 399.2l27.4-11.3"/><path d="M471 388.4c7.3-.6 14.6-1.1 21.9-1.7.6 0 .6-1 0-1-7.3.6-14.6 1.1-21.9 1.7-.6 0-.6 1 0 1z" fill="#7F561F"/><path d="M470.2 347.9C459.1 369.6 448 391.3 437 413c-.6 1.1 1.1 2.2 1.7 1 11.1-21.7 22.1-43.4 33.2-65.1.6-1.1-1.1-2.1-1.7-1z" fill="#64441B"/><path d="M469.9 347.6c-10.2 19.7-20.5 39.4-30.7 59.1-1.4 2.8-2.9 5.5-4.3 8.3-.3.6.6 1.1.9.5 10.2-19.7 20.5-39.4 30.7-59.1 1.4-2.8 2.9-5.5 4.3-8.3.3-.6-.6-1.1-.9-.5z" fill="#FFB33C"/><path d="M466.4 359.9l6.3-11.4h-3l6.9 11.4c1.2 1.9 4.2.2 3-1.8l-6.9-11.4-.6 2.4c3.1-1.7 6.3-3.3 9.4-5 2-1.1.2-4.1-1.8-3-3.1 1.7-6.3 3.3-9.4 5-.8.4-1.1 1.6-.6 2.4l6.9 11.4c1.2 1.9 4.2.2 3-1.8l-6.9-11.4c-.7-1.1-2.4-1.2-3 0l-6.3 11.4c-1.1 2 1.9 3.8 3 1.8zM486.5 336.8l2.3.8v2.5l2.7-1.6 2-1.2.6-4.9" fill="#FDF3E8"/><g><path fill="#494846" d="M464.6 389.5l6-2.3 5.9-.3"/><path d="M465.1 391.2c2-.7 3.9-1.6 5.9-2.2-.4.1-.2 0 .3 0 .7 0 1.4-.1 2-.1 1.1-.1 2.1-.1 3.2-.2 2.2-.1 2.3-3.6 0-3.5-2 .1-4.3 0-6.3.4-2 .5-4 1.5-6 2.3-2.2.7-1.2 4.1.9 3.3z" fill="#A3978B"/></g><g><path d="M423.7 415h27.5s-5.2 6.2-14.4 6.1-13.1-6.1-13.1-6.1z" fill="#FFD38F"/></g><path d="M436 415v6.4c7 .1 11.7-2.4 15.2-6.4H436z" fill="#1A1A1A"/><path d="M527.173 388.202c-1.891-1.736-1.85-4.904-.227-6.792-.149-.07-.295-.144-.446-.21-1.9 1.9-3.9 5-3.7 6.8-.3 1.8 3.7 2.1 8.9 3.2.352-.639.547-1.246.639-1.841-1.744.582-3.729.163-5.166-1.157z" fill="#3A3A3A"/><path fill="#FEFEFE" d="M433.7 415l1.6-3h4.6l-1.3 3"/><path fill="#ADADAD" d="M531.6 253.1l-3.5 15.7-10.6 22.7-.5-13.1 1-.5-.8-15.2"/><g><path d="M479.7 358.2c-1.8-2.9-3.5-5.8-5.3-8.8-1.2-1.9-4.2-.2-3 1.8 1.8 2.9 3.5 5.8 5.3 8.8 1.1 1.9 4.1.1 3-1.8z" fill="#7A7A7A"/></g><g fill="#FFF"><g filter="url(#a)"><path d="M180.4 179.9l-17.5-1.8c-.9-.1-1.4-1-1.3-2l1.6-10.6c.2-1 1-1.7 1.8-1.6l17.5 1.8c.9.1 1.4 1 1.3 2l-1.6 10.6c-.1 1-.9 1.7-1.8 1.6zM177.1 202.5l-17.5-1.8c-.9-.1-1.4-1-1.3-2l1.6-10.6c.2-1 1-1.7 1.8-1.6l17.5 1.8c.9.1 1.4 1 1.3 2l-1.6 10.6c-.2 1-1 1.7-1.8 1.6zM173.7 225.1l-17.5-1.8c-.9-.1-1.4-1-1.3-2l1.6-10.6c.2-1 1-1.7 1.8-1.6l17.5 1.8c.9.1 1.4 1 1.3 2l-1.6 10.6c-.2.9-1 1.7-1.8 1.6zM208.1 182.9l-17.5-1.8c-.9-.1-1.4-1-1.3-2l1.6-10.6c.2-1 1-1.7 1.8-1.6l17.5 1.8c.9.1 1.4 1 1.3 2l-1.6 10.6c-.2.9-1 1.7-1.8 1.6zM204.7 205.4l-17.5-1.8c-.9-.1-1.4-1-1.3-2l1.6-10.6c.2-1 1-1.7 1.8-1.6l17.5 1.8c.9.1 1.4 1 1.3 2l-1.6 10.6c-.2 1-1 1.7-1.8 1.6zM201.3 228l-17.5-1.8c-.9-.1-1.4-1-1.3-2l1.6-10.6c.2-1 1-1.7 1.8-1.6l17.5 1.8c.9.1 1.4 1 1.3 2l-1.6 10.6c-.1 1-1 1.7-1.8 1.6zM235.7 185.8l-17.5-1.8c-.9-.1-1.4-1-1.3-2l1.6-10.6c.2-1 1-1.7 1.8-1.6l17.5 1.8c.9.1 1.4 1 1.3 2l-1.6 10.6c-.1.9-1 1.7-1.8 1.6zM232.3 208.4l-17.5-1.8c-.9-.1-1.4-1-1.3-2l1.6-10.6c.2-1 1-1.7 1.8-1.6l17.5 1.8c.9.1 1.4 1 1.3 2l-1.6 10.6c-.1.9-.9 1.7-1.8 1.6zM228.9 230.9l-17.5-1.8c-.9-.1-1.4-1-1.3-2l1.6-10.6c.2-1 1-1.7 1.8-1.6l17.5 1.8c.9.1 1.4 1 1.3 2l-1.6 10.6c-.1 1-.9 1.7-1.8 1.6zM263.3 188.7l-17.5-1.8c-.9-.1-1.4-1-1.3-2l1.6-10.6c.2-1 1-1.7 1.8-1.6l17.5 1.8c.9.1 1.4 1 1.3 2l-1.6 10.6c-.1 1-.9 1.7-1.8 1.6zM259.9 211.3l-17.5-1.8c-.9-.1-1.4-1-1.3-2l1.6-10.6c.2-1 1-1.7 1.8-1.6l17.5 1.8c.9.1 1.4 1 1.3 2l-1.6 10.6c-.1.9-.9 1.7-1.8 1.6zM256.5 233.9l-17.5-1.8c-.9-.1-1.4-1-1.3-2l1.6-10.6c.2-1 1-1.7 1.8-1.6l17.5 1.8c.9.1 1.4 1 1.3 2l-1.6 10.6c-.1.9-.9 1.7-1.8 1.6z"/></g><g filter="url(#a)"><path d="M180.4 179.9l-17.5-1.8c-.9-.1-1.4-1-1.3-2l1.6-10.6c.2-1 1-1.7 1.8-1.6l17.5 1.8c.9.1 1.4 1 1.3 2l-1.6 10.6c-.1 1-.9 1.7-1.8 1.6zM177.1 202.5l-17.5-1.8c-.9-.1-1.4-1-1.3-2l1.6-10.6c.2-1 1-1.7 1.8-1.6l17.5 1.8c.9.1 1.4 1 1.3 2l-1.6 10.6c-.2 1-1 1.7-1.8 1.6zM173.7 225.1l-17.5-1.8c-.9-.1-1.4-1-1.3-2l1.6-10.6c.2-1 1-1.7 1.8-1.6l17.5 1.8c.9.1 1.4 1 1.3 2l-1.6 10.6c-.2.9-1 1.7-1.8 1.6zM208.1 182.9l-17.5-1.8c-.9-.1-1.4-1-1.3-2l1.6-10.6c.2-1 1-1.7 1.8-1.6l17.5 1.8c.9.1 1.4 1 1.3 2l-1.6 10.6c-.2.9-1 1.7-1.8 1.6zM204.7 205.4l-17.5-1.8c-.9-.1-1.4-1-1.3-2l1.6-10.6c.2-1 1-1.7 1.8-1.6l17.5 1.8c.9.1 1.4 1 1.3 2l-1.6 10.6c-.2 1-1 1.7-1.8 1.6zM201.3 228l-17.5-1.8c-.9-.1-1.4-1-1.3-2l1.6-10.6c.2-1 1-1.7 1.8-1.6l17.5 1.8c.9.1 1.4 1 1.3 2l-1.6 10.6c-.1 1-1 1.7-1.8 1.6zM235.7 185.8l-17.5-1.8c-.9-.1-1.4-1-1.3-2l1.6-10.6c.2-1 1-1.7 1.8-1.6l17.5 1.8c.9.1 1.4 1 1.3 2l-1.6 10.6c-.1.9-1 1.7-1.8 1.6zM232.3 208.4l-17.5-1.8c-.9-.1-1.4-1-1.3-2l1.6-10.6c.2-1 1-1.7 1.8-1.6l17.5 1.8c.9.1 1.4 1 1.3 2l-1.6 10.6c-.1.9-.9 1.7-1.8 1.6zM228.9 230.9l-17.5-1.8c-.9-.1-1.4-1-1.3-2l1.6-10.6c.2-1 1-1.7 1.8-1.6l17.5 1.8c.9.1 1.4 1 1.3 2l-1.6 10.6c-.1 1-.9 1.7-1.8 1.6zM263.3 188.7l-17.5-1.8c-.9-.1-1.4-1-1.3-2l1.6-10.6c.2-1 1-1.7 1.8-1.6l17.5 1.8c.9.1 1.4 1 1.3 2l-1.6 10.6c-.1 1-.9 1.7-1.8 1.6zM259.9 211.3l-17.5-1.8c-.9-.1-1.4-1-1.3-2l1.6-10.6c.2-1 1-1.7 1.8-1.6l17.5 1.8c.9.1 1.4 1 1.3 2l-1.6 10.6c-.1.9-.9 1.7-1.8 1.6zM256.5 233.9l-17.5-1.8c-.9-.1-1.4-1-1.3-2l1.6-10.6c.2-1 1-1.7 1.8-1.6l17.5 1.8c.9.1 1.4 1 1.3 2l-1.6 10.6c-.1.9-.9 1.7-1.8 1.6z"/></g><path d="M182.7 182.5l-15.7-1.7c-.8-.1-1.3-.8-1.2-1.6l1.3-8.7c.1-.8.9-1.4 1.6-1.3l15.7 1.7c.8.1 1.3.8 1.2 1.6l-1.3 8.7c-.1.8-.9 1.4-1.6 1.3zM179.8 201l-15.7-1.7c-.8-.1-1.3-.8-1.2-1.6l1.3-8.7c.1-.8.9-1.4 1.6-1.3l15.7 1.7c.8.1 1.3.8 1.2 1.6l-1.3 8.7c-.1.8-.8 1.4-1.6 1.3zM176.9 219.5l-15.7-1.7c-.8-.1-1.3-.8-1.2-1.6l1.3-8.7c.1-.8.9-1.4 1.6-1.3l15.7 1.7c.8.1 1.3.8 1.2 1.6l-1.3 8.7c-.1.8-.8 1.4-1.6 1.3zM207.5 185.1l-15.7-1.7c-.8-.1-1.3-.8-1.2-1.6l1.3-8.7c.1-.8.9-1.4 1.6-1.3l15.7 1.7c.8.1 1.3.8 1.2 1.6l-1.3 8.7c-.2.8-.9 1.4-1.6 1.3zM204.6 203.6l-15.7-1.7c-.8-.1-1.3-.8-1.2-1.6l1.3-8.7c.1-.8.9-1.4 1.6-1.3l15.7 1.7c.8.1 1.3.8 1.2 1.6l-1.3 8.7c-.1.8-.8 1.4-1.6 1.3zM201.7 222.1l-15.7-1.7c-.8-.1-1.3-.8-1.2-1.6l1.3-8.7c.1-.8.9-1.4 1.6-1.3l15.7 1.7c.8.1 1.3.8 1.2 1.6l-1.3 8.7c-.1.8-.8 1.4-1.6 1.3zM232.3 187.8l-15.7-1.7c-.8-.1-1.3-.8-1.2-1.6l1.3-8.7c.1-.8.9-1.4 1.6-1.3l15.7 1.7c.8.1 1.3.8 1.2 1.6l-1.3 8.7c-.2.7-.9 1.3-1.6 1.3zM229.4 206.3l-15.7-1.7c-.8-.1-1.3-.8-1.2-1.6l1.3-8.7c.1-.8.9-1.4 1.6-1.3l15.7 1.7c.8.1 1.3.8 1.2 1.6L231 205c-.1.7-.8 1.3-1.6 1.3zM226.5 224.8l-15.7-1.7c-.8-.1-1.3-.8-1.2-1.6l1.3-8.7c.1-.8.9-1.4 1.6-1.3l15.7 1.7c.8.1 1.3.8 1.2 1.6l-1.3 8.7c-.1.7-.8 1.3-1.6 1.3zM257 190.4l-15.7-1.7c-.8-.1-1.3-.8-1.2-1.6l1.3-8.7c.1-.8.9-1.4 1.6-1.3l15.7 1.7c.8.1 1.3.8 1.2 1.6l-1.3 8.7c-.1.8-.8 1.4-1.6 1.3zM254.2 208.9l-15.7-1.7c-.8-.1-1.3-.8-1.2-1.6l1.3-8.7c.1-.8.9-1.4 1.6-1.3l15.7 1.7c.8.1 1.3.8 1.2 1.6l-1.3 8.7c-.1.8-.8 1.4-1.6 1.3zM251.3 227.4l-15.7-1.7c-.8-.1-1.3-.8-1.2-1.6l1.3-8.7c.1-.8.9-1.4 1.6-1.3l15.7 1.7c.8.1 1.3.8 1.2 1.6l-1.3 8.7c-.1.8-.8 1.4-1.6 1.3z"/></g><g><path d="M544.243 498.75c-.1 0 6.127 5.152 6.007 5.534.76-.288 1.627 2.05 2.327-.45l-.687 1.663 5.153 1.004 4.7.334-6.667-2.167 1.767 1.833-.6-3.166-1.9-3.334 2.5 6.5-2.4-6.6v.2l2.4 6.4-.5-5.2-1.8-.8-.1-.4c.8 2.9 1.7 5.5 2.6 6.4h-.2c13.2 3.8 26.5 14.8 39.9 18.7l1.3.8h2.6c5.6.8-1.883.25 4.517 1.25l7.583 3.25 5.049 4.438c.3 3.5.251 4.862.651 5.162 1.9.7 2.9 1.1 4.9 1.8.6.1.9.1 1.4.1-1.1.4-1.7.7-2.8 1.1 5.1.5 7.7.8 12.8 1.3-1.9-.5-2.8-.8-4.7-1.3 2.6.6 3.8.9 6.4 1.4 2.6.6 3.9.8 6.5 1.4 2 1.1 2.9 1.6 4.9 2.7 5.9 2.5 11.9 4 17.8 5.4h-4.8l14.9 6h229l5.5-4.1c.3.2.5.4.7.6v-1l.2-.1-.2-.1c-.1-1.8-.3-3-.8-5.1 1 1.8 4.1 3.8 9 5.5 10 3.4 22.6 5.5 32.8 2.4 6.7-2 2.4-7.4-8-10.7-9.2-2.8-20.2-4.5-29.6-1.7-2.8.8-4.1 2.2-4 3.7-.5-.1-.9-.1-1.3-.1 2.2-5.7-1.8-12.6-8.6-12.8-1.8-.1-3.5-.1-5.3-.2-1.7-.7-3.3-1.4-5-2.1-5.8-5.5-9-8.2-16.1-13.7-.5.2-.7.3-1.1.5-5.5-2.4-8.3-3.6-13.8-5.9 1.6-.3 3.1-.7 4.5-1.2l.9-.6c.4.4.7.8 1.1 1.3 2.5-.4 3.7-.7 6-1.1-2.4-.4-3.9-.6-6-.9.8-.5 1.4-.9 2.3-1.6-6.9-2.3-10.3-3.5-17.2-5.8-1.7.1-2.6.2-4.4.3-8.5-3.9-12.8-5.8-21.5-9.6l-7.5-2c-.1-.1-.2-.1-.4-.1-.7-.3-1-.5-1.7-.8-8.1-4.6-16.4-8.9-24.7-13.1 1.6.7 2.5 1 4.1 1.6.2-1.9.2-2.8 0-4.7h-4.2c-.8-.8-1.2-1.3-2-2 0-1.4-.2-2.4-.6-4.1.4.3.6.5 1.1.9-.3-2.2-.7-3.3-1.6-5.5-7.1-3.5-10.7-5.1-17.9-8.4 1.8 1.1 3.1 2 4.4 2.8-.7-.3-1.3-.6-2-.9l2.1.9c1.8 1.2 3.5 2.4 5.9 4.1-7-1.4-10.6-2.1-17.8-3.5-.6-.2-1.6-.6-2.2-.8-16.2-8.9-32.7-17-49.5-24.8-.1.5-.1.8-.2 1.2-.8-.7-2-1.6-2.8-2.3-4.5-1.7-8.9-3.3-13.3-4.9-5.1-1.4-10-2.7-14.9-4.5.9 0 1.4-.1 2.3-.1 2.3.8 4.7 1.7 7.2 2.6l-7.2-2.7h.3c-.9-.4-1.4-.6-2.3-1 3.8-.2 5.6-.2 9.3-.4 0 0-9.5-2.5-18.4-2.7 0 0 1.1.2 1.4.3-2.8 0-5 .1-6.4.3h-1.6-.7l.1-.1v-.1c-6.4.1-11.4 1-15.8 2.7h.7c-.7.5-1 .5-1 .5 5.2-.2 7.8-.2 13-.4l-1.5 1h1.2c-6.8 3.6-11.831 6.412-20.631 10.912 3.2-.7 6.031-1.712 9.131-2.412 6.3-4.3 8.6-6 12.1-8.6 1.3 0 1.9 0 3.2-.1 1.5.6 4.1-.4 4.1-.4 4.6-.2 2.9-.2 7.4-.4 1.1.4 1.6.6 2.7 1h1c8.7 3.7 20.9 8.6 31 13.1-.1.5-.3 1.1-.5 1.8-1.4.8-2.1 1.2-3.6 2-.7.4-1.1.6-1.9 1 1.9-.3 2.9-.5 4.7-.9l-.3.6c-1.1.2-1.7.4-2.8.6-2.3.6-3.5.9-6.1 1.4-15.4 1.4-30.7 2.3-46.1 2.9-1.1-.7-2.3-1.2-3.5-1.7-3-1.3-8.4-1.3-17-2 .5.3 1.1.7 1.7 1-3.1-.5-5.4-.8-7.8-1.1 5.6-2.6 16.2-7.4 21.7-10.2-7.3 1.7-16.1 4.6-24.1 6.4-2.7.5-4.9.8-7 1.2-7.6-3.9-15.2-7.7-22.9-11.5-6.4.1-9.6.1-16.1.1-3.1-1.5-4.7-2.2-7.9-3.7h10.7s-14.1-4.5-23.5-4.6c-1.9 0-3.3.2-4.3.5-1-.3-2.4-.5-4.3-.5l4.2 4.6h11.5c3.2 1.5 4.8 2.2 8 3.7-7.7 0-11.7 0-19.3-.1h-.6l.4.1h-.1l8.05 17.737.61 1.001-.118-.455-.492-.546c-.1 0-.139.395-.239.395s.1 0 0 0l.97.2c-7.6.1 6.969-.596-.731-.596 3.2-1.5-3.2 1.5 0 0 4.7 0-3.469.596.731.596l-.629-.428c-2 0 1.116.134.116.434-1-.3 2.807-.352.907-.352-.972.113-.763.344-.763.344 4.3 0-1.375-3.083 0 0-.426-.013 1.37-.85.763-.344-6.5 0 2.65.413-3.75.313-7.7 3.8-71.725-10.9-79.325-7-2.1-.4-4.3-.7-7-1.2-13.793-5.226-16.195-6.845-19.7-6.3 5.5 2.8 11.7 7.5 17.3 10.1m-48.001-19.7c4.5.2 6.8.3 11.4.4 0 0-.3 0 1.2-.5h1.2c.6.4.9.6 1.6 1 1.3 0 1.9.1 3.2.1 4.4 3.2 6.8 5 12.1 8.6 3.352 1.546 5.037 2.132 7.9 1.7-8.8-4.5-12.6-6.5-19.4-10.2h1.2l-1.5-1m12.57.229c-4.4-1.7-9.17-3.029-15.67-3.029v.1-.1c-.3 0-.6.2-.6.2h-1.6c-1.4-.2-3.7-.3-6.5-.3-.4.1-.7.2-1.1.3-8.8.3-19.8 2.1-19.8 2.1 3.7.2 5.5.3 9.3.4m247.501.6c.5-.3 2.4.2 3-.1.1 0-1.8-.4-1.6-.4-.1 0 0 0 0 0 .2 0-.9.3-1.4.5zm-22.1 23.3c-4.6.1-7 .1-11.8.2-1-.5-1.5-.7-2.4-1.2 4.3-.1 6.4-.1 10.5-.2 1.1.4 2.4.8 3.7 1.2zm143.2 29.2l-1.7-1.7c.7.5 1 .7 1.7 1.2v.5zm3.2 2.4h-1.1c-.2-.3-.3-.4-.6-.7.7.2 1.1.4 1.7.7z" fill="#110F0E"/></g></svg>
