<svg xmlns="http://www.w3.org/2000/svg" viewBox="0 0 960 560" enable-background="new 0 0 960 560"><filter id="a"><feGaussianBlur stdDeviation="7"/></filter><g fill="#110F0E"><path d="M673.1 421.3c-.4-.1-.7-.2-1.1-.3-2.8 0-5.1.1-6.5.3h-1.6s-.3-.2-.6-.2c-6.5 0-11.27 1.329-15.67 3.029l12.396-.113c-.484.323-.791.527-1.326.884h1.2c-6.8 3.7-10.6 5.7-19.4 10.2h.001c-2.665 1.028-6.337 2.53-11.801 4.6-2.7.5-4.9.8-7 1.2-7.6-3.9-71.625 10.8-79.325 7-.45.007-.816.011-1.123.014-.127.025-.637.035-1.72.025s-.001 0-.001 0c-.046 0-.099-.001-.147-.002l.004-.006s.004-.006.008-.014l.015-.025c-.002-.001-.005-.002-.006-.002v-.002c.005-.011.008-.021.013-.032l.01.01.012-.02.222-.046c.065.036.044.079-.103.128.255-.005.432-.013.543-.025-.236-.015-.118-.043.108-.077-.061-.023-.172-.048-.314-.074l.094-.019c.188.018.365.035.527.052.049-.007.098-.013.145-.02.463-.065.795-.131-.344-.161-.086-.002-.177-.004-.28-.006.074-.013.142-.025.193-.035.139-.027.153-.044-.111-.052-.067-.002-.155-.003-.261-.004-.031-.087-.063-.169-.108-.169l8.05-17.737h-.1l.4-.1h-.6c-7.6.1-11.6.1-19.3.1 3.2-1.5 4.8-2.2 8-3.7h11.5l4.2-4.6c-1.9 0-3.3.2-4.3.5-1-.3-2.4-.5-4.3-.5-9.4.1-23.5 4.6-23.5 4.6h10.7c-3.2 1.5-4.8 2.2-7.9 3.7-6.5 0-9.7 0-16.1-.1-7.7 3.8-15.3 7.6-22.9 11.5-2.1-.4-4.3-.7-7-1.2-4.871-1.096-10.035-2.598-14.98-3.991.004.001.007.002.011.003-8.8-4.5-13.831-7.312-20.631-10.912h1.2l-1.5-1c5.2.2 7.8.2 13 .4 0 0-.3 0-1-.5h.7c-4.4-1.7-9.4-2.6-15.8-2.7v.1l.1.1h-2.3c-1.4-.2-3.6-.3-6.4-.3.3-.1 1.4-.3 1.4-.3-8.9.2-18.4 2.7-18.4 2.7 3.7.2 5.5.2 9.3.4-.9.4-1.4.6-2.3 1h.3l-7.2 2.7c2.5-.9 4.9-1.8 7.2-2.6.9 0 1.4.1 2.3.1-4.9 1.8-9.8 3.1-14.9 4.5-4.4 1.6-8.8 3.2-13.3 4.9-.8.7-2 1.6-2.8 2.3-.1-.4-.1-.7-.2-1.2-16.8 7.8-33.3 15.9-49.5 24.8-.6.2-1.6.6-2.2.8-7.2 1.4-10.8 2.1-17.8 3.5 2.4-1.7 4.1-2.9 5.9-4.1.104-.044.208-.089.311-.133 1.231-.767 2.485-1.626 4.189-2.667-7.2 3.3-10.8 4.9-17.9 8.4-.9 2.2-1.3 3.3-1.6 5.5.5-.4.7-.6 1.1-.9-.4 1.7-.6 2.7-.6 4.1-.8.7-1.2 1.2-2 2h-4.2c-.2 1.9-.2 2.8 0 4.7 1.6-.6 2.5-.9 4.1-1.6-8.3 4.2-16.6 8.5-24.7 13.1-.7.3-1 .5-1.7.8-.2 0-.3 0-.4.1l-7.5 2c-8.7 3.8-13 5.7-21.5 9.6-1.8-.1-2.7-.2-4.4-.3-6.9 2.3-10.3 3.5-17.2 5.8.9.7 1.5 1.1 2.3 1.6-2.1.3-3.6.5-6 .9 2.3.4 3.5.7 6 1.1.4-.5.7-.9 1.1-1.3l.9.6c1.4.5 2.9.9 4.5 1.2-5.5 2.3-8.3 3.5-13.8 5.9-.4-.2-.6-.3-1.1-.5-7.1 5.5-10.3 8.2-16.1 13.7-1.7.7-3.3 1.4-5 2.1-1.8.1-3.5.1-5.3.2-6.8.2-10.8 7.1-8.6 12.8-.4 0-.8 0-1.3.1.1-1.5-1.2-2.9-4-3.7-9.4-2.8-20.4-1.1-29.6 1.7-10.4 3.3-14.7 8.7-8 10.7 10.2 3.1 22.8 1 32.8-2.4 4.9-1.7 8-3.7 9-5.5-.5 2.1-.7 3.3-.8 5.1l-.2.1.2.1v1c.2-.2.4-.4.7-.6l5.5 4.1h229l14.9-6h-4.8c5.9-1.4 11.9-2.9 17.8-5.4 2-1.1 2.9-1.6 4.9-2.7 2.6-.6 3.9-.8 6.5-1.4 2.6-.5 3.8-.8 6.4-1.4-1.9.5-2.8.8-4.7 1.3 5.1-.5 7.7-.8 12.8-1.3-1.1-.4-1.7-.7-2.8-1.1.5 0 .8 0 1.4-.1 2-.7 3-1.1 4.9-1.8.4-.3.351-1.662.651-5.162L488 530.5l7.583-3.25c6.4-1-1.083-.45 4.517-1.25h2.6l1.3-.8c13.4-3.9 26.7-14.9 39.9-18.7h-.2l.204-.04-.004.04.046-.048 4.907-.956-.332-.804c.625.939 1.336-.649 1.972-.408-.121-.381 6.107-5.534 6.007-5.534l74.6-55.25c5.6-2.6 11.8-7.3 17.3-10.1 5.3-3.6 7.7-5.4 12.1-8.6 1.3 0 1.9-.1 3.2-.1.523-.299.823-.486 1.192-.729l2.322-.021c.659.246.486.25.486.25 4.177-.091 6.474-.182 10.227-.348l5.673-.052c3.8-.1 5.6-.2 9.3-.4 0 0-11-1.8-19.8-2.1zm-360.2 58h-1.1c.6-.3 1-.5 1.7-.7-.3.3-.4.4-.6.7zm2.1-2.4v-.1-.4c.7-.5 1-.7 1.7-1.2l-1.7 1.7zm155-29c-4.8-.1-7.2-.1-11.8-.2 1.3-.4 2.6-.8 3.7-1.2 4.1.1 6.2.1 10.5.2-.9.5-1.4.7-2.4 1.2zm-3.6-3.2c.6-.3 1.2-.7 1.7-1-8.6.7-14 .7-17 2-1.2.5-2.4 1-3.5 1.7-15.4-.6-30.7-1.5-46.1-2.9-2.6-.5-3.8-.8-6.1-1.4-1.1-.2-1.7-.4-2.8-.6l-.3-.6c1.8.4 2.8.6 4.7.9-.8-.4-1.2-.6-1.9-1-1.5-.8-2.2-1.2-3.6-2-.2-.7-.4-1.3-.5-1.8 10.1-4.5 22.3-9.4 31-13.1h1c1.1-.4 1.6-.6 2.7-1 4.5.2 2.8.2 7.4.4 0 0 2.6 1 4.1.4 1.3.1 1.9.1 3.2.1 3.5 2.6 5.8 4.3 12.1 8.6 5.5 2.8 16.1 7.6 21.7 10.2-2.4.3-4.7.6-7.8 1.1zm72.845 3.235c-.078-.001-.143-.001-.226-.002.083 0 .153-.001.227-.001l-.001.003zm7.021 52.299l-.009.016c.014-.051.029-.1.043-.151l-.034.135zm118.771-76.36c.085-.056.165-.11.263-.174h1.2c.186.062.345.116.48.164l-1.943.01z"/><path d="M539.75 447.337c.128.06.251.118.369.173-.11-.051-.219-.103-.369-.173zM328.901 459.6c-.596.255-1.192.511-1.789.766-.07.044-.142.09-.211.133.7-.299 1.3-.599 2-.899zM540.102 447.903c.169.011.524.015 1.151.011.145-.028-.2-.075-.736-.13-.109.015-.216.029-.307.042.084.032.068.058-.108.077zM539.507 447.929c.01.003.014.006.025.01h.001c.012-.004.015-.007.026-.01-.017-.001-.035 0-.052 0zM539.428 447.866l-.016.026c.006.003.017.006.024.009.004-.009.003-.02-.008-.035zM539.388 447.931c.044 0 .078-.001.118-.002-.028-.009-.05-.018-.07-.027-.005.013-.008.028-.048.029z"/></g><path fill="none" stroke="#FAFAFA" stroke-miterlimit="10" d="M597.5 249.8l-4.3 4.1"/><path fill="none" stroke="#EEA639" stroke-miterlimit="10" d="M589 262.3l4.2-8.8H565"/><path fill="none" stroke="#FFF" stroke-miterlimit="10" d="M594.5 246v16"/><path fill="none" stroke="#F0F0F0" stroke-miterlimit="10" d="M583 251.5h6M585.5 260v-8"/><path fill="none" stroke="#EEE" stroke-miterlimit="10" d="M585.9 249l17.4 8.3"/><path d="M614.6 376.1c5.6 3.6 11.1 7.1 16.7 10.7.5.3 1-.5.5-.9-5.6-3.6-11.1-7.1-16.7-10.7-.5-.3-1 .5-.5.9z" fill="#000107"/><path d="M671 414.3c-2.6-5.5-4.7-12.3-8.2-17.3-2.4-3.4-9.5-4.5-13.3-5.9-5.3-2-10.9-5.1-16.7-5.6-5.9-.5-11.8-1.2-17.7-1.8l.9 1.5c6.9-12.2 13.8-24.3 20.7-36.5.3-.5.1-1.1-.4-1.4-7-3.9-14-7.8-21-11.6-1.1-.6-2.1 1.1-1 1.7 7 3.9 14 7.8 21 11.6-.1-.5-.2-.9-.4-1.4-6.9 12.2-13.8 24.3-20.7 36.5-.4.7.1 1.4.9 1.5 5.5.6 11.1 1.2 16.6 1.7 5.7.5 11 3.2 16.3 5.2 3.4 1.3 6.8 2.6 10.3 3.9.8.3 2.1.5 2.7 1-.4-.3-.1-.2.3.9 2.1 5.8 5.3 11.3 8 16.9.6 1.2 2.3.2 1.7-.9z" fill="#643802"/><path d="M635.5 348.9c8.4 16.1 16.8 32.1 25.2 48.2.6 1.1 2.3.1 1.7-1-8.4-16.1-16.8-32.1-25.2-48.2-.6-1.1-2.3-.1-1.7 1z" fill="#BD6A04"/><path d="M636.1 347.3c-6.3 11-12.5 22.1-18.8 33.1-.9 1.6-1.8 3.1-2.7 4.7-.1.2.5.3.6.1 6.3-11 12.5-22.1 18.8-33.1.9-1.6 1.8-3.1 2.7-4.7.1-.2-.5-.3-.6-.1z" fill="#875E20"/><path d="M637.3 347.2L613 333.1c-.6-.3-1.1.5-.5.9l24.3 14.1c.5.3 1-.6.5-.9z" fill="#FBB03B"/><path d="M638 347.2c-7.1-4.2-14.3-8.4-21.4-12.6l-3-1.8c-.2-.1-.7.1-.4.2 7.1 4.2 14.3 8.4 21.4 12.6l3 1.8c.2.1.7 0 .4-.2z" fill="#BD6A04"/><path d="M636.6 348.1c10.2 19.7 20.5 39.4 30.7 59.1 1.4 2.8 2.9 5.5 4.3 8.3.3.6 1.2.1.9-.5-10.2-19.7-20.5-39.4-30.7-59.1-1.4-2.8-2.9-5.5-4.3-8.3-.3-.6-1.2-.1-.9.5z" fill="#FBB03B"/><path d="M637.5 347.4c4 7.6 7.9 15.3 11.9 22.9 6.3 12.1 12.6 24.1 18.8 36.2 1.5 2.8 2.9 5.6 4.4 8.4.1.2.7.1.6-.1-4-7.6-7.9-15.3-11.9-22.9-6.3-12.1-12.6-24.1-18.8-36.2-1.5-2.8-2.9-5.6-4.4-8.4-.1-.2-.7-.2-.6.1z" fill="#BD6A04"/><path fill="none" stroke="#FBB03B" stroke-miterlimit="10" d="M663.8 399.2l-27.4-11.3"/><path d="M636.4 387.4c-7.6-.9-15.2-1.8-22.7-2.7-.6-.1-.6.9 0 1 7.6.9 15.2 1.8 22.7 2.7.6 0 .6-1 0-1z" fill="#875E20"/><path d="M644 358.2l-6.3-11.4c-.6-1.2-2.4-1.1-3 0l-6.9 11.4c-1.2 1.9 1.9 3.7 3 1.8l6.9-11.4c.5-.8.2-2-.6-2.4-3.1-1.7-6.3-3.3-9.4-5-2-1.1-3.8 2-1.8 3 3.1 1.7 6.3 3.3 9.4 5l-.6-2.4-6.9 11.4c-1.2 1.9 1.9 3.7 3 1.8l6.9-11.4h-3L641 360c1.1 1.9 4.1.2 3-1.8z" fill="#FFF6EE"/><path fill="#272727" d="M642.8 389.5l-6-2.3-5.8-.3"/><path d="M643.3 387.8c-1.9-.7-4-1.8-6-2.3s-4.3-.3-6.3-.4c-2.2-.1-2.2 3.4 0 3.5 1.1.1 2.1.1 3.2.2.6 0 1.2.1 1.9.1.5 0 1 .2.5 0 2 .6 3.9 1.5 5.9 2.2 2 .9 2.9-2.5.8-3.3z" fill="#857F7A"/><path d="M683.7 415h-27.5s5.2 6.2 14.4 6.1 13.1-6.1 13.1-6.1z" fill="#FBB03B"/><path d="M672 415v6.101c-6.844.461-12.3-1.965-15.8-6.101H672z" fill="#1A1A1A"/><path fill="#E6E6E6" d="M673.8 415l-1.7-3h-4.6l1.3 3"/><path fill="#4E4B48" d="M620.9 336.3l-2.7 1v2.8l-3.2-1.8-2.3-1.4-.8-5.5"/><path fill="none" stroke="#EEE" stroke-width=".25" stroke-miterlimit="10" d="M576 248.1l-.1 5.8"/><path fill="#EFEFEF" d="M576 242.2l-2.9 7.8H578.9"/><g><path d="M629.9 361.3c2.1-3.4 4.1-6.7 6.2-10.1 1.2-1.9-1.8-3.7-3-1.8-2.1 3.4-4.1 6.7-6.2 10.1-1.2 1.9 1.8 3.7 3 1.8z" fill="#7A7A7A"/></g><g><path d="M765.6 245.9h-52.2c-16.4 0-29.7-13.3-29.7-29.7v-22.7c0-16.4 13.3-29.7 29.7-29.7h52.2c16.4 0 29.7 13.3 29.7 29.7v22.7c0 16.4-13.3 29.7-29.7 29.7z" fill="#FFF" filter="url(#a)"/><path d="M765.6 245.9h-52.2c-16.4 0-29.7-13.3-29.7-29.7v-22.7c0-16.4 13.3-29.7 29.7-29.7h52.2c16.4 0 29.7 13.3 29.7 29.7v22.7c0 16.4-13.3 29.7-29.7 29.7z" fill="#FFF" filter="url(#a)"/><path d="M759.6 239.9h-40.2c-16.4 0-29.7-13.3-29.7-29.7v-13.9c0-16.4 13.3-29.7 29.7-29.7h40.2c16.4 0 29.7 13.3 29.7 29.7v13.9c0 16.4-13.3 29.7-29.7 29.7z" fill="#FFF"/></g></svg>
