<?xml version="1.0" encoding="iso-8859-1"?>
<!-- Generator: Adobe Illustrator 19.0.1, SVG Export Plug-In . SVG Version: 6.00 Build 0)  -->
<svg version="1.1" xmlns="http://www.w3.org/2000/svg" xmlns:xlink="http://www.w3.org/1999/xlink" x="0px" y="0px"
	 viewBox="0 0 960 560" style="enable-background:new 0 0 960 560;" xml:space="preserve">
<g id="module-half-left">
	<polyline id="left_antenna_sign_2_" style="fill:none;stroke:#000000;stroke-miterlimit:10;" points="503.7,255.4 495.8,262.7
		498.7,264.9 498.7,264.9 	"/>
	<polyline id="left_antena_2_" style="fill:none;stroke:#FEFEFE;stroke-width:0.5;stroke-miterlimit:10;" points="528.4,247.6
		532.7,253.9 540.1,249 	"/>
	<ellipse id="satelite_center_5_" style="fill:#FFFFFF;" cx="553.8" cy="240.1" rx="8.9" ry="9.1"/>

		<line id="cross_1_2_" style="fill:none;stroke:#545454;stroke-width:0.25;stroke-miterlimit:10;" x1="548.6" y1="235.9" x2="558.9" y2="244.5"/>
	<path style="fill:#FEF5EA;" d="M506,289.1l7.4-23.3l5.3-4l-1.2,30c0,0,1.4,43.6-3.4,43c-1.2-0.1-7.4-8.7-9.2-8.6
		C504.4,326.2,506.5,289.1,506,289.1z"/>
	<polygon id="left_thing_2_" style="fill:#DFDFDF;" points="501.9,300.9 499.9,313.4 500.7,316.6 507.6,324.4 514.2,317.7
		515,310.4 	"/>
	<polyline id="left_point_2_" style="fill:none;stroke:#FFE9C7;stroke-miterlimit:10;" points="518.3,263 503.3,255.5 530,255.5
		"/>
	<path id="left_module_2_" style="fill:#C6C6C6;" d="M505.3,289.4l-5.2,2l0.2,8.5l18.5,3.7l-0.8-11.4
		C518,291.7,514.7,287.3,505.3,289.4z"/>

		<line id="cross_2_2_" style="fill:none;stroke:#545454;stroke-width:0.25;stroke-miterlimit:10;" x1="549.1" y1="244.9" x2="558.9" y2="235.9"/>

		<ellipse id="satelite_center_4_" style="fill:#1A1A1A;stroke:#262626;stroke-miterlimit:10;" cx="553.9" cy="240.6" rx="0.8" ry="0.8"/>
	<circle id="left_satelite_2_" style="fill:#FEFEFE;" cx="490" cy="255.3" r="9.4"/>
	<g id="left_satellite_point_2_">
		<g>
			<path style="fill:#1A1A1A;" d="M489.4,256c1.6,1.1,3.2,2.2,4.8,3.2c0.4,0.3,0.8-0.4,0.4-0.6c-1.6-1.1-3.2-2.2-4.8-3.2
				C489.3,255,489,255.7,489.4,256L489.4,256z"/>
		</g>
	</g>
	<polygon id="left_triangle_2_" style="fill:#C6C6C6;" points="518,262.7 508.9,281.3 518,278 	"/>

		<ellipse id="left_module_circle_2_" style="fill:#1A1A1A;stroke:#1A1A1A;stroke-miterlimit:10;" cx="505.2" cy="294.6" rx="2" ry="1.9"/>
	<polygon id="left_module_triangle_2_" style="fill:#C6C6C6;stroke:#C6C6C6;stroke-miterlimit:10;" points="496.5,293.3
		496.5,297.1 499.5,295.2 	"/>
	<polygon id="left_module_triangle_2_2_" style="fill:#C6C6C6;stroke:#C6C6C6;stroke-miterlimit:10;" points="505.3,287.5
		501.5,287.5 503.4,290 	"/>
	<g>
		<g>
			<path style="fill:#FEF5EA;" d="M499.9,313.4c4.4-0.2,8.9-0.4,13.3-0.5c0.6,0,1.3-0.1,1.9-0.1c0.1,0,0.2-0.1,0-0.1
				c-4.4,0.2-8.9,0.4-13.3,0.5c-0.6,0-1.3,0.1-1.9,0.1C499.7,313.3,499.7,313.4,499.9,313.4L499.9,313.4z"/>
		</g>
	</g>
	<polygon style="fill:#797979;" points="503.9,300.7 504.3,303.5 506.6,304 506.1,301.1 	"/>
	<path id="left_wedge_2_" style="fill:none;stroke:#858585;stroke-miterlimit:10;" d="M506.1,300.7l13.5,2.6l3.9,10.3
		C523.6,313.6,513.2,313.1,506.1,300.7z"/>
	<g id="left_leg_part_28_">
		<g>
			<path style="fill:#000107;" d="M492.3,375.2c-5.6,3.6-11.1,7.1-16.7,10.7c-0.5,0.3,0,1.2,0.5,0.9c5.6-3.6,11.1-7.1,16.7-10.7
				C493.3,375.7,492.8,374.9,492.3,375.2L492.3,375.2z"/>
		</g>
	</g>

		<rect id="rectangle_under_flag_2_" x="506.8" y="359.4" style="fill:#FBB03B;stroke:#808080;stroke-miterlimit:10;" width="14.7" height="8.8"/>
	<path style="fill:#BE7C33;" d="M527.173,381.131c0.593-0.586,1.156-1.198,1.703-1.826L516.2,335.5h-24.7v50.8h34.493
		C525.424,384.539,525.847,382.442,527.173,381.131z"/>
	<path style="fill:#3F2401;" d="M527.173,381.131c0.783-0.774,3.927-4.672,4.055-4.824l-0.579-2.014L519.5,335.5l-7.7,0.2l-8.5,50.8
		l18.033-0.117l4.675-0.03C525.414,384.582,525.834,382.454,527.173,381.131z"/>
	<g>
		<g>
			<path d="M497.2,344.8c11.4-2.1,22.8-4.1,34.2-6.2c0.6-0.1,0.4-1.1-0.3-1c-11.4,2.1-22.8,4.1-34.2,6.2
				C496.3,344,496.6,344.9,497.2,344.8L497.2,344.8z"/>
		</g>
	</g>
	<path style="fill:#1A1A1A;" d="M506.1,336.2l-0.6,9.8c3.9-2.1,7.9-2,12,0l-1.6-10H506"/>
	<g>
		<g>
			<path d="M493.6,337.8c11.8,2.9,23.7,5.7,35.5,8.6c0.6,0.2,0.9-0.8,0.3-1c-11.8-2.9-23.7-5.7-35.5-8.6
				C493.3,336.7,493,337.6,493.6,337.8L493.6,337.8z"/>
		</g>
	</g>
	<g>
		<g>
			<path style="fill:#573102;" d="M524.5,388.4c1.3,0,1.3-2,0-2C523.3,386.4,523.3,388.4,524.5,388.4L524.5,388.4z"/>
		</g>
	</g>
	<g id="left_leg_part_20_">
		<g>
			<path style="fill:#755F44;" d="M438.1,415.3c2.6-5.5,6-11.1,8-16.9c0.3-0.8,0.9-1.5,0.2-0.9c0.7-0.5,2.1-0.8,2.8-1.1
				c3.4-1.3,6.8-2.6,10.3-3.9c5.3-2,10.6-4.7,16.3-5.2c5.6-0.5,11.1-1.1,16.6-1.7c0.7-0.1,1.3-0.8,0.9-1.5
				c-6.9-12.2-13.8-24.3-20.7-36.5c-0.1,0.5-0.2,0.9-0.4,1.4c7-3.9,14-7.8,21-11.6c1.1-0.6,0.1-2.4-1-1.7c-7,3.9-14,7.8-21,11.6
				c-0.5,0.3-0.6,0.9-0.4,1.4c6.9,12.2,13.8,24.3,20.7,36.5c0.3-0.5,0.6-1,0.9-1.5c-5.8,0.6-11.5,1.3-17.3,1.7
				c-5.9,0.5-11.6,3.5-17.1,5.6c-3.8,1.4-10.7,2.5-13.2,5.8c-2.1,2.6-3.2,6.7-4.6,9.7c-1.2,2.6-2.4,5.2-3.7,7.8
				C435.8,415.4,437.5,416.4,438.1,415.3L438.1,415.3z"/>
		</g>
	</g>
	<g>
		<g>
			<path style="fill:#7F561F;" d="M470.7,347.4c6.6,11.3,13.1,22.6,19.7,33.8c0.9,1.6,1.8,3.2,2.7,4.7c0.1,0.2,0.7,0.1,0.6-0.1
				c-6.6-11.3-13.1-22.6-19.7-33.8c-0.9-1.6-1.8-3.2-2.7-4.7C471.2,347.1,470.6,347.2,470.7,347.4L470.7,347.4z"/>
		</g>
	</g>
	<g>
		<g>
			<path style="fill:#FEF5EA;" d="M503.9,338.1c-3.1,2.3-6.3,4.6-9.4,6.8c-0.5,0.4,0,1.2,0.5,0.9c3.1-2.3,6.3-4.6,9.4-6.8
				C504.9,338.6,504.4,337.7,503.9,338.1L503.9,338.1z"/>
		</g>
	</g>
	<g>
		<g>
			<path style="fill:#FCDBB1;" d="M470.6,348.1c8.1-4.7,16.2-9.4,24.3-14.1c0.6-0.3,0.1-1.2-0.5-0.9c-8.1,4.7-16.2,9.4-24.3,14.1
				C469.6,347.5,470.1,348.4,470.6,348.1L470.6,348.1z"/>
		</g>
	</g>
	<g>
		<g>
			<path style="fill:#FFC57D;" d="M469.8,347.4c7.1-4.2,14.3-8.4,21.4-12.6c1-0.6,2-1.2,3-1.8c0.3-0.2-0.2-0.3-0.4-0.2
				c-7.1,4.2-14.3,8.4-21.4,12.6c-1,0.6-2,1.2-3,1.8C469.1,347.4,469.6,347.5,469.8,347.4L469.8,347.4z"/>
		</g>
	</g>
	<polygon id="left_shape_4_" style="fill:#C6C6C6;stroke:#C6C6C6;stroke-miterlimit:10;" points="500.5,317.7 493.5,335.5
		506.2,338.7 507.9,304.7 503.8,304 	"/>
	<path style="fill:#1A1A1A;" d="M526.7,270.8c0,0-3.2,4-4.5,6.6l5.7-2L526.7,270.8z"/>
	<polygon style="fill:#FFFFFF;" points="494.4,268.6 502.5,261 508.4,266.8 500.3,274.7 	"/>
	<circle style="fill:#1A1A1A;" cx="494.6" cy="259" r="0.7"/>
	<polyline style="fill:none;stroke:#1A1A1A;stroke-width:0.25;stroke-miterlimit:10;" points="502.8,272.3 500,269.5 503.1,266.4
		506,269.2 	"/>
	<path style="fill:#FEFEFE;" d="M509,293.3v2.5c0,0,3.2,0.2,3.2,2.5s-3.2,1.2-3.2,1.2v1.3l9.8,2l-0.5-4.5c-2.3-3.2-5.6-5.4-9.4-6.6
		L509,293.3z"/>
	<g id="left_Z_2_">
		<g>
			<path style="fill:#706B66;" d="M510.3,314.6c7.1,8,14.1,16,21.2,23.9c0.1-0.3,0.2-0.6,0.4-0.9c-6.7,0.2-13.4,0.4-20.1,0.6
				c-0.6,0-0.7,0.8-0.1,1c5.9,1.9,11.8,3.8,17.7,5.6c0.6,0.2,0.9-0.8,0.3-1c-5.9-1.9-11.8-3.8-17.7-5.6c0,0.3-0.1,0.7-0.1,1
				c6.7-0.2,13.4-0.4,20.1-0.6c0.4,0,0.6-0.5,0.4-0.9c-7.1-8-14.1-16-21.2-23.9C510.6,313.4,509.9,314.1,510.3,314.6L510.3,314.6z"
				/>
		</g>
	</g>
	<g id="flag_1_">
		<rect id="US_FLAG_2_" x="505.6" y="347.3" style="fill:#7A7A7A;" width="17.2" height="10.7"/>
		<rect x="506.6" y="348.7" width="7.3" height="4.6"/>
		<g>
			<g>
				<path style="fill:#E01919;" d="M514.9,349.2c2.1,0,4.3,0,6.4,0c0.4,0,0.4-0.4,0-0.4c-2.1,0-4.3,0-6.4,0
					C514.5,348.9,514.5,349.2,514.9,349.2L514.9,349.2z"/>
			</g>
		</g>
		<g>
			<g>
				<path style="fill:#E01919;" d="M514.9,350.5c2.1,0,4.3,0,6.4,0c0.4,0,0.4-0.4,0-0.4c-2.1,0-4.3,0-6.4,0
					C514.5,350.1,514.5,350.5,514.9,350.5L514.9,350.5z"/>
			</g>
		</g>
		<g>
			<g>
				<path style="fill:#E01919;" d="M514.9,351.7c2.1,0,4.3,0,6.4,0c0.4,0,0.4-0.4,0-0.4c-2.1,0-4.3,0-6.4,0
					C514.5,351.4,514.5,351.7,514.9,351.7L514.9,351.7z"/>
			</g>
		</g>
		<g>
			<g>
				<path style="fill:#E01919;" d="M514.9,353c2.1,0,4.3,0,6.4,0c0.4,0,0.4-0.4,0-0.4c-2.1,0-4.3,0-6.4,0
					C514.5,352.6,514.5,353,514.9,353L514.9,353z"/>
			</g>
		</g>
		<g>
			<g>
				<path style="fill:#E01919;" d="M506.8,354.2c4.8,0,9.7,0,14.5,0c0.4,0,0.4-0.4,0-0.4c-4.8,0-9.7,0-14.5,0
					C506.5,353.9,506.5,354.2,506.8,354.2L506.8,354.2z"/>
			</g>
		</g>
		<g>
			<g>
				<path style="fill:#E01919;" d="M506.8,355.5c4.8,0,9.7,0,14.5,0c0.4,0,0.4-0.4,0-0.4c-4.8,0-9.7,0-14.5,0
					C506.5,355.1,506.5,355.5,506.8,355.5L506.8,355.5z"/>
			</g>
		</g>
		<g>
			<g>
				<path style="fill:#E01919;" d="M506.8,356.7c4.8,0,9.7,0,14.5,0c0.4,0,0.4-0.4,0-0.4c-4.8,0-9.7,0-14.5,0
					C506.5,356.4,506.5,356.7,506.8,356.7L506.8,356.7z"/>
			</g>
		</g>
	</g>
	<g>
		<g>
			<path style="fill:#FDE0BB;" d="M469.3,347.3c-4,7.6-7.9,15.3-11.9,22.9c-6.3,12.1-12.6,24.1-18.8,36.2c-1.5,2.8-2.9,5.6-4.4,8.4
				c-0.1,0.2,0.5,0.3,0.6,0.1c4-7.6,7.9-15.3,11.9-22.9c6.3-12.1,12.6-24.1,18.8-36.2c1.5-2.8,2.9-5.6,4.4-8.4
				C470,347.1,469.4,347.1,469.3,347.3L469.3,347.3z"/>
		</g>
	</g>
	<line style="fill:none;stroke:#FD8E05;stroke-miterlimit:10;" x1="492.2" y1="334.9" x2="492.2" y2="334.9"/>
	<line style="fill:none;stroke:#77541C;stroke-miterlimit:10;" x1="443.6" y1="399.2" x2="471" y2="387.9"/>
	<g>
		<g>
			<path style="fill:#7F561F;" d="M471,388.4c7.3-0.6,14.6-1.1,21.9-1.7c0.6,0,0.6-1,0-1c-7.3,0.6-14.6,1.1-21.9,1.7
				C470.4,387.4,470.4,388.4,471,388.4L471,388.4z"/>
		</g>
	</g>
	<g id="left_leg_part_12_">
		<g>
			<path style="fill:#64441B;" d="M470.2,347.9C459.1,369.6,448,391.3,437,413c-0.6,1.1,1.1,2.2,1.7,1
				c11.1-21.7,22.1-43.4,33.2-65.1C472.5,347.8,470.8,346.8,470.2,347.9L470.2,347.9z"/>
		</g>
	</g>
	<g>
		<g>
			<path style="fill:#FFB33C;" d="M469.9,347.6c-10.2,19.7-20.5,39.4-30.7,59.1c-1.4,2.8-2.9,5.5-4.3,8.3c-0.3,0.6,0.6,1.1,0.9,0.5
				c10.2-19.7,20.5-39.4,30.7-59.1c1.4-2.8,2.9-5.5,4.3-8.3C471.1,347.5,470.2,347,469.9,347.6L469.9,347.6z"/>
		</g>
	</g>
	<g>
		<g>
			<path style="fill:#FDF3E8;" d="M466.4,359.9c2.1-3.8,4.2-7.6,6.3-11.4c-1,0-2,0-3,0c2.3,3.8,4.6,7.6,6.9,11.4
				c1.2,1.9,4.2,0.2,3-1.8c-2.3-3.8-4.6-7.6-6.9-11.4c-0.2,0.8-0.4,1.6-0.6,2.4c3.1-1.7,6.3-3.3,9.4-5c2-1.1,0.2-4.1-1.8-3
				c-3.1,1.7-6.3,3.3-9.4,5c-0.8,0.4-1.1,1.6-0.6,2.4c2.3,3.8,4.6,7.6,6.9,11.4c1.2,1.9,4.2,0.2,3-1.8c-2.3-3.8-4.6-7.6-6.9-11.4
				c-0.7-1.1-2.4-1.2-3,0c-2.1,3.8-4.2,7.6-6.3,11.4C462.3,360.1,465.3,361.9,466.4,359.9L466.4,359.9z"/>
		</g>
	</g>
	<polyline style="fill:#FDF3E8;" points="486.5,336.8 488.8,337.6 488.8,340.1 491.5,338.5 493.5,337.3 494.1,332.4 	"/>
	<g>
		<polyline style="fill:#494846;" points="464.6,389.5 470.6,387.2 476.5,386.9 		"/>
		<g>
			<path style="fill:#A3978B;" d="M465.1,391.2c2-0.7,3.9-1.6,5.9-2.2c-0.4,0.1-0.2,0,0.3,0c0.7,0,1.4-0.1,2-0.1
				c1.1-0.1,2.1-0.1,3.2-0.2c2.2-0.1,2.3-3.6,0-3.5c-2,0.1-4.3,0-6.3,0.4c-2,0.5-4,1.5-6,2.3C462,388.6,463,392,465.1,391.2
				L465.1,391.2z"/>
		</g>
	</g>
	<g id="center_foot_6_">
		<path style="fill:#FFD38F;" d="M423.7,415h27.5c0,0-5.2,6.2-14.4,6.1S423.7,415,423.7,415z"/>
	</g>
	<path style="fill:#1A1A1A;" d="M436,415v6.4c7,0.1,11.7-2.4,15.2-6.4H436z"/>
	<path style="fill:#3A3A3A;" d="M527.173,388.202c-1.891-1.736-1.85-4.904-0.227-6.792c-0.149-0.07-0.295-0.144-0.446-0.21
		c-1.9,1.9-3.9,5-3.7,6.8c-0.3,1.8,3.7,2.1,8.9,3.2c0.352-0.639,0.547-1.246,0.639-1.841
		C530.595,389.941,528.61,389.522,527.173,388.202z"/>
	<polygon style="fill:#FEFEFE;" points="433.7,415 435.3,412 439.9,412 438.6,415 	"/>
	<polygon style="fill:#ADADAD;" points="531.6,253.1 528.1,268.8 517.5,291.5 517,278.4 518,277.9 517.2,262.7 	"/>
	<g>
		<g>
			<path style="fill:#7A7A7A;" d="M479.7,358.2c-1.8-2.9-3.5-5.8-5.3-8.8c-1.2-1.9-4.2-0.2-3,1.8c1.8,2.9,3.5,5.8,5.3,8.8
				C477.8,361.9,480.8,360.1,479.7,358.2L479.7,358.2z"/>
		</g>
	</g>
	<rect id="empty_box__x28_use_for_every_layer_5_" style="opacity:0;" width="960" height="560"/>
</g>
<g id="Layer_1">
</g>
</svg>
