<?xml version="1.0" encoding="iso-8859-1"?>
<!-- Generator: Adobe Illustrator 19.0.1, SVG Export Plug-In . SVG Version: 6.00 Build 0)  -->
<svg version="1.1" xmlns="http://www.w3.org/2000/svg" xmlns:xlink="http://www.w3.org/1999/xlink" x="0px" y="0px"
	 viewBox="0 0 960 560" style="enable-background:new 0 0 960 560;" xml:space="preserve">
<g id="module-full">
	<g id="Raster_Lunar_Module_illustration">
		<polyline id="left_antenna_sign" style="fill:none;stroke:#000000;stroke-miterlimit:10;" points="503.7,255.4 495.8,262.7
			498.7,264.9 498.7,264.9 		"/>
		<polyline id="left_antena" style="fill:none;stroke:#CCCCCC;stroke-width:0.5;stroke-miterlimit:10;" points="528.4,247.6
			532.7,253.9 540.1,249 		"/>
		<ellipse id="satelite_center" style="fill:#CCCCCC;" cx="553.8" cy="240.1" rx="8.9" ry="9.1"/>

			<line id="cross_1" style="fill:none;stroke:#B3B3B3;stroke-width:0.25;stroke-miterlimit:10;" x1="548.6" y1="235.9" x2="558.9" y2="244.5"/>
		<path style="fill:#E9E0D6;" d="M506,289.1l7.4-23.3l5.3-4l-1.2,30c0,0,1.4,43.6-3.4,43c-1.2-0.1-7.4-8.7-9.2-8.6
			C504.4,326.2,506.5,289.1,506,289.1z"/>
		<polygon id="left_thing" style="fill:#999999;" points="501.9,300.9 499.9,313.4 500.7,316.6 507.6,324.4 514.2,317.7 515,310.4
					"/>
		<polygon id="right_triangle_3_" style="fill:#333333;" points="606.3,286 601.7,286 604,289.7 		"/>
		<polyline id="left_point" style="fill:none;stroke:#FBB03B;stroke-miterlimit:10;" points="518.3,263 503.3,255.5 530,255.5 		"/>
		<path id="left_shoulder" style="fill:#808080;stroke:#808080;stroke-miterlimit:10;" d="M518.2,289.6l-0.2-26.8l13.9-9.3h13.8
			l-2.3,1.3v4.5C543.5,259.3,524,263.5,518.2,289.6z"/>
		<path id="left_module" style="fill:#808080;" d="M505.3,289.4l-5.2,2l0.2,8.5l18.5,3.7l-0.8-11.4
			C518,291.7,514.7,287.3,505.3,289.4z"/>
		<path id="circle_inside" style="fill:#333333;" d="M590,294.3c0,1,0,2-0.1,2.9c-1.5,18.5-17,33.1-35.9,33.1c-19.9,0-36-16.1-36-36
			s16.1-36,36-36C573.8,258.3,590,274.4,590,294.3z"/>
		<g id="right_arm_thing">
			<polygon style="fill:#999999;" points="589.4,263.7 590,262.2 592.8,263.3 598.6,282.6 599.1,286.2 601,287.4 605,289.6
				606,291.8 606,294.6 601.6,300 598.5,300.7 594.6,302.4 587,304.3 589.3,297.2 			"/>
			<g>
				<path style="fill:#808080;" d="M589.7,263.7c0.2-0.5,0.4-1,0.6-1.4c-0.1,0-0.3,0.1-0.4,0.1c0.5,0.2,0.9,0.4,1.4,0.6
					c0.3,0.1,0.6,0.3,0.9,0.4c0.2,0.1,0.5,0.3,0.4,0.1c0.2,0.3,0.3,1,0.4,1.4c0.7,2.4,1.5,4.8,2.2,7.3c0.8,2.6,1.6,5.3,2.4,7.9
					c0.4,1.4,0.8,2.6,1,3.9c0.1,0.7,0,1.9,0.4,2.5c0.4,0.5,1.5,1,2.1,1.3c1.1,0.6,2.3,1.2,3.5,1.8c0.6,0.4,1.2,1.4,1.5,2.2
					c0.2,0.7,0.3,2.2,0.1,2.9c-0.1,0.4-1.2,1.5-1.7,2c-0.8,1-1.7,2-2.5,3c-0.3,0.4-0.1,0.2-0.4,0.3c-0.6,0.2-1.2,0.3-1.8,0.4
					c-1.9,0.4-3.7,1.6-5.4,2.1c-2.4,0.7-4.8,1.2-7.2,1.8c0.1,0.1,0.2,0.2,0.4,0.2c0.4-1.3,0.9-2.7,1.3-4c0.3-1,0.9-2.1,1-3.2
					c0.2-1.7,0-3.6,0-5.2c0-7.4,0-14.8,0.1-22.1C589.7,267.8,589.7,265.7,589.7,263.7c0-0.3-0.6-0.3-0.6,0c0,5.2,0,10.4,0,15.6
					c0,3.8,0,7.5,0,11.3c0,2.1,0.2,4.3,0,6.4c-0.1,0.8-0.5,1.8-0.8,2.6c-0.5,1.6-1,3.1-1.5,4.7c-0.1,0.2,0.2,0.3,0.4,0.2
					c2.3-0.6,4.6-1.1,6.8-1.7c1.7-0.4,3.3-1.4,4.9-2c0.9-0.3,2.2-0.2,3.1-0.7c0.6-0.3,1.1-1.2,1.5-1.7c0.9-1.1,1.8-2.2,2.7-3.3
					c0.6-0.7,0.5-0.9,0.5-1.9c0-1.2,0-1.6-0.6-2.7c-0.5-1-0.6-1.2-1.6-1.7c-1.1-0.6-2.1-1.1-3.2-1.7c-0.8-0.4-1.7-0.9-1.9-1.5
					c-0.4-1.5-0.4-3-0.8-4.5c-0.8-2.5-1.5-5-2.3-7.5c-0.9-3-1.8-5.9-2.7-8.9c-0.1-0.4-0.2-1.3-0.5-1.6c-0.5-0.6-2.2-0.9-2.9-1.2
					c-0.1,0-0.4,0-0.4,0.1c-0.2,0.5-0.4,1-0.6,1.4C589,263.9,589.6,263.9,589.7,263.7z"/>
			</g>
		</g>

			<line id="cross_2" style="fill:none;stroke:#B3B3B3;stroke-width:0.25;stroke-miterlimit:10;" x1="549.1" y1="244.9" x2="558.9" y2="235.9"/>

			<ellipse id="satelite_center_1_" style="fill:#1A1A1A;stroke:#333333;stroke-miterlimit:10;" cx="553.9" cy="240.6" rx="0.8" ry="0.8"/>
		<path id="white_rectangle_center" style="fill:#E9E0D6;" d="M545.5,259.3l-4.8,35.6l-0.2,1.7l0.5,0.2l0.3-1.8h24.9l0.4,2l0.4-0.1
			l-0.3-2.2l-3.8-35.2C562.9,259.4,555.1,257,545.5,259.3z"/>
		<polygon id="triangle_l" style="fill:#1A1A1A;" points="527.9,275.3 543.6,272.3 541.4,288.2 		"/>

			<circle id="circle_dot_center" style="fill:#808080;stroke:#F2F2F2;stroke-width:0.5;stroke-miterlimit:10;" cx="553.9" cy="284.3" r="3.1"/>
		<polygon id="rectnalge_center" points="540.5,296.4 567,296.5 569.7,323 537.6,323 		"/>

			<rect id="door" x="541.4" y="297.7" style="fill:#333333;stroke:#000000;stroke-width:0.25;stroke-miterlimit:10;" width="25" height="23.2"/>
		<polygon id="door_handle_holder" style="fill:#CCCCCC;" points="550.2,320.8 559,308.5 559,305 565,305 565,320.7 		"/>
		<polygon id="thin_rectangle" style="fill:#1A1A1A;" points="541.1,295 540.6,298 566.9,298 566.1,295 		"/>
		<path id="door_handle" style="fill:#FBB03B;stroke:#FBB03B;stroke-miterlimit:10;" d="M564.5,313.9c-2,0-3.5-2.1-3.5-4.6
			s1.5-4.6,3.5-4.6C567.5,304.7,567.5,313.9,564.5,313.9z"/>

			<line id="right__antenna_3" style="fill:none;stroke:#CCCCCC;stroke-miterlimit:10;" x1="597.5" y1="249.8" x2="593.2" y2="253.9"/>
		<polygon style="fill:#E9E0D6;" points="543,259.9 543,255.8 546.6,253.7 549.5,252 559.1,252 564,255.8 564,260.2 548.1,260.2
			544.6,260.2 		"/>
		<ellipse id="thing_on_left_side_of_door" cx="542.9" cy="302.5" rx="2.2" ry="2.5"/>
		<polyline id="right_point" style="fill:none;stroke:#FBB03B;stroke-miterlimit:10;" points="589,262.3 593.2,253.5 565,253.5
			"/>
		<polygon id="top_antenna_left" style="fill:#1A1A1A;stroke:#1A1A1A;stroke-miterlimit:10;" points="546.5,252 546.5,263.5
			548.9,263.5 549.6,260.7 551.5,260.8 551.5,257 551.5,255.8 550,255.9 548.6,252.1 550,251.1 549.2,247.5 546.4,247.5 545.3,251
					"/>
		<path id="right_shoulder" style="fill:#808080;stroke:#808080;stroke-miterlimit:10;" d="M589.2,292.7l0.1-29.6l-13.2-9.6h-13.8
			l2.1,1.7l-0.1,5c0,0,21.4,5.5,24.9,28"/>
		<polygon id="top_antenna_right" style="fill:#1A1A1A;stroke:#1A1A1A;stroke-miterlimit:10;" points="560.5,252 560.5,263.5
			558.6,263.5 557.7,260.7 555.5,260.8 555.5,257 555.5,255.8 557.2,255.9 558.8,252.1 557.4,251.1 558.3,247.5 561.1,247.5
			562,251 		"/>
		<line id="right_antenna_2" style="fill:none;stroke:#CCCCCC;stroke-miterlimit:10;" x1="594.5" y1="246" x2="594.5" y2="262"/>
		<line id="right_T_1" style="fill:none;stroke:#CCCCCC;stroke-miterlimit:10;" x1="583" y1="251.5" x2="589" y2="251.5"/>
		<line id="right_T_2" style="fill:none;stroke:#CCCCCC;stroke-miterlimit:10;" x1="585.5" y1="260" x2="585.5" y2="252"/>
		<line id="right_antenna_1" style="fill:none;stroke:#999999;stroke-miterlimit:10;" x1="585.9" y1="249" x2="603.3" y2="257.3"/>
		<path id="circle_top_left_chunk" style="fill:#E9E0D6;" d="M545.5,259.3l-1.8,13.2l-15.8,2.9l-1.2-4.5c0,0,6.6-9.6,18.4-11.4"/>
		<circle id="left_satelite" style="fill:#CCCCCC;" cx="490" cy="255.3" r="9.4"/>
		<g id="left_satellite_point">
			<g>
				<path style="fill:#1A1A1A;" d="M489.4,256c1.6,1.1,3.2,2.2,4.8,3.2c0.4,0.3,0.8-0.4,0.4-0.6c-1.6-1.1-3.2-2.2-4.8-3.2
					C489.3,255,489,255.7,489.4,256L489.4,256z"/>
			</g>
		</g>
		<polygon id="left_triangle" style="fill:#808080;" points="518,262.7 508.9,281.3 518,278 		"/>

			<ellipse id="left_module_circle" style="fill:#1A1A1A;stroke:#1A1A1A;stroke-miterlimit:10;" cx="505.2" cy="294.6" rx="2" ry="1.9"/>
		<polygon id="left_module_triangle" style="fill:#808080;stroke:#808080;stroke-miterlimit:10;" points="496.5,293.3 496.5,297.1
			499.5,295.2 		"/>
		<polygon id="left_module_triangle_2" style="fill:#808080;stroke:#808080;stroke-miterlimit:10;" points="505.3,287.5
			501.5,287.5 503.4,290 		"/>
		<g>
			<g>
				<path style="fill:#E9E0D6;" d="M499.9,313.4c4.4-0.2,8.9-0.4,13.3-0.5c0.6,0,1.3-0.1,1.9-0.1c0.1,0,0.2-0.1,0-0.1
					c-4.4,0.2-8.9,0.4-13.3,0.5c-0.6,0-1.3,0.1-1.9,0.1C499.7,313.3,499.7,313.4,499.9,313.4L499.9,313.4z"/>
			</g>
		</g>
		<path style="fill:#333333;" d="M513,332.2l2.2-27.3l4.1,0.6c0,0,6.3,15.2,17.3,21.5C537.8,327.7,520.7,337.6,513,332.2z"/>
		<polygon style="fill:#333333;" points="503.9,300.7 504.3,303.5 506.6,304 506.1,301.1 		"/>
		<path id="left_wedge" style="fill:none;stroke:#808080;stroke-miterlimit:10;" d="M506.1,300.7l13.5,2.6l3.9,10.3
			C523.6,313.6,513.2,313.1,506.1,300.7z"/>
		<polyline id="left_shape_1_" style="fill:none;stroke:#808080;stroke-miterlimit:10;" points="513.6,318 507.1,324 506.3,336.5
			538.5,336.5 538.5,329.6 536.8,326.6 		"/>
		<path id="right_thing" style="fill:#1A1A1A;" d="M601.8,334.8l-3.1-34.1c0,0-2.5,1.6-5.4,1.8c-1.7,0.1-4.7,0.8-4.7,0.8
			c-1.7,12.3-18.8,26.3-18.8,26.3L601.8,334.8z"/>
		<path id="circle_chunk_l" style="fill:#E9E0D6;" d="M518.2,298h22.2l-2.2,19h-12.8C525.3,317,518.5,309,518.2,298z"/>
		<g id="right_line">
			<g>
				<path style="fill:#808080;" d="M569.8,329.8c8.9-3.5,17.8-7,26.7-10.4c1.3-0.5,2.5-1,3.8-1.5c0.4-0.1-0.1-0.4-0.3-0.3
					c-8.9,3.5-17.8,7-26.7,10.4c-1.3,0.5-2.5,1-3.8,1.5C569.2,329.6,569.6,329.9,569.8,329.8L569.8,329.8z"/>
			</g>
		</g>
		<g id="right_triangle_1_">
			<polygon style="fill:#1A1A1A;" points="602.3,301.6 613.2,310.2 613.3,336.5 			"/>
			<g>
				<path style="fill:#808080;" d="M602,301.7c2.1,1.7,4.3,3.4,6.4,5.1c1.3,1,2.5,2,3.8,3c0.2,0.2,0.6,0.3,0.7,0.6
					c-0.1-0.2-0.1,0.1-0.1,0.3c0.1,6.4,0,12.7,0.1,19.1c0,2.3,0,4.5,0,6.8c0.2,0,0.4,0,0.6,0c-3.2-10.2-6.4-20.4-9.6-30.6
					c-0.5-1.4-0.9-2.9-1.4-4.3C602.5,301.3,601.9,301.4,602,301.7c3.1,10.1,6.3,20.3,9.6,30.5c0.5,1.4,0.9,2.9,1.4,4.3
					c0.1,0.2,0.6,0.2,0.6,0c0-5.8,0-11.5-0.1-17.3c0-2.8,0-5.6,0-8.4c0-0.5,0-0.5-0.2-0.9c-0.7-0.9-2.1-1.7-3-2.4
					c-2.6-2-5.2-4.1-7.7-6.1C602.3,301.3,601.8,301.5,602,301.7z"/>
			</g>
		</g>
		<polygon id="right_thing_1_" style="fill:#808080;" points="609,307.4 613.2,293.8 606.8,292.8 600.9,300.9 		"/>
		<polygon id="right_thing_2_" style="fill:#333333;" points="613.2,293.8 626.5,303.6 613.2,310.9 609,307.4 		"/>
		<polygon id="right_thing_2" style="fill:#1A1A1A;" points="626.6,303.6 627.2,320.7 613,314.2 613,310.6 		"/>
		<polygon id="right_thing_3" style="fill:#808080;" points="613,334.1 627.2,320.7 613,314 		"/>
		<circle id="right_circle" style="fill:#333333;" cx="602.1" cy="293.3" r="1.9"/>
		<g id="right_triangle_2_">
			<g>
				<path style="fill:#808080;" d="M589.9,289.3c4.6-0.1,9.1-0.2,13.7-0.4c-0.1-0.1-0.1-0.2-0.2-0.3c-4.5,2.7-9.1,5.4-13.6,8.2
					c0.2,0,0.3,0.1,0.5,0.1c0-2.6-0.1-5.2-0.1-7.8c0-0.3-0.6-0.3-0.6,0c0,2.6,0.1,5.2,0.1,7.8c0,0.2,0.4,0.2,0.5,0.1
					c4.5-2.7,9.1-5.4,13.6-8.2c0.2-0.1-0.1-0.3-0.2-0.3c-4.6,0.1-9.1,0.2-13.7,0.4C589.5,288.9,589.5,289.3,589.9,289.3z"/>
			</g>
		</g>
		<g id="left_leg_part_2_">
			<g>
				<path style="fill:#000107;" d="M492.3,375.2c-5.6,3.6-11.1,7.1-16.7,10.7c-0.5,0.3,0,1.2,0.5,0.9c5.6-3.6,11.1-7.1,16.7-10.7
					C493.3,375.7,492.8,374.9,492.3,375.2L492.3,375.2z"/>
			</g>
		</g>
		<polygon id="bottom_holder" style="fill:#333333;" points="540.5,385 535.7,409 572.6,409 568.5,385 		"/>
		<g id="left_leg_part_5_">
			<g>
				<path style="fill:#000107;" d="M614.6,376.1c5.6,3.6,11.1,7.1,16.7,10.7c0.5,0.3,1-0.5,0.5-0.9c-5.6-3.6-11.1-7.1-16.7-10.7
					C614.6,374.9,614.1,375.7,614.6,376.1L614.6,376.1z"/>
			</g>
		</g>
		<g id="left_leg_part_4_">
			<g>
				<path style="fill:#BD6A04;" d="M671,414.3c-2.6-5.5-4.7-12.3-8.2-17.3c-2.4-3.4-9.5-4.5-13.3-5.9c-5.3-2-10.9-5.1-16.7-5.6
					c-5.9-0.5-11.8-1.2-17.7-1.8c0.3,0.5,0.6,1,0.9,1.5c6.9-12.2,13.8-24.3,20.7-36.5c0.3-0.5,0.1-1.1-0.4-1.4
					c-7-3.9-14-7.8-21-11.6c-1.1-0.6-2.1,1.1-1,1.7c7,3.9,14,7.8,21,11.6c-0.1-0.5-0.2-0.9-0.4-1.4c-6.9,12.2-13.8,24.3-20.7,36.5
					c-0.4,0.7,0.1,1.4,0.9,1.5c5.5,0.6,11.1,1.2,16.6,1.7c5.7,0.5,11,3.2,16.3,5.2c3.4,1.3,6.8,2.6,10.3,3.9c0.8,0.3,2.1,0.5,2.7,1
					c-0.4-0.3-0.1-0.2,0.3,0.9c2.1,5.8,5.3,11.3,8,16.9C669.9,416.4,671.6,415.4,671,414.3L671,414.3z"/>
			</g>
		</g>
		<g id="left_leg_part_3_">
			<g>
				<path style="fill:#BD6A04;" d="M635.5,348.9c8.4,16.1,16.8,32.1,25.2,48.2c0.6,1.1,2.3,0.1,1.7-1c-8.4-16.1-16.8-32.1-25.2-48.2
					C636.6,346.8,634.9,347.8,635.5,348.9L635.5,348.9z"/>
			</g>
		</g>
		<g>
			<g>
				<path style="fill:#FBB03B;" d="M636.1,347.3c-6.3,11-12.5,22.1-18.8,33.1c-0.9,1.6-1.8,3.1-2.7,4.7c-0.1,0.2,0.5,0.3,0.6,0.1
					c6.3-11,12.5-22.1,18.8-33.1c0.9-1.6,1.8-3.1,2.7-4.7C636.8,347.2,636.2,347.1,636.1,347.3L636.1,347.3z"/>
			</g>
		</g>
		<g>
			<g>
				<path style="fill:#FBB03B;" d="M637.3,347.2c-8.1-4.7-16.2-9.4-24.3-14.1c-0.6-0.3-1.1,0.5-0.5,0.9c8.1,4.7,16.2,9.4,24.3,14.1
					C637.3,348.4,637.8,347.5,637.3,347.2L637.3,347.2z"/>
			</g>
		</g>
		<g>
			<g>
				<path style="fill:#BD6A04;" d="M638,347.2c-7.1-4.2-14.3-8.4-21.4-12.6c-1-0.6-2-1.2-3-1.8c-0.2-0.1-0.7,0.1-0.4,0.2
					c7.1,4.2,14.3,8.4,21.4,12.6c1,0.6,2,1.2,3,1.8C637.8,347.5,638.3,347.4,638,347.2L638,347.2z"/>
			</g>
		</g>
		<g>
			<g>
				<path style="fill:#FBB03B;" d="M636.6,348.1c10.2,19.7,20.5,39.4,30.7,59.1c1.4,2.8,2.9,5.5,4.3,8.3c0.3,0.6,1.2,0.1,0.9-0.5
					c-10.2-19.7-20.5-39.4-30.7-59.1c-1.4-2.8-2.9-5.5-4.3-8.3C637.2,347,636.3,347.5,636.6,348.1L636.6,348.1z"/>
			</g>
		</g>
		<g>
			<g>
				<path style="fill:#BD6A04;" d="M637.5,347.4c4,7.6,7.9,15.3,11.9,22.9c6.3,12.1,12.6,24.1,18.8,36.2c1.5,2.8,2.9,5.6,4.4,8.4
					c0.1,0.2,0.7,0.1,0.6-0.1c-4-7.6-7.9-15.3-11.9-22.9c-6.3-12.1-12.6-24.1-18.8-36.2c-1.5-2.8-2.9-5.6-4.4-8.4
					C638,347.1,637.4,347.1,637.5,347.4L637.5,347.4z"/>
			</g>
		</g>
		<line style="fill:none;stroke:#FBB03B;stroke-miterlimit:10;" x1="663.8" y1="399.2" x2="636.4" y2="387.9"/>
		<g>
			<g>
				<path style="fill:#FBB03B;" d="M636.4,387.4c-7.6-0.9-15.2-1.8-22.7-2.7c-0.6-0.1-0.6,0.9,0,1c7.6,0.9,15.2,1.8,22.7,2.7
					C637,388.4,637,387.4,636.4,387.4L636.4,387.4z"/>
			</g>
		</g>
		<g>
			<g>
				<path style="fill:#E9E0D6;" d="M644,358.2c-2.1-3.8-4.2-7.6-6.3-11.4c-0.6-1.2-2.4-1.1-3,0c-2.3,3.8-4.6,7.6-6.9,11.4
					c-1.2,1.9,1.9,3.7,3,1.8c2.3-3.8,4.6-7.6,6.9-11.4c0.5-0.8,0.2-2-0.6-2.4c-3.1-1.7-6.3-3.3-9.4-5c-2-1.1-3.8,2-1.8,3
					c3.1,1.7,6.3,3.3,9.4,5c-0.2-0.8-0.4-1.6-0.6-2.4c-2.3,3.8-4.6,7.6-6.9,11.4c-1.2,1.9,1.9,3.7,3,1.8c2.3-3.8,4.6-7.6,6.9-11.4
					c-1,0-2,0-3,0c2.1,3.8,4.2,7.6,6.3,11.4C642.1,361.9,645.1,360.2,644,358.2L644,358.2z"/>
			</g>
		</g>
		<g>
			<polyline style="fill:#4D4D4D;" points="642.8,389.5 636.8,387.2 631,386.9 			"/>
			<g>
				<path style="fill:#E9E0D6;" d="M643.3,387.8c-1.9-0.7-4-1.8-6-2.3s-4.3-0.3-6.3-0.4c-2.2-0.1-2.2,3.4,0,3.5
					c1.1,0.1,2.1,0.1,3.2,0.2c0.6,0,1.2,0.1,1.9,0.1c0.5,0,1,0.2,0.5,0c2,0.6,3.9,1.5,5.9,2.2C644.5,392,645.4,388.6,643.3,387.8
					L643.3,387.8z"/>
			</g>
		</g>
		<g id="center_foot_2_">
			<path style="fill:#FBB03B;" d="M683.7,415h-27.5c0,0,5.2,6.2,14.4,6.1S683.7,415,683.7,415z"/>
		</g>
		<path style="fill:#1A1A1A;" d="M672,415v5.9c-7,0.1-12.3-1.9-15.8-5.9H672z"/>
		<polygon style="fill:#E6E6E6;" points="673.8,415 672.1,412 667.5,412 668.8,415 		"/>
		<rect id="_x21__x21__x21__x21___MAIN_RECTANGLE" x="491.5" y="335.5" style="fill:#FBB03B;" width="124.6" height="50.7"/>
		<rect x="585.7" y="335.5" style="fill:#6C6110;" width="30.4" height="50.8"/>
		<polygon style="fill:#BF8F46;" points="599.6,386.2 575,386.2 542.3,335.7 587,335.5 		"/>

			<rect id="rectangle_under_flag" x="506.8" y="359.4" style="fill:#FBB03B;stroke:#808080;stroke-miterlimit:10;" width="14.7" height="8.8"/>
		<polyline style="fill:#E9E0D6;" points="620.9,336.3 618.2,337.3 618.2,340.1 615,338.3 612.7,336.9 611.9,331.4 		"/>
		<g>
			<g>
				<path style="fill:#808080;" d="M612.5,314.2c-1.5,2.1-3,4.3-4.5,6.4c-0.2,0.3,0.4,0.4,0.5,0.2c1.5-2.1,3-4.3,4.5-6.4
					C613.2,314.1,612.7,314,612.5,314.2L612.5,314.2z"/>
			</g>
		</g>
		<path id="right_circle_side" style="fill:#666666;stroke:#666666;stroke-miterlimit:10;" d="M586.2,280.5l-5.7,16.6v7.5l-5,13.1
			v4.5C575.5,322.2,596.4,307.7,586.2,280.5z"/>
		<path style="fill:#CCCCCC;" d="M583.7,315h12.8l0.6-13.4l-8.6,1.4C587.5,306.7,585.9,311,583.7,315z"/>
		<polygon style="fill:#BD6A04;" points="530.9,386.3 491.5,386.3 491.5,335.5 516.2,335.5 		"/>
		<g id="right_Z">
			<g>
				<path style="fill:#808080;" d="M599.6,314.2c-7.3,6.7-14.5,13.5-21.8,20.2c-1,1-2.1,1.9-3.1,2.9c-0.2,0.2,0.1,0.3,0.3,0.3
					c8.2,0,16.5,0,24.7,0c-0.1-0.1-0.1-0.2-0.2-0.3c-6.9,2.9-13.8,5.8-20.7,8.7c-1,0.4-2,0.8-3,1.2c-0.4,0.2,0.1,0.4,0.3,0.3
					c6.9-2.9,13.8-5.8,20.7-8.7c1-0.4,2-0.8,3-1.2c0.3-0.1,0.1-0.3-0.2-0.3c-8.2,0-16.5,0-24.7,0c0.1,0.1,0.2,0.2,0.3,0.3
					c7.3-6.7,14.5-13.5,21.8-20.2c1-1,2.1-1.9,3.1-2.9C600.3,314.2,599.8,314,599.6,314.2L599.6,314.2z"/>
			</g>
		</g>
		<g>
			<g>
				<path style="fill:#4D4D4D;" d="M497.2,344.8c11.4-2.1,22.8-4.1,34.2-6.2c0.6-0.1,0.4-1.1-0.3-1c-11.4,2.1-22.8,4.1-34.2,6.2
					C496.3,344,496.6,344.9,497.2,344.8L497.2,344.8z"/>
			</g>
		</g>
		<path style="fill:#1A1A1A;" d="M506.1,336.2l-0.6,9.8c3.9-2.1,7.9-2,12,0l-1.6-10H506"/>
		<polygon id="right_square" style="fill:#333333;" points="601.8,337 614,338.7 601.8,300 598.6,300.7 		"/>
		<rect id="right_rectangle" x="587" y="343.5" style="fill:#808080;" width="16.5" height="10.4"/>
		<g>
			<g>
				<path style="fill:#999999;" d="M528,386.7c13.1-6.9,26.2-13.8,39.3-20.7c1.1-0.6,0.1-2.3-1-1.7c-13.1,6.9-26.2,13.8-39.3,20.7
					C525.9,385.6,526.9,387.3,528,386.7L528,386.7z"/>
			</g>
		</g>
		<g>
			<g>
				<path style="fill:#4D4D4D;" d="M493.6,337.8c11.8,2.9,23.7,5.7,35.5,8.6c0.6,0.2,0.9-0.8,0.3-1c-11.8-2.9-23.7-5.7-35.5-8.6
					C493.3,336.7,493,337.6,493.6,337.8L493.6,337.8z"/>
			</g>
		</g>
		<g>
			<g>
				<path style="fill:#BD6A04;" d="M555.4,414.8c0-21.4,0-42.7,0-64.1c0-1.2-1.7-2.1-2.6-1.1c-9.8,12.2-19.5,24.5-29.3,36.7
					c-0.8,1-0.3,2.6,1.1,2.6c20.2,0.1,40.5,0.1,60.7,0.2c1.4,0,1.9-1.6,1.1-2.6c-10.4-12.6-20.8-25.3-31.2-37.9
					c-1.2-1.5-3.3,0.6-2.1,2.1c10.4,12.6,20.8,25.3,31.2,37.9c0.4-0.9,0.7-1.7,1.1-2.6c-20.2-0.1-40.5-0.1-60.7-0.2
					c0.4,0.9,0.7,1.7,1.1,2.6c9.8-12.2,19.5-24.5,29.3-36.7c-0.9-0.4-1.7-0.7-2.6-1.1c0,21.4,0,42.7,0,64.1
					C552.4,416.7,555.4,416.7,555.4,414.8L555.4,414.8z"/>
			</g>
		</g>
		<g>
			<g>
				<path style="fill:#BD6A04;" d="M524.5,388.4c1.3,0,1.3-2,0-2C523.3,386.4,523.3,388.4,524.5,388.4L524.5,388.4z"/>
			</g>
		</g>
		<g>
			<g>
				<path style="fill:#BD6A04;" d="M524.6,388.4c5.2,1.7,10.5,3.4,15.7,5.2c3.5,1.1,6.9,2.3,10.4,3.4c1.2,0.4,2.7,1.2,4,1.1
					c1.5-0.1,3.3-1,4.6-1.4c3.4-1.1,6.9-2.1,10.3-3.2c5.3-1.6,10.6-3.3,15.9-4.9c1.1-0.3,0.9-2-0.3-2c-20.1-0.1-40.3-0.1-60.4-0.2
					c-1.3,0-1.3,2,0,2c20.1,0.1,40.3,0.1,60.4,0.2c-0.1-0.7-0.2-1.3-0.3-2c-5,1.5-10,3.1-14.9,4.6c-3.4,1-6.8,2.1-10.2,3.1
					c-1.7,0.5-3.9,1.7-5.6,1.7c0.8,0,0-0.2-0.5-0.3c-1.1-0.3-2.1-0.7-3.2-1c-3.4-1.1-6.8-2.2-10.2-3.4c-5.1-1.7-10.2-3.3-15.3-5
					C524,386.1,523.4,388,524.6,388.4z"/>
			</g>
		</g>
		<g id="center_foot">
			<path style="fill:#FBB03B;" d="M540.1,415h27.5c0,0-5.2,6.2-14.4,6.1S540.1,415,540.1,415z"/>
		</g>
		<g id="left_leg_part">
			<g>
				<path style="fill:#BD6A04;" d="M438.1,415.3c2.6-5.5,6-11.1,8-16.9c0.3-0.8,0.9-1.5,0.2-0.9c0.7-0.5,2.1-0.8,2.8-1.1
					c3.4-1.3,6.8-2.6,10.3-3.9c5.3-2,10.6-4.7,16.3-5.2c5.6-0.5,11.1-1.1,16.6-1.7c0.7-0.1,1.3-0.8,0.9-1.5
					c-6.9-12.2-13.8-24.3-20.7-36.5c-0.1,0.5-0.2,0.9-0.4,1.4c7-3.9,14-7.8,21-11.6c1.1-0.6,0.1-2.4-1-1.7c-7,3.9-14,7.8-21,11.6
					c-0.5,0.3-0.6,0.9-0.4,1.4c6.9,12.2,13.8,24.3,20.7,36.5c0.3-0.5,0.6-1,0.9-1.5c-5.8,0.6-11.5,1.3-17.3,1.7
					c-5.9,0.5-11.6,3.5-17.1,5.6c-3.8,1.4-10.7,2.5-13.2,5.8c-2.1,2.6-3.2,6.7-4.6,9.7c-1.2,2.6-2.4,5.2-3.7,7.8
					C435.8,415.4,437.5,416.4,438.1,415.3L438.1,415.3z"/>
			</g>
		</g>
		<g id="left_leg_part_1_">
			<g>
				<path style="fill:#BD6A04;" d="M470.2,347.9c-8.4,16.1-16.8,32.1-25.2,48.2c-0.6,1.1,1.1,2.2,1.7,1
					c8.4-16.1,16.8-32.1,25.2-48.2C472.5,347.8,470.8,346.8,470.2,347.9L470.2,347.9z"/>
			</g>
		</g>
		<g>
			<g>
				<path style="fill:#FBB03B;" d="M470.7,347.4c6.6,11.3,13.1,22.6,19.7,33.8c0.9,1.6,1.8,3.2,2.7,4.7c0.1,0.2,0.7,0.1,0.6-0.1
					c-6.6-11.3-13.1-22.6-19.7-33.8c-0.9-1.6-1.8-3.2-2.7-4.7C471.2,347.1,470.6,347.2,470.7,347.4L470.7,347.4z"/>
			</g>
		</g>
		<polygon id="center_box" style="fill:#FBB03B;stroke:#B3B3B3;stroke-miterlimit:10;" points="569.7,344.4 538.2,344.4
			538.2,329.6 569.7,329.6 569.7,335.6 		"/>
		<g id="s_in_center_box">
			<path style="fill:#FBB03B;" d="M548.7,330.8c0,0-3,0.5-2.2,5.7s-7,7-7,7"/>
			<g>
				<path style="fill:#B3B3B3;" d="M548.6,330.3c-2.8,0.5-2.7,4.1-2.5,6.2c0.3,3.8-3.4,5.8-6.6,6.5c-0.6,0.1-0.4,1.1,0.3,1
					c2.3-0.5,4.9-1.7,6.4-3.7c1.3-1.8,0.9-3.3,0.9-5.3c0-1.3,0.3-3.4,2-3.7C549.5,331.2,549.2,330.2,548.6,330.3L548.6,330.3z"/>
			</g>
		</g>
		<path id="bottle" style="fill:#F2F2F2;stroke:#808080;stroke-miterlimit:10;" d="M551.5,260.7c0,0-0.1,2.6,1.9,2.6
			c2.1,0,2.1-2.5,2.1-2.5v-5l-0.8-0.9l0.2-3.4h-2.2l-0.3,3.2l-0.9,1.1V260.7z"/>
		<g>
			<g>
				<path style="fill:#E9E0D6;" d="M503.9,338.1c-3.1,2.3-6.3,4.6-9.4,6.8c-0.5,0.4,0,1.2,0.5,0.9c3.1-2.3,6.3-4.6,9.4-6.8
					C504.9,338.6,504.4,337.7,503.9,338.1L503.9,338.1z"/>
			</g>
		</g>
		<g>
			<g>
				<path style="fill:#FBB03B;" d="M470.6,348.1c8.1-4.7,16.2-9.4,24.3-14.1c0.6-0.3,0.1-1.2-0.5-0.9c-8.1,4.7-16.2,9.4-24.3,14.1
					C469.6,347.5,470.1,348.4,470.6,348.1L470.6,348.1z"/>
			</g>
		</g>
		<rect x="551.5" y="256.5" style="fill:#F2F2F2;stroke:#F2F2F2;stroke-miterlimit:10;" width="4" height="1"/>
		<g>
			<g>
				<path style="fill:#BD6A04;" d="M469.8,347.4c7.1-4.2,14.3-8.4,21.4-12.6c1-0.6,2-1.2,3-1.8c0.3-0.2-0.2-0.3-0.4-0.2
					c-7.1,4.2-14.3,8.4-21.4,12.6c-1,0.6-2,1.2-3,1.8C469.1,347.4,469.6,347.5,469.8,347.4L469.8,347.4z"/>
			</g>
		</g>
		<circle style="fill:#4D4D4D;" cx="545.8" cy="282.7" r="0.7"/>
		<circle style="fill:#4D4D4D;" cx="563" cy="282.6" r="0.6"/>
		<circle style="fill:#4D4D4D;" cx="559.2" cy="270.1" r="0.9"/>
		<polygon id="left_shape" style="fill:#808080;stroke:#808080;stroke-miterlimit:10;" points="500.5,317.7 493.5,335.5
			506.2,338.7 507.9,304.7 503.8,304 		"/>
		<polygon id="triangle_l_2_" style="fill:#1A1A1A;" points="582.1,275.9 564.4,272.3 566.1,288.7 		"/>
		<path style="fill:#E9E0D6;" d="M590,297.2l-10-0.1v7.6l-5,13.1v5.9C575,323.7,588.1,315.6,590,297.2z"/>
		<polygon style="fill:#1A1A1A;" points="566.1,288.6 567.1,297 580,297 586.4,278.6 584.1,274.6 581.2,270.7 581.8,276 581.6,276
					"/>
		<g>
			<g>
				<path style="fill:#4D4D4D;" d="M569.4,318.6c3.9,0,7.7,0,11.6,0c0.4,0,0.4-0.3,0-0.3c-3.9,0-7.7,0-11.6,0
					C569,318.3,569,318.6,569.4,318.6L569.4,318.6z"/>
			</g>
		</g>
		<polygon style="fill:#FBB03B;" points="549,321.4 566.2,321.4 565.7,297 548,297 548,296.6 566.3,296.6 568.9,322.2 549,322.1
			"/>
		<polyline style="fill:none;stroke:#4D4D4D;stroke-width:0.5;stroke-miterlimit:10;" points="551.8,318.6 552.8,319.3 554.5,316.8
			553.5,316.1 		"/>
		<path id="circle_top_left_chunk_4_" style="fill:#1A1A1A;" d="M563,260.6c15.9,3.8,23.5,18.4,23.5,18.4l3.2,2.6v7.6l1.3-0.3v-25.2
			l-6.9-4.7l3.3,3.8l0.3,3.9l2,2.1h-7.5L563.9,256h-2.5l1.3,1.1L563,260.6z"/>
		<polyline style="fill:none;stroke:#4D4D4D;stroke-width:0.5;stroke-miterlimit:10;" points="575.6,316.5 576.7,316.8 578,314.2
			576.7,313.8 		"/>
		<ellipse style="fill:#1A1A1A;" cx="551.1" cy="310.1" rx="0.7" ry="1.4"/>
		<path style="fill:#E9E0D6;" d="M526.4,318.4h11.7l-0.9,8.8C537.2,327.3,532,325.3,526.4,318.4z"/>
		<polyline style="fill:#333333;" points="525,317 538.1,317 538,318 526,318 		"/>
		<line style="fill:none;stroke:#808080;stroke-width:0.25;stroke-miterlimit:10;" x1="576" y1="248.1" x2="575.9" y2="253.9"/>
		<polygon id="right_triangle" style="fill:#B3B3B3;" points="576,242.2 573.1,250 575.8,250 578.9,250 		"/>
		<g>
			<g>
				<path style="fill:#FBB03B;" d="M554.2,414.8c0-9.2,0-18.4,0-27.7c0-7.9,0-15.9,0-23.8c0-4.2,0-8.4,0-12.6c0-0.2-0.5-0.2-0.6-0.1
					c-8.5,10.7-17.1,21.4-25.6,32.1c-1.2,1.5-2.4,3.1-3.7,4.6c-0.1,0.2,0.1,0.3,0.3,0.3c6.8,0,13.7,0,20.5,0.1
					c10.9,0,21.8,0.1,32.7,0.1c2.5,0,5,0,7.5,0c0.1,0,0.4-0.1,0.3-0.3c-9.1-11.1-18.2-22.1-27.4-33.2c-1.3-1.6-2.6-3.1-3.9-4.7
					c-0.1-0.2-0.7-0.1-0.5,0.2c9.1,11.1,18.2,22.1,27.4,33.2c1.3,1.6,2.6,3.1,3.9,4.7c0.1-0.1,0.2-0.2,0.3-0.3
					c-6.8,0-13.7,0-20.5-0.1c-10.9,0-21.8-0.1-32.7-0.1c-2.5,0-5,0-7.5,0c0.1,0.1,0.2,0.2,0.3,0.3c8.5-10.7,17.1-21.4,25.6-32.1
					c1.2-1.5,2.4-3.1,3.7-4.6c-0.2,0-0.4-0.1-0.6-0.1c0,9.3,0,18.7,0,28c0,7.5,0,14.9,0,22.4c0,4.6,0,9.1,0,13.7
					C553.6,415,554.2,415,554.2,414.8L554.2,414.8z"/>
			</g>
		</g>
		<g>
			<g>
				<path style="fill:#FBB03B;" d="M524.8,387.6c8.9,2.9,17.8,5.8,26.6,8.7c0.9,0.3,2.1,0.9,3,1c0.9,0,2-0.6,2.8-0.8
					c5.2-1.6,10.5-3.2,15.7-4.9c4.2-1.3,8.4-2.6,12.6-3.9c0.3-0.1,0.1-0.3-0.2-0.3c-6.8,0-13.6,0-20.3-0.1
					c-10.9,0-21.7-0.1-32.6-0.1c-2.5,0-5,0-7.5,0c-0.4,0-0.4,0.4,0,0.4c6.8,0,13.6,0,20.3,0.1c10.9,0,21.7,0.1,32.6,0.1
					c2.5,0,5,0,7.5,0c-0.1-0.1-0.1-0.2-0.2-0.3c-8.8,2.7-17.7,5.5-26.5,8.2c-1.4,0.4-2.8,0.8-4.1,1.3c-0.3,0.1,0.3,0.2-0.2,0
					c-0.5-0.3-1.1-0.4-1.7-0.5c-5-1.7-10.1-3.3-15.1-5c-4.2-1.4-8.3-2.7-12.5-4.1C524.8,387.2,524.4,387.5,524.8,387.6z"/>
			</g>
		</g>
		<path style="fill:#1A1A1A;" d="M526.7,270.8c0,0-3.2,4-4.5,6.6l5.7-2L526.7,270.8z"/>
		<polygon style="fill:#4D4D4D;" points="494.4,268.6 502.5,261 508.4,266.8 500.3,274.7 		"/>
		<circle style="fill:#1A1A1A;" cx="494.6" cy="259" r="0.7"/>

			<rect id="ladder_outline" x="545.6" y="354.9" style="fill:none;stroke:#808080;stroke-miterlimit:10;" width="16.3" height="42.2"/>
		<line id="ladder_step_1" style="fill:none;stroke:#808080;stroke-miterlimit:10;" x1="546" y1="359.5" x2="562" y2="359.5"/>
		<line id="ladder_step_1_1_" style="fill:none;stroke:#808080;stroke-miterlimit:10;" x1="546" y1="364.5" x2="562" y2="364.5"/>
		<line id="ladder_step_1_2_" style="fill:none;stroke:#808080;stroke-miterlimit:10;" x1="546" y1="369.5" x2="562" y2="369.5"/>
		<line id="ladder_step_1_3_" style="fill:none;stroke:#808080;stroke-miterlimit:10;" x1="546" y1="375.5" x2="562" y2="375.5"/>
		<line id="ladder_step_1_4_" style="fill:none;stroke:#808080;stroke-miterlimit:10;" x1="546" y1="381.5" x2="562" y2="381.5"/>
		<line id="ladder_step_1_5_" style="fill:none;stroke:#808080;stroke-miterlimit:10;" x1="546" y1="387.5" x2="562" y2="387.5"/>
		<line id="ladder_step_1_6_" style="fill:none;stroke:#808080;stroke-miterlimit:10;" x1="546" y1="392.5" x2="562" y2="392.5"/>
		<polyline style="fill:none;stroke:#1A1A1A;stroke-width:0.25;stroke-miterlimit:10;" points="502.8,272.3 500,269.5 503.1,266.4
			506,269.2 		"/>
		<path style="fill:#E6E6E6;" d="M509,293.3v2.5c0,0,3.2,0.2,3.2,2.5s-3.2,1.2-3.2,1.2v1.3l9.8,2l-0.5-4.5c-2.3-3.2-5.6-5.4-9.4-6.6
			L509,293.3z"/>
		<circle style="fill:#F2F2F2;stroke:#FBB03B;stroke-width:0.5;stroke-miterlimit:10;" cx="554" cy="326" r="1"/>
		<g id="left_Z">
			<g>
				<path style="fill:#E9E0D6;" d="M510.3,314.6c7.1,8,14.1,16,21.2,23.9c0.1-0.3,0.2-0.6,0.4-0.9c-6.7,0.2-13.4,0.4-20.1,0.6
					c-0.6,0-0.7,0.8-0.1,1c5.9,1.9,11.8,3.8,17.7,5.6c0.6,0.2,0.9-0.8,0.3-1c-5.9-1.9-11.8-3.8-17.7-5.6c0,0.3-0.1,0.7-0.1,1
					c6.7-0.2,13.4-0.4,20.1-0.6c0.4,0,0.6-0.5,0.4-0.9c-7.1-8-14.1-16-21.2-23.9C510.6,313.4,509.9,314.1,510.3,314.6L510.3,314.6z"
					/>
			</g>
		</g>
		<g id="flag">
			<rect id="US_FLAG" x="505.6" y="347.3" style="fill:#F2F2F2;" width="17.2" height="10.7"/>
			<rect x="506.6" y="348.7" style="fill:#3C3A77;" width="7.3" height="4.6"/>
			<g>
				<g>
					<path style="fill:#B21212;" d="M514.9,349.2c2.1,0,4.3,0,6.4,0c0.4,0,0.4-0.4,0-0.4c-2.1,0-4.3,0-6.4,0
						C514.5,348.9,514.5,349.2,514.9,349.2L514.9,349.2z"/>
				</g>
			</g>
			<g>
				<g>
					<path style="fill:#B21212;" d="M514.9,350.5c2.1,0,4.3,0,6.4,0c0.4,0,0.4-0.4,0-0.4c-2.1,0-4.3,0-6.4,0
						C514.5,350.1,514.5,350.5,514.9,350.5L514.9,350.5z"/>
				</g>
			</g>
			<g>
				<g>
					<path style="fill:#B21212;" d="M514.9,351.7c2.1,0,4.3,0,6.4,0c0.4,0,0.4-0.4,0-0.4c-2.1,0-4.3,0-6.4,0
						C514.5,351.4,514.5,351.7,514.9,351.7L514.9,351.7z"/>
				</g>
			</g>
			<g>
				<g>
					<path style="fill:#B21212;" d="M514.9,353c2.1,0,4.3,0,6.4,0c0.4,0,0.4-0.4,0-0.4c-2.1,0-4.3,0-6.4,0
						C514.5,352.6,514.5,353,514.9,353L514.9,353z"/>
				</g>
			</g>
			<g>
				<g>
					<path style="fill:#B21212;" d="M506.8,354.2c4.8,0,9.7,0,14.5,0c0.4,0,0.4-0.4,0-0.4c-4.8,0-9.7,0-14.5,0
						C506.5,353.9,506.5,354.2,506.8,354.2L506.8,354.2z"/>
				</g>
			</g>
			<g>
				<g>
					<path style="fill:#B21212;" d="M506.8,355.5c4.8,0,9.7,0,14.5,0c0.4,0,0.4-0.4,0-0.4c-4.8,0-9.7,0-14.5,0
						C506.5,355.1,506.5,355.5,506.8,355.5L506.8,355.5z"/>
				</g>
			</g>
			<g>
				<g>
					<path style="fill:#B21212;" d="M506.8,356.7c4.8,0,9.7,0,14.5,0c0.4,0,0.4-0.4,0-0.4c-4.8,0-9.7,0-14.5,0
						C506.5,356.4,506.5,356.7,506.8,356.7L506.8,356.7z"/>
				</g>
			</g>
		</g>
		<g>
			<g>
				<path style="fill:#4D4D4D;" d="M542.8,345.5c1.8,0.9,3.7,1.7,5.5,2.6c1.2,0.6,2.4,1.1,3.6,1.7c0.4,0.2,1,0.7,1.5,0.7
					c0.4,0,1-0.5,1.4-0.6c1.2-0.6,2.3-1.1,3.5-1.7c1.8-0.9,3.7-1.8,5.5-2.7c0.3-0.2-0.2-0.4-0.4-0.3c-1.7,0.8-3.4,1.7-5.1,2.5
					c-1.1,0.6-2.3,1.1-3.4,1.7c-0.4,0.2-0.8,0.4-1.2,0.6c-0.2,0.1-0.7,0.2-0.4,0.2c0.4,0-0.3-0.2-0.4-0.3c-0.4-0.2-0.8-0.4-1.2-0.6
					c-1.2-0.6-2.3-1.1-3.5-1.7c-1.7-0.8-3.5-1.7-5.2-2.5C542.9,345.1,542.5,345.3,542.8,345.5L542.8,345.5z"/>
			</g>
		</g>
		<path style="fill:#F2F2F2;" d="M552.9,347.1l-2.5,4.9h7.8l-2.4-5C555,346.3,554.1,346.2,552.9,347.1z"/>
		<g>
			<g>
				<path style="fill:#FBB03B;" d="M469.9,347.6c-10.2,19.7-20.5,39.4-30.7,59.1c-1.4,2.8-2.9,5.5-4.3,8.3c-0.3,0.6,0.6,1.1,0.9,0.5
					c10.2-19.7,20.5-39.4,30.7-59.1c1.4-2.8,2.9-5.5,4.3-8.3C471.1,347.5,470.2,347,469.9,347.6L469.9,347.6z"/>
			</g>
		</g>
		<g>
			<g>
				<path style="fill:#BD6A04;" d="M469.3,347.3c-4,7.6-7.9,15.3-11.9,22.9c-6.3,12.1-12.6,24.1-18.8,36.2c-1.5,2.8-2.9,5.6-4.4,8.4
					c-0.1,0.2,0.5,0.3,0.6,0.1c4-7.6,7.9-15.3,11.9-22.9c6.3-12.1,12.6-24.1,18.8-36.2c1.5-2.8,2.9-5.6,4.4-8.4
					C470,347.1,469.4,347.1,469.3,347.3L469.3,347.3z"/>
			</g>
		</g>
		<line style="fill:none;stroke:#BD6A04;stroke-miterlimit:10;" x1="492.2" y1="334.9" x2="492.2" y2="334.9"/>
		<line style="fill:none;stroke:#FBB03B;stroke-miterlimit:10;" x1="443.6" y1="399.2" x2="471" y2="387.9"/>
		<g>
			<g>
				<path style="fill:#FBB03B;" d="M471,389.3c7.3-0.9,14.6-1.7,21.9-2.6c0.6-0.1,0.6-1.1,0-1c-7.3,0.9-14.6,1.7-21.9,2.6
					C470.4,388.4,470.4,389.4,471,389.3L471,389.3z"/>
			</g>
		</g>
		<g>
			<g>
				<path style="fill:#E9E0D6;" d="M466.4,359.9c2.1-3.8,4.2-7.6,6.3-11.4c-1,0-2,0-3,0c2.3,3.8,4.6,7.6,6.9,11.4
					c1.2,1.9,4.2,0.2,3-1.8c-2.3-3.8-4.6-7.6-6.9-11.4c-0.2,0.8-0.4,1.6-0.6,2.4c3.1-1.7,6.3-3.3,9.4-5c2-1.1,0.2-4.1-1.8-3
					c-3.1,1.7-6.3,3.3-9.4,5c-0.8,0.4-1.1,1.6-0.6,2.4c2.3,3.8,4.6,7.6,6.9,11.4c1.2,1.9,4.2,0.2,3-1.8c-2.3-3.8-4.6-7.6-6.9-11.4
					c-0.7-1.1-2.4-1.2-3,0c-2.1,3.8-4.2,7.6-6.3,11.4C462.3,360.1,465.3,361.9,466.4,359.9L466.4,359.9z"/>
			</g>
		</g>
		<polyline style="fill:#E9E0D6;" points="486.5,336.8 488.8,337.6 488.8,340.1 491.5,338.5 493.5,337.3 494.1,332.4 		"/>
		<g>
			<polyline style="fill:#4D4D4D;" points="464.6,389.5 470.6,387.2 476.5,386.9 			"/>
			<g>
				<path style="fill:#E9E0D6;" d="M465.1,391.2c2-0.7,3.9-1.6,5.9-2.2c-0.4,0.1-0.2,0,0.3,0c0.7,0,1.4-0.1,2-0.1
					c1.1-0.1,2.1-0.1,3.2-0.2c2.2-0.1,2.3-3.6,0-3.5c-2,0.1-4.3,0-6.3,0.4c-2,0.5-4,1.5-6,2.3C462,388.6,463,392,465.1,391.2
					L465.1,391.2z"/>
			</g>
		</g>
		<g id="center_foot_1_">
			<path style="fill:#FBB03B;" d="M423.7,415h27.5c0,0-5.2,6.2-14.4,6.1S423.7,415,423.7,415z"/>
		</g>
		<path style="fill:#1A1A1A;" d="M436,415v5.9c7,0.1,11.7-1.9,15.2-5.9H436z"/>
		<path style="fill:#E6E6E6;" d="M522.8,388c-0.3,1.8,3.7,2.1,8.9,3.2c1.1-2,0.8-3.7-0.1-5.6c-0.8-1.9-2.8-3.4-5.1-4.4
			C524.6,383.1,522.6,386.2,522.8,388z"/>
		<path style="fill:#E6E6E6;" d="M587.4,388c0.3,1.8-3.7,2.1-8.9,3.2c-1.1-2-0.8-3.7,0.1-5.6c0.8-1.9,2.8-3.4,5.1-4.4
			C585.6,383.1,587.5,386.2,587.4,388z"/>
		<rect x="551" y="411" style="fill:#E6E6E6;" width="5" height="4"/>
		<polygon style="fill:#E6E6E6;" points="433.7,415 435.3,412 439.9,412 438.6,415 		"/>
	</g>
	<rect id="empty_box__x28_use_for_every_layer_6_" style="opacity:0;" width="960" height="560"/>
</g>
<g id="Layer_1">
</g>
</svg>
