<?xml version="1.0" encoding="iso-8859-1"?>
<!-- Generator: Adobe Illustrator 19.0.1, SVG Export Plug-In . SVG Version: 6.00 Build 0)  -->
<svg version="1.1" xmlns="http://www.w3.org/2000/svg" xmlns:xlink="http://www.w3.org/1999/xlink" x="0px" y="0px"
	 viewBox="0 0 960 560" style="enable-background:new 0 0 960 560;" xml:space="preserve">
<g id="module-half-right">

		<line id="right__antenna_3_4_" style="fill:none;stroke:#FAFAFA;stroke-miterlimit:10;" x1="597.5" y1="249.8" x2="593.2" y2="253.9"/>
	<polyline id="right_point_4_" style="fill:none;stroke:#EEA639;stroke-miterlimit:10;" points="589,262.3 593.2,253.5 565,253.5
		"/>
	<line id="right_antenna_2_4_" style="fill:none;stroke:#FFFFFF;stroke-miterlimit:10;" x1="594.5" y1="246" x2="594.5" y2="262"/>
	<line id="right_T_1_4_" style="fill:none;stroke:#F0F0F0;stroke-miterlimit:10;" x1="583" y1="251.5" x2="589" y2="251.5"/>
	<line id="right_T_2_4_" style="fill:none;stroke:#F0F0F0;stroke-miterlimit:10;" x1="585.5" y1="260" x2="585.5" y2="252"/>

		<line id="right_antenna_1_4_" style="fill:none;stroke:#EEEEEE;stroke-miterlimit:10;" x1="585.9" y1="249" x2="603.3" y2="257.3"/>
	<g id="left_leg_part_27_">
		<g>
			<path style="fill:#000107;" d="M614.6,376.1c5.6,3.6,11.1,7.1,16.7,10.7c0.5,0.3,1-0.5,0.5-0.9c-5.6-3.6-11.1-7.1-16.7-10.7
				C614.6,374.9,614.1,375.7,614.6,376.1L614.6,376.1z"/>
		</g>
	</g>
	<g id="left_leg_part_25_">
		<g>
			<path style="fill:#643802;" d="M671,414.3c-2.6-5.5-4.7-12.3-8.2-17.3c-2.4-3.4-9.5-4.5-13.3-5.9c-5.3-2-10.9-5.1-16.7-5.6
				c-5.9-0.5-11.8-1.2-17.7-1.8c0.3,0.5,0.6,1,0.9,1.5c6.9-12.2,13.8-24.3,20.7-36.5c0.3-0.5,0.1-1.1-0.4-1.4c-7-3.9-14-7.8-21-11.6
				c-1.1-0.6-2.1,1.1-1,1.7c7,3.9,14,7.8,21,11.6c-0.1-0.5-0.2-0.9-0.4-1.4c-6.9,12.2-13.8,24.3-20.7,36.5c-0.4,0.7,0.1,1.4,0.9,1.5
				c5.5,0.6,11.1,1.2,16.6,1.7c5.7,0.5,11,3.2,16.3,5.2c3.4,1.3,6.8,2.6,10.3,3.9c0.8,0.3,2.1,0.5,2.7,1c-0.4-0.3-0.1-0.2,0.3,0.9
				c2.1,5.8,5.3,11.3,8,16.9C669.9,416.4,671.6,415.4,671,414.3L671,414.3z"/>
		</g>
	</g>
	<g id="left_leg_part_23_">
		<g>
			<path style="fill:#BD6A04;" d="M635.5,348.9c8.4,16.1,16.8,32.1,25.2,48.2c0.6,1.1,2.3,0.1,1.7-1c-8.4-16.1-16.8-32.1-25.2-48.2
				C636.6,346.8,634.9,347.8,635.5,348.9L635.5,348.9z"/>
		</g>
	</g>
	<g>
		<g>
			<path style="fill:#875E20;" d="M636.1,347.3c-6.3,11-12.5,22.1-18.8,33.1c-0.9,1.6-1.8,3.1-2.7,4.7c-0.1,0.2,0.5,0.3,0.6,0.1
				c6.3-11,12.5-22.1,18.8-33.1c0.9-1.6,1.8-3.1,2.7-4.7C636.8,347.2,636.2,347.1,636.1,347.3L636.1,347.3z"/>
		</g>
	</g>
	<g>
		<g>
			<path style="fill:#FBB03B;" d="M637.3,347.2c-8.1-4.7-16.2-9.4-24.3-14.1c-0.6-0.3-1.1,0.5-0.5,0.9c8.1,4.7,16.2,9.4,24.3,14.1
				C637.3,348.4,637.8,347.5,637.3,347.2L637.3,347.2z"/>
		</g>
	</g>
	<g>
		<g>
			<path style="fill:#BD6A04;" d="M638,347.2c-7.1-4.2-14.3-8.4-21.4-12.6c-1-0.6-2-1.2-3-1.8c-0.2-0.1-0.7,0.1-0.4,0.2
				c7.1,4.2,14.3,8.4,21.4,12.6c1,0.6,2,1.2,3,1.8C637.8,347.5,638.3,347.4,638,347.2L638,347.2z"/>
		</g>
	</g>
	<g>
		<g>
			<path style="fill:#FBB03B;" d="M636.6,348.1c10.2,19.7,20.5,39.4,30.7,59.1c1.4,2.8,2.9,5.5,4.3,8.3c0.3,0.6,1.2,0.1,0.9-0.5
				c-10.2-19.7-20.5-39.4-30.7-59.1c-1.4-2.8-2.9-5.5-4.3-8.3C637.2,347,636.3,347.5,636.6,348.1L636.6,348.1z"/>
		</g>
	</g>
	<g>
		<g>
			<path style="fill:#BD6A04;" d="M637.5,347.4c4,7.6,7.9,15.3,11.9,22.9c6.3,12.1,12.6,24.1,18.8,36.2c1.5,2.8,2.9,5.6,4.4,8.4
				c0.1,0.2,0.7,0.1,0.6-0.1c-4-7.6-7.9-15.3-11.9-22.9c-6.3-12.1-12.6-24.1-18.8-36.2c-1.5-2.8-2.9-5.6-4.4-8.4
				C638,347.1,637.4,347.1,637.5,347.4L637.5,347.4z"/>
		</g>
	</g>
	<line style="fill:none;stroke:#FBB03B;stroke-miterlimit:10;" x1="663.8" y1="399.2" x2="636.4" y2="387.9"/>
	<g>
		<g>
			<path style="fill:#875E20;" d="M636.4,387.4c-7.6-0.9-15.2-1.8-22.7-2.7c-0.6-0.1-0.6,0.9,0,1c7.6,0.9,15.2,1.8,22.7,2.7
				C637,388.4,637,387.4,636.4,387.4L636.4,387.4z"/>
		</g>
	</g>
	<g>
		<g>
			<path style="fill:#FFF6EE;" d="M644,358.2c-2.1-3.8-4.2-7.6-6.3-11.4c-0.6-1.2-2.4-1.1-3,0c-2.3,3.8-4.6,7.6-6.9,11.4
				c-1.2,1.9,1.9,3.7,3,1.8c2.3-3.8,4.6-7.6,6.9-11.4c0.5-0.8,0.2-2-0.6-2.4c-3.1-1.7-6.3-3.3-9.4-5c-2-1.1-3.8,2-1.8,3
				c3.1,1.7,6.3,3.3,9.4,5c-0.2-0.8-0.4-1.6-0.6-2.4c-2.3,3.8-4.6,7.6-6.9,11.4c-1.2,1.9,1.9,3.7,3,1.8c2.3-3.8,4.6-7.6,6.9-11.4
				c-1,0-2,0-3,0c2.1,3.8,4.2,7.6,6.3,11.4C642.1,361.9,645.1,360.2,644,358.2L644,358.2z"/>
		</g>
	</g>
	<g>
		<polyline style="fill:#272727;" points="642.8,389.5 636.8,387.2 631,386.9 		"/>
		<g>
			<path style="fill:#857F7A;" d="M643.3,387.8c-1.9-0.7-4-1.8-6-2.3s-4.3-0.3-6.3-0.4c-2.2-0.1-2.2,3.4,0,3.5
				c1.1,0.1,2.1,0.1,3.2,0.2c0.6,0,1.2,0.1,1.9,0.1c0.5,0,1,0.2,0.5,0c2,0.6,3.9,1.5,5.9,2.2C644.5,392,645.4,388.6,643.3,387.8
				L643.3,387.8z"/>
		</g>
	</g>
	<g id="center_foot_11_">
		<path style="fill:#FBB03B;" d="M683.7,415h-27.5c0,0,5.2,6.2,14.4,6.1S683.7,415,683.7,415z"/>
	</g>
	<path style="fill:#1A1A1A;" d="M672,415v6.101c-6.844,0.461-12.3-1.965-15.8-6.101H672z"/>
	<polygon style="fill:#E6E6E6;" points="673.8,415 672.1,412 667.5,412 668.8,415 	"/>
	<polyline style="fill:#4E4B48;" points="620.9,336.3 618.2,337.3 618.2,340.1 615,338.3 612.7,336.9 611.9,331.4 	"/>
	<line style="fill:none;stroke:#EEEEEE;stroke-width:0.25;stroke-miterlimit:10;" x1="576" y1="248.1" x2="575.9" y2="253.9"/>
	<polygon id="right_triangle_11_" style="fill:#EFEFEF;" points="576,242.2 573.1,250 575.8,250 578.9,250 	"/>
	<g>
		<g>
			<path style="fill:#7A7A7A;" d="M629.9,361.3c2.1-3.4,4.1-6.7,6.2-10.1c1.2-1.9-1.8-3.7-3-1.8c-2.1,3.4-4.1,6.7-6.2,10.1
				C625.7,361.4,628.7,363.2,629.9,361.3L629.9,361.3z"/>
		</g>
	</g>
	<rect id="empty_box__x28_use_for_every_layer_11_" style="opacity:0;" width="960" height="560"/>
</g>
<g id="Layer_1">
</g>
</svg>
