<?xml version="1.0" encoding="iso-8859-1"?>
<!-- Generator: Adobe Illustrator 19.0.1, SVG Export Plug-In . SVG Version: 6.00 Build 0)  -->
<svg version="1.1" xmlns="http://www.w3.org/2000/svg" xmlns:xlink="http://www.w3.org/1999/xlink" x="0px" y="0px"
	 viewBox="0 0 960 560" style="enable-background:new 0 0 960 560;" xml:space="preserve">
<g id="right-shadow">
	<g id="right-shadow_1_">
		<path style="fill:#110F0E;" d="M544.243,498.75c-0.1,0,6.127,5.152,6.007,5.534c0.76-0.288,1.627,2.05,2.327-0.45l-0.687,1.663
			l5.153,1.004l4.7,0.334l-6.667-2.167l1.767,1.833l-0.6-3.166l-1.9-3.334l2.5,6.5l-2.4-6.6v0.2l2.4,6.4l-0.5-5.2l-1.8-0.8l-0.1-0.4
			l0,0c0.8,2.9,1.7,5.5,2.6,6.4c-0.1,0-0.1,0-0.2,0c13.2,3.8,26.5,14.8,39.9,18.7l1.3,0.8h2.6c5.6,0.8-1.883,0.25,4.517,1.25
			l7.583,3.25l5.049,4.438c0.3,3.5,0.251,4.862,0.651,5.162c1.9,0.7,2.9,1.1,4.9,1.8c0.6,0.1,0.9,0.1,1.4,0.1
			c-1.1,0.4-1.7,0.7-2.8,1.1c5.1,0.5,7.7,0.8,12.8,1.3c-1.9-0.5-2.8-0.8-4.7-1.3c2.6,0.6,3.8,0.9,6.4,1.4c2.6,0.6,3.9,0.8,6.5,1.4
			c2,1.1,2.9,1.6,4.9,2.7c5.9,2.5,11.9,4,17.8,5.4h-4.8l14.9,6h229l5.5-4.1c0.3,0.2,0.5,0.4,0.7,0.6c0-0.3,0-0.7,0-1l0.2-0.1
			l-0.2-0.1c-0.1-1.8-0.3-3-0.8-5.1c1,1.8,4.1,3.8,9,5.5c10,3.4,22.6,5.5,32.8,2.4c6.7-2,2.4-7.4-8-10.7c-9.2-2.8-20.2-4.5-29.6-1.7
			c-2.8,0.8-4.1,2.2-4,3.7c-0.5-0.1-0.9-0.1-1.3-0.1c2.2-5.7-1.8-12.6-8.6-12.8c-1.8-0.1-3.5-0.1-5.3-0.2c-1.7-0.7-3.3-1.4-5-2.1
			c-5.8-5.5-9-8.2-16.1-13.7c-0.5,0.2-0.7,0.3-1.1,0.5c-5.5-2.4-8.3-3.6-13.8-5.9c1.6-0.3,3.1-0.7,4.5-1.2c0.3-0.2,0.6-0.4,0.9-0.6
			c0.4,0.4,0.7,0.8,1.1,1.3c2.5-0.4,3.7-0.7,6-1.1c-2.4-0.4-3.9-0.6-6-0.9c0.8-0.5,1.4-0.9,2.3-1.6c-6.9-2.3-10.3-3.5-17.2-5.8
			c-1.7,0.1-2.6,0.2-4.4,0.3c-8.5-3.9-12.8-5.8-21.5-9.6c-3-0.8-4.5-1.2-7.5-2c-0.1-0.1-0.2-0.1-0.4-0.1c-0.7-0.3-1-0.5-1.7-0.8
			c-8.1-4.6-16.4-8.9-24.7-13.1c1.6,0.7,2.5,1,4.1,1.6c0.2-1.9,0.2-2.8,0-4.7c-1.7,0-2.5,0-4.2,0c-0.8-0.8-1.2-1.3-2-2
			c0-1.4-0.2-2.4-0.6-4.1c0.4,0.3,0.6,0.5,1.1,0.9c-0.3-2.2-0.7-3.3-1.6-5.5c-7.1-3.5-10.7-5.1-17.9-8.4c1.8,1.1,3.1,2,4.4,2.8
			c-0.7-0.3-1.3-0.6-2-0.9c0.7,0.3,1.4,0.6,2.1,0.9c1.8,1.2,3.5,2.4,5.9,4.1c-7-1.4-10.6-2.1-17.8-3.5c-0.6-0.2-1.6-0.6-2.2-0.8
			c-16.2-8.9-32.7-17-49.5-24.8c-0.1,0.5-0.1,0.8-0.2,1.2c-0.8-0.7-2-1.6-2.8-2.3c-4.5-1.7-8.9-3.3-13.3-4.9
			c-5.1-1.4-10-2.7-14.9-4.5c0.9,0,1.4-0.1,2.3-0.1c2.3,0.8,4.7,1.7,7.2,2.6c-2.4-0.9-4.8-1.8-7.2-2.7c0.1,0,0.2,0,0.3,0
			c-0.9-0.4-1.4-0.6-2.3-1c3.8-0.2,5.6-0.2,9.3-0.4c0,0-9.5-2.5-18.4-2.7c0,0,1.1,0.2,1.4,0.3c-2.8,0-5,0.1-6.4,0.3
			c-0.5,0-1,0-1.6,0l0,0c0,0-0.4,0-0.7,0l0.1-0.1v-0.1c-6.4,0.1-11.4,1-15.8,2.7c0.3,0,0.4,0,0.7,0c-0.7,0.5-1,0.5-1,0.5
			c5.2-0.2,7.8-0.2,13-0.4c-0.6,0.4-0.9,0.6-1.5,1c0.5,0,0.7,0,1.2,0c-6.8,3.6-11.831,6.412-20.631,10.912
			c3.2-0.7,6.031-1.712,9.131-2.412c6.3-4.3,8.6-6,12.1-8.6c1.3,0,1.9,0,3.2-0.1c1.5,0.6,4.1-0.4,4.1-0.4c4.6-0.2,2.9-0.2,7.4-0.4
			c1.1,0.4,1.6,0.6,2.7,1c0.4,0,0.6,0,1,0c8.7,3.7,20.9,8.6,31,13.1l0,0c-0.1,0.5-0.3,1.1-0.5,1.8c-1.4,0.8-2.1,1.2-3.6,2
			c-0.7,0.4-1.1,0.6-1.9,1c1.9-0.3,2.9-0.5,4.7-0.9c-0.1,0.2-0.2,0.4-0.3,0.6c-1.1,0.2-1.7,0.4-2.8,0.6c-2.3,0.6-3.5,0.9-6.1,1.4
			c-15.4,1.4-30.7,2.3-46.1,2.9c-1.1-0.7-2.3-1.2-3.5-1.7c-3-1.3-8.4-1.3-17-2c0.5,0.3,1.1,0.7,1.7,1c-3.1-0.5-5.4-0.8-7.8-1.1
			c5.6-2.6,16.2-7.4,21.7-10.2c-7.3,1.7-16.1,4.6-24.1,6.4c-2.7,0.5-4.9,0.8-7,1.2c-7.6-3.9-15.2-7.7-22.9-11.5
			c-6.4,0.1-9.6,0.1-16.1,0.1c-3.1-1.5-4.7-2.2-7.9-3.7c4.3,0,6.4,0,10.7,0c0,0-14.1-4.5-23.5-4.6c-1.9,0-3.3,0.2-4.3,0.5
			c-1-0.3-2.4-0.5-4.3-0.5l4.2,4.6c4.2,0,6.8,0,11.5,0c3.2,1.5,4.8,2.2,8,3.7c-7.7,0-11.7,0-19.3-0.1l0,0c-0.1,0-0.2,0-0.3,0
			s-0.2,0-0.3,0l0,0l0.4,0.1h-0.1l8.05,17.737l0,0l0.61,1.001l-0.118-0.455l-0.492-0.546c-0.1,0-0.139,0.395-0.239,0.395s0.1,0,0,0
			l0.97,0.2c-7.6,0.1,6.969-0.596-0.731-0.596c3.2-1.5-3.2,1.5,0,0c4.7,0-3.469,0.596,0.731,0.596l-0.629-0.428
			c-2,0,1.116,0.134,0.116,0.434c-1-0.3,2.807-0.352,0.907-0.352c-0.972,0.113-0.763,0.344-0.763,0.344c4.3,0-1.375-3.083,0,0
			c-0.426-0.013,1.37-0.85,0.763-0.344c-6.5,0,2.65,0.413-3.75,0.313c-7.7,3.8-71.725-10.9-79.325-7c-2.1-0.4-4.3-0.7-7-1.2
			c-13.793-5.226-16.195-6.845-19.7-6.3c5.5,2.8,11.7,7.5,17.3,10.1 M421.642,423.8c4.5,0.2,6.8,0.3,11.4,0.4c0,0-0.3,0,1.2-0.5
			c0.3,0,0.4,0,0.7,0l0,0c0.2,0,0.3,0,0.5,0c0.6,0.4,0.9,0.6,1.6,1c1.3,0,1.9,0.1,3.2,0.1c4.4,3.2,6.8,5,12.1,8.6
			c3.352,1.546,5.037,2.132,7.9,1.7c-8.8-4.5-12.6-6.5-19.4-10.2c0.5,0,0.7,0,1.2,0c-0.6-0.4-0.9-0.6-1.5-1 M453.112,424.129
			c-4.4-1.7-9.17-3.029-15.67-3.029v0.1v-0.1c-0.3,0-0.6,0.2-0.6,0.2l0,0c-0.5,0-1.1,0-1.6,0c-1.4-0.2-3.7-0.3-6.5-0.3
			c-0.4,0.1-0.7,0.2-1.1,0.3c-8.8,0.3-19.8,2.1-19.8,2.1c3.7,0.2,5.5,0.3,9.3,0.4 M664.643,424.4c0.5-0.3,2.4,0.2,3-0.1
			c0.1,0-1.8-0.4-1.6-0.4c-0.1,0,0,0,0,0C666.243,423.9,665.143,424.2,664.643,424.4z M642.543,447.7c-4.6,0.1-7,0.1-11.8,0.2
			c-1-0.5-1.5-0.7-2.4-1.2c4.3-0.1,6.4-0.1,10.5-0.2C639.943,446.9,641.243,447.3,642.543,447.7z M785.743,476.9
			c-0.7-0.7-1-1-1.7-1.7c0.7,0.5,1,0.7,1.7,1.2c0,0.1,0,0.2,0,0.4V476.9z M788.943,479.3c-0.4,0-0.6,0-1.1,0
			c-0.2-0.3-0.3-0.4-0.6-0.7C787.943,478.8,788.343,479,788.943,479.3z"/>
	</g>
	<rect id="empty_box__x28_use_for_every_layer_2_" style="opacity:0;" width="960" height="560"/>
</g>
<g id="Layer_1">
</g>
</svg>
