<?xml version="1.0" encoding="iso-8859-1"?>
<!-- Generator: Adobe Illustrator 19.0.1, SVG Export Plug-In . SVG Version: 6.00 Build 0)  -->
<svg version="1.1" xmlns="http://www.w3.org/2000/svg" xmlns:xlink="http://www.w3.org/1999/xlink" x="0px" y="0px"
	 viewBox="0 0 960 560" style="enable-background:new 0 0 960 560;" xml:space="preserve">
<g id="shadow">
	<g id="black_version_shadow_1_">
		<g>
			<path style="display:none;fill:#110F0E;" d="M401.5,565.8c0.1,0,0.2-0.1,0.3-0.1c-0.1,0-0.1,0-0.2,0
				C401.6,565.7,401.6,565.8,401.5,565.8z"/>
			<path style="display:none;fill:#110F0E;" d="M411.7,427.5c-2.2,0.8-4.5,1.6-6.8,2.4c0.5-0.1,1-0.3,1.5-0.4
				C408.2,428.8,409.9,428.2,411.7,427.5z"/>
			<path style="display:none;fill:#110F0E;" d="M393.8,433.7c-7.9,2.7-15.7,5.5-22.5,8.2c-14.4,5.6-28.6,11.6-42.7,17.7
				c20.8-8.9,42.9-17.3,64.5-25.3C393.4,434.1,393.7,433.9,393.8,433.7z"/>
			<path style="display:none;fill:#110F0E;" d="M394,433.4c0,0.1-0.1,0.2-0.2,0.3c3.7-1.3,7.4-2.6,11.1-3.8
				C401.4,430.9,397.8,432,394,433.4z"/>
			<path style="display:none;fill:#110F0E;" d="M238.1,505.9c-3,1-4.5,1.5-7.5,2.6c3.2-0.1,4.8-0.2,8-0.4
				C238.4,507.3,238.3,506.8,238.1,505.9z"/>
			<path style="display:none;fill:#110F0E;" d="M397.5,442.5c4.5,0.9,7.9,1.5,13.7,2.4c-0.7-0.1-1.3-0.2-2.1-0.3
				C404.1,443.7,401.2,443.2,397.5,442.5z"/>
			<path style="display:none;fill:#110F0E;" d="M411.2,444.9c0.3,0,0.6,0.1,1,0.1C411.9,445,411.5,444.9,411.2,444.9z"/>
			<path style="fill:#110F0E;" d="M937,546.3c-7.2-2.2-15.5-3.7-23.3-2.9c-1-3.7-4.3-6.8-8.8-6.9c-1.8-0.1-3.5-0.1-5.3-0.2
				c-1.7-0.7-3.3-1.4-5-2.1c-5.8-5.5-9.1-8.2-16.1-13.7c-0.4,0.2-0.6,0.3-1.1,0.5c-5.5-2.3-8.3-3.5-13.8-5.9
				c1.5-0.3,3.1-0.7,4.5-1.2c0.3-0.2,0.7-0.4,0.9-0.6c0.3,0.4,0.6,0.8,1.1,1.3c2.5-0.4,3.7-0.6,6-1.1c-2.5-0.4-4-0.6-6-0.9
				c0.7-0.5,1.4-1,2.3-1.6c-4.2-1.4-7.1-2.4-10.3-3.5c0.2,0,0.5,0,0.7,0c-3-1-4.5-1.5-7.5-2.6c0,0.1,0,0.1,0,0.2h-0.1
				c-1.7,0.1-2.6,0.2-4.4,0.3c-8.5-3.9-12.8-5.8-21.5-9.6c-3-0.8-4.5-1.2-7.5-2c-0.2,0-0.3,0-0.4-0.1c-0.7-0.3-1-0.5-1.7-0.8
				c-8.1-4.5-16.4-8.9-24.7-13.1c1.6,0.6,2.5,0.9,4.1,1.6c0.3-1.9,0.3-2.8,0-4.7c-1.7,0-2.5,0-4.2,0c-0.8-0.7-1.2-1.2-2-2
				c0-1.4-0.2-2.4-0.6-4.1c0.5,0.4,0.7,0.6,1.1,0.9c-0.3-2.2-0.7-3.3-1.6-5.5c-7.1-3.4-10.7-5.1-17.9-8.4c4.3,2.7,6.4,4.1,10.4,7
				c-0.6-0.1-1.3-0.2-1.8-0.4c-20.5-9.3-41.3-18-62.3-26.2c-1.8-0.8-3.6-1.7-5.4-2.5c0,0.1,0,0.2-0.1,0.4
				c-9.7-3.8-19.4-7.5-29.1-11.1c0.1,0,0.2,0,0.3,0c-0.9-0.4-1.4-0.6-2.3-1c3.8-0.1,5.6-0.2,9.3-0.4c0,0-11-1.8-19.8-2.1
				c-0.4-0.1-0.7-0.2-1.1-0.3c-2.8,0-5.1,0.1-6.5,0.3c-0.5,0-1.1,0-1.6,0l0,0c0,0-0.4,0-0.7,0l0.1-0.1v-0.1c-6.5,0-11.4,1-15.8,2.7
				c0.3,0,0.4,0,0.7,0c-0.8,0.5-1,0.5-1,0.5c5.2-0.1,7.8-0.2,13-0.4c-0.6,0.4-0.9,0.6-1.5,1c0.5,0,0.7,0,1.2,0
				c-6.8,3.7-10.6,5.7-19.4,10.2c3.2-0.7,4.8-1,7.9-1.7c5.3-3.6,7.7-5.4,12.1-8.6c1.3,0,1.9-0.1,3.2-0.1c0.7-0.4,1-0.6,1.6-1
				c0.2,0,0.3,0,0.5,0l0,0c0.3,0,0.4,0,0.7,0c1.5,0.5,1.2,0.5,1.2,0.5c4.6-0.1,6.9-0.2,11.4-0.4c1.1,0.4,1.6,0.6,2.7,1
				c0.4,0,0.6,0,1,0c8.7,3.7,13.6,5.8,23.8,10.4c2.8,1.3,5.3,2.4,7.6,3.3c-0.1,0.4-0.2,0.8-0.4,1.2c-1.3,0.8-2,1.2-3.6,2
				c-0.7,0.4-1.1,0.6-1.9,1c1.9-0.4,2.9-0.5,4.7-0.9c-0.1,0.2-0.2,0.4-0.3,0.6c-1.1,0.2-1.7,0.4-2.8,0.6c-2.4,0.6-3.6,0.9-6.1,1.4
				c-15.4,1.4-30.7,2.3-46.1,2.9c-1.1-0.6-2.2-1.2-3.5-1.7c-3-1.3-8.4-1.3-17-2c0.5,0.4,1.1,0.7,1.7,1c-3.2-0.4-5.5-0.7-7.8-1.1
				c5.6-2.6,11.2-5.3,16.7-8.1c-7.3,1.7-11.1,2.5-19.1,4.3c-2.7,0.5-4.9,0.8-7,1.2c-7.6-3.9-15.2-7.7-22.9-11.5
				c-6.4,0.1-9.6,0.1-16.1,0.1c-3.2-1.5-4.8-2.2-7.9-3.7c4.3,0,6.4,0,10.7,0c0,0-14.1-4.5-23.5-4.6c-1.9,0-3.3,0.2-4.3,0.5
				c-1-0.3-2.3-0.5-4.3-0.5l4.2,4.6c4.2,0,6.8,0,11.5,0c3.2,1.5,4.8,2.2,8,3.7c-7.7,0-11.7,0-19.3-0.1l0,0c-0.1,0-0.2,0-0.3,0
				s-0.2,0-0.3,0l0,0l0.5,0.2h-0.2l-5.5,7.6l-4.2-7.6h-0.1l0.4-0.1l0,0c-0.1,0-0.2,0-0.3,0s-0.2,0-0.3,0l0,0
				c-7.6,0.1-11.6,0.1-19.3,0.1c3.2-1.5,4.8-2.2,8-3.7c4.7,0,7.3,0,11.5,0l4.2-4.6c-1.9,0-3.3,0.2-4.3,0.5c-1-0.3-2.4-0.5-4.3-0.5
				c-9.4,0.1-23.5,4.6-23.5,4.6c4.3,0,6.4,0,10.7,0c-3.2,1.5-4.8,2.2-7.9,3.7c-6.5,0-9.7,0-16.1-0.1c-7.7,3.8-15.3,7.6-22.9,11.5
				c-2.1-0.4-4.3-0.7-7-1.2c-8-1.8-11.8-2.6-19.1-4.3c5.5,2.8,11.1,5.5,16.7,8.1c-2.4,0.3-4.7,0.6-7.8,1.1c0.6-0.3,1.2-0.7,1.7-1
				c-8.6,0.7-14,0.7-17,2c-1.2,0.5-2.4,1-3.5,1.7c-15.4-0.6-30.7-1.5-46.1-2.9c-2.6-0.5-3.8-0.8-6.1-1.4c-1.1-0.2-1.7-0.4-2.8-0.6
				c-0.1-0.2-0.2-0.4-0.3-0.6c1.8,0.4,2.8,0.6,4.7,0.9c-0.8-0.4-1.2-0.6-1.9-1c-1.5-0.8-2.2-1.2-3.6-2c-0.2-0.7-0.4-1.3-0.5-1.8l0,0
				c10.1-4.5,22.3-9.4,31-13.1c0.4,0,0.6,0,1,0c1.1-0.4,1.6-0.6,2.7-1c4.5,0.2,2.8,0.2,7.4,0.4c0,0,2.6,1,4.1,0.4
				c1.3,0.1,1.9,0.1,3.2,0.1c3.5,2.6,5.8,4.3,12.1,8.6c3.1,0.7,4.7,1,7.9,1.7c-8.8-4.5-12.6-6.6-19.4-10.2c0.5,0,0.7,0,1.2,0
				c-0.6-0.4-0.9-0.6-1.5-1c5.2,0.2,7.8,0.2,13,0.4c0,0-0.3,0-1-0.5c0.3,0,0.4,0,0.7,0c-4.4-1.7-9.4-2.6-15.8-2.7v0.1l0.1,0.1
				c-0.3,0-0.7,0-0.7,0l0,0c-0.6,0-1.1,0-1.6,0c-1.4-0.2-3.6-0.3-6.4-0.3c0.3-0.1,1.4-0.3,1.4-0.3c-8.9,0.2-18.4,2.7-18.4,2.7
				c3.7,0.2,5.5,0.2,9.3,0.4c-0.9,0.4-1.4,0.6-2.3,1c0.1,0,0.2,0,0.3,0c-2.4,0.9-4.8,1.8-7.2,2.7c2.5-0.9,4.9-1.8,7.2-2.6
				c0.9,0,1.4,0.1,2.3,0.1c-4.9,1.8-9.8,3.1-14.9,4.5c-4.4,1.6-8.8,3.2-13.3,4.9c-0.8,0.7-2,1.6-2.8,2.3c-0.1-0.4-0.1-0.7-0.2-1.2
				c-16.8,7.8-33.3,15.9-49.5,24.8c-0.6,0.2-1.6,0.6-2.2,0.8c-7.2,1.4-10.8,2.1-17.8,3.5c2.4-1.7,4.1-2.9,5.9-4.1
				c0.7-0.3,1.4-0.6,2.1-0.9c-0.7,0.3-1.3,0.6-2,0.9c1.3-0.8,2.6-1.7,4.4-2.8c-7.2,3.3-10.8,4.9-17.9,8.4c-0.9,2.2-1.3,3.3-1.6,5.5
				c0.5-0.4,0.7-0.6,1.1-0.9c-0.4,1.7-0.6,2.7-0.6,4.1c-0.8,0.7-1.2,1.2-2,2c-1.7,0-2.5,0-4.2,0c-0.2,1.9-0.2,2.8,0,4.7
				c1.6-0.6,2.5-0.9,4.1-1.6c-8.3,4.2-16.6,8.5-24.7,13.1c-0.7,0.3-1,0.5-1.7,0.8c-0.2,0-0.3,0-0.4,0.1c-3,0.8-4.5,1.2-7.5,2
				c-8.7,3.8-13,5.7-21.5,9.6c-1.8-0.1-2.7-0.2-4.4-0.3c-6.9,2.3-10.3,3.5-17.2,5.8c0.9,0.7,1.5,1.1,2.3,1.6c-2.1,0.3-3.6,0.5-6,0.9
				c2.3,0.4,3.5,0.7,6,1.1c0.4-0.5,0.7-0.9,1.1-1.3c0.3,0.2,0.6,0.4,0.9,0.6c1.4,0.5,2.9,0.9,4.5,1.2c-5.5,2.3-8.3,3.5-13.8,5.9
				c-0.4-0.2-0.6-0.3-1.1-0.5c-7.1,5.5-10.3,8.2-16.1,13.7c-1.7,0.7-3.3,1.4-5,2.1c-1.8,0.1-3.5,0.1-5.3,0.2
				c-6.8,0.2-10.8,7.1-8.6,12.8c-0.4,0-0.8,0-1.3,0.1c0.1-1.5-1.2-2.9-4-3.7c-9.4-2.8-20.4-1.1-29.6,1.7c-10.4,3.3-14.7,8.7-8,10.7
				c10.2,3.1,22.8,1,32.8-2.4c4.9-1.7,8-3.7,9-5.5c-0.5,2.1-0.7,3.3-0.8,5.1l-0.2,0.1l0.2,0.1c0,0.3,0,0.7,0,1
				c0.2-0.2,0.4-0.4,0.7-0.6l5.5,4.1h229l14.9-6h-4.8c5.9-1.4,11.9-2.9,17.8-5.4c2-1.1,2.9-1.6,4.9-2.7c2.6-0.6,3.9-0.8,6.5-1.4
				c2.6-0.5,3.8-0.8,6.4-1.4c-1.9,0.5-2.8,0.8-4.7,1.3c5.1-0.5,7.7-0.8,12.8-1.3c-1.1-0.4-1.7-0.7-2.8-1.1c0.5,0,0.8,0,1.4-0.1
				c2-0.7,3-1.1,4.9-1.8c0.4-0.3,0.7-6.3,1-9.8l1.3-2.3l0,0c6.4-1,9.9-1.2,15.5-2h2.6l1.3-0.8c13.4-3.9,26.7-14.9,39.9-18.7
				c-0.1,0-0.1,0-0.2,0c0.9-0.9,1.8-3.5,2.6-6.4l0,0l-0.1,0.4l-1.8,0.8l-0.2-0.3l2.1-0.9v-0.2h0.1v0.1l0.3-0.1l11.6,0.8l0.3,0.2
				v-0.1h0.2v0.2l-0.2-0.1c0.7,2.5,1.5,4.7,2.3,5.5c-0.1,0-0.1,0-0.2,0c13.7,3.8,27.4,15.5,41.2,19c2.7,0.4,4.8,0.7,6.9,1l-14.3-7.3
				l15.2,7.4c-0.3,0-0.6-0.1-0.9-0.1l11.2,5.7l1.8,3.7l0,0c0.2,2.1,0.4,3.9,0.6,4.1c2,0.7,3,1.1,4.9,1.8c0.5,0,0.8,0,1.4,0.1
				c-1.1,0.5-1.6,0.7-2.8,1.1c5.1,0.5,7.7,0.8,12.8,1.3c-1.9-0.5-2.8-0.8-4.7-1.3c2.5,0.5,3.8,0.8,6.4,1.4l38.9,15.6H904l-9.3-8.3
				c0.4,0,0.8,0.1,1.3,0.1c-0.2-1.4-0.3-2.1-0.7-3.5c3.7,2.8,5.6,4.4,8.8,7.1c0-2.2-0.2-3.6-0.7-5.7l0.4,0.1
				c1.3,1.6,4.2,3.3,8.5,4.8c10,3.4,22.6,5.5,32.8,2.4C951.7,554.9,947.4,549.5,937,546.3z M434.7,423.9
				C434.7,423.9,434.8,423.9,434.7,423.9c0.2,0,0.4,0,0.5,0c0.6,0.3,0.9,0.5,1.4,0.8C436.1,424.5,434.5,423.9,434.7,423.9z
				 M793.1,479.2c-0.5,0-0.7,0-1.1,0c-0.3-0.3-0.4-0.4-0.6-0.7C792,478.8,792.4,479,793.1,479.2z M789.8,476.4c0,0.2,0,0.3,0,0.4
				s0,0.1,0,0.1c-0.7-0.7-1-1-1.7-1.7C788.8,475.7,789.1,475.9,789.8,476.4z M729,442c17.9,7,35.7,14.6,53.2,22.4
				c-5.8-1.1-9.4-1.8-15.9-3.1c-0.6-0.2-1.6-0.6-2.2-0.8c-13.3-7.3-26.7-14.1-40.4-20.6C725.5,440.5,727.3,441.3,729,442z
				 M683.1,425c0.9,0,1.4-0.1,2.3-0.1c9.8,3.7,19.5,7.5,29.2,11.3c0,0.1,0,0.1,0,0.2C704.3,432.6,690.3,427.5,683.1,425z
				 M461.9,446.5c4.1,0.1,6.2,0.1,10.5,0.2c-0.9,0.5-1.4,0.7-2.4,1.2c-4.8-0.1-7.2-0.1-11.8-0.2
				C459.5,447.3,460.8,446.9,461.9,446.5z M315,476.8c0-0.2,0-0.3,0-0.4c0.7-0.5,1-0.7,1.7-1.2c-0.7,0.7-1,1-1.7,1.7V476.8z
				 M313.5,478.6c-0.3,0.3-0.4,0.4-0.6,0.7c-0.5,0-0.7,0-1.1,0C312.4,479,312.8,478.8,313.5,478.6z M636.2,540.5l1,0.3l0.4,0.4
				L636.2,540.5z M646.3,545.7c0.2,0.1,0.5,0.1,0.7,0.2c1.9,1.1,2.9,1.6,4.9,2.7L646.3,545.7z M895,547.8c-0.1-0.4-0.2-0.8-0.3-1.1
				l3.7,1.3C897.4,548,896.4,547.9,895,547.8z"/>
		</g>
	</g>
	<rect id="empty_box__x28_use_for_every_layer_9_" style="opacity:0;" width="960" height="560"/>
</g>
<g id="Layer_1">
</g>
</svg>
