<?xml version="1.0" encoding="utf-8"?>
<!-- Generator: Adobe Illustrator 19.0.1, SVG Export Plug-In . SVG Version: 6.00 Build 0)  -->
<svg version="1.1" xmlns="http://www.w3.org/2000/svg" xmlns:xlink="http://www.w3.org/1999/xlink" x="0px" y="0px"
	 viewBox="0 0 960 560" style="enable-background:new 0 0 960 560;" xml:space="preserve">
<style type="text/css">
	.Graphic_x0020_Style{fill:#BD6A04;}
	.st0{opacity:0.21;}
	.st1{fill:#161412;}
	.st2{fill:#110F0E;}
	.st3{display:none;}
	.st4{display:inline;stroke:#000000;stroke-miterlimit:10;}
	.st5{display:inline;fill:none;stroke:#808080;stroke-miterlimit:10;}
	.st6{display:inline;}
	.st7{fill:none;stroke:#808080;stroke-miterlimit:10;}
	.st8{fill:none;stroke:#808080;stroke-width:0.25;stroke-miterlimit:10;}
	.st9{display:inline;fill:none;stroke:#000000;stroke-miterlimit:10;}
	.st10{display:inline;fill:none;stroke:#CCCCCC;stroke-width:0.5;stroke-miterlimit:10;}
	.st11{display:inline;fill:#CCCCCC;}
	.st12{display:inline;fill:none;stroke:#B3B3B3;stroke-width:0.25;stroke-miterlimit:10;}
	.st13{display:inline;fill:#E9E0D6;}
	.st14{display:inline;fill:#999999;}
	.st15{display:inline;fill:#333333;}
	.st16{display:inline;fill:none;stroke:#FBB03B;stroke-miterlimit:10;}
	.st17{display:inline;fill:#808080;stroke:#808080;stroke-miterlimit:10;}
	.st18{display:inline;fill:#808080;}
	.st19{fill:#999999;}
	.st20{fill:#808080;}
	.st21{display:inline;fill:#1A1A1A;stroke:#333333;stroke-miterlimit:10;}
	.st22{display:inline;fill:#1A1A1A;}
	.st23{display:inline;fill:#808080;stroke:#F2F2F2;stroke-width:0.5;stroke-miterlimit:10;}
	.st24{display:inline;fill:#333333;stroke:#000000;stroke-width:0.25;stroke-miterlimit:10;}
	.st25{display:inline;fill:#FBB03B;stroke:#FBB03B;stroke-miterlimit:10;}
	.st26{display:inline;fill:none;stroke:#CCCCCC;stroke-miterlimit:10;}
	.st27{display:inline;fill:#1A1A1A;stroke:#1A1A1A;stroke-miterlimit:10;}
	.st28{display:inline;fill:none;stroke:#999999;stroke-miterlimit:10;}
	.st29{fill:#1A1A1A;}
	.st30{fill:#E9E0D6;}
	.st31{fill:#000107;}
	.st32{fill:#BD6A04;}
	.st33{fill:#FBB03B;}
	.st34{fill:#4D4D4D;}
	.st35{display:inline;fill:#E6E6E6;}
	.st36{display:inline;fill:#FBB03B;}
	.st37{display:inline;fill:#6C6110;}
	.st38{display:inline;fill:#BF8F46;}
	.st39{display:inline;fill:#FBB03B;stroke:#808080;stroke-miterlimit:10;}
	.st40{display:inline;fill:#666666;stroke:#666666;stroke-miterlimit:10;}
	.st41{display:inline;fill:#BD6A04;}
	.st42{display:inline;fill:#FBB03B;stroke:#B3B3B3;stroke-miterlimit:10;}
	.st43{fill:#B3B3B3;}
	.st44{display:inline;fill:#F2F2F2;stroke:#808080;stroke-miterlimit:10;}
	.st45{display:inline;fill:#F2F2F2;stroke:#F2F2F2;stroke-miterlimit:10;}
	.st46{display:inline;fill:#4D4D4D;}
	.st47{display:inline;fill:none;stroke:#4D4D4D;stroke-width:0.5;stroke-miterlimit:10;}
	.st48{display:inline;fill:none;stroke:#808080;stroke-width:0.25;stroke-miterlimit:10;}
	.st49{display:inline;fill:#B3B3B3;}
	.st50{display:inline;fill:none;stroke:#1A1A1A;stroke-width:0.25;stroke-miterlimit:10;}
	.st51{display:inline;fill:#F2F2F2;stroke:#FBB03B;stroke-width:0.5;stroke-miterlimit:10;}
	.st52{fill:#F2F2F2;}
	.st53{fill:#3C3A77;}
	.st54{fill:#B21212;}
	.st55{display:inline;fill:#F2F2F2;}
	.st56{display:inline;fill:none;stroke:#BD6A04;stroke-miterlimit:10;}
	.st57{fill:none;stroke:#000000;stroke-miterlimit:10;}
	.st58{fill:none;stroke:#FEFEFE;stroke-width:0.5;stroke-miterlimit:10;}
	.st59{fill:#FFFFFF;}
	.st60{fill:none;stroke:#545454;stroke-width:0.25;stroke-miterlimit:10;}
	.st61{fill:#FEF5EA;}
	.st62{fill:#DFDFDF;}
	.st63{fill:none;stroke:#FFE9C7;stroke-miterlimit:10;}
	.st64{fill:#525252;stroke:#525252;stroke-miterlimit:10;}
	.st65{fill:#C6C6C6;}
	.st66{fill:#1C1C1C;}
	.st67{fill:#454545;}
	.st68{fill:#3C3C3C;}
	.st69{fill:#1A1A1A;stroke:#262626;stroke-miterlimit:10;}
	.st70{fill:#313131;}
	.st71{fill:#313131;stroke:#4F4F4F;stroke-width:0.5;stroke-miterlimit:10;}
	.st72{fill:#1C1C1C;stroke:#000000;stroke-width:0.25;stroke-miterlimit:10;}
	.st73{fill:#333333;}
	.st74{fill:#513913;stroke:#513913;stroke-miterlimit:10;}
	.st75{fill:none;stroke:#FAFAFA;stroke-miterlimit:10;}
	.st76{fill:#404040;}
	.st77{fill:none;stroke:#EEA639;stroke-miterlimit:10;}
	.st78{fill:#1A1A1A;stroke:#1A1A1A;stroke-miterlimit:10;}
	.st79{fill:#2B2B2B;}
	.st80{fill:none;stroke:#FFFFFF;stroke-miterlimit:10;}
	.st81{fill:none;stroke:#F0F0F0;stroke-miterlimit:10;}
	.st82{fill:none;stroke:#EEEEEE;stroke-miterlimit:10;}
	.st83{fill:#494949;}
	.st84{fill:#FEFEFE;}
	.st85{fill:#C6C6C6;stroke:#C6C6C6;stroke-miterlimit:10;}
	.st86{fill:#797979;}
	.st87{fill:none;stroke:#858585;stroke-miterlimit:10;}
	.st88{fill:none;stroke:#9E9E9E;stroke-miterlimit:10;}
	.st89{fill:#343434;}
	.st90{fill:#2E2E2E;}
	.st91{fill:#535353;}
	.st92{fill:#3E3E3E;}
	.st93{fill:#643802;}
	.st94{fill:#875E20;}
	.st95{fill:none;stroke:#FBB03B;stroke-miterlimit:10;}
	.st96{fill:#FFF6EE;}
	.st97{fill:#272727;}
	.st98{fill:#857F7A;}
	.st99{fill:#E6E6E6;}
	.st100{fill:#513913;}
	.st101{fill:#2C2807;}
	.st102{fill:#423118;}
	.st103{fill:#FBB03B;stroke:#808080;stroke-miterlimit:10;}
	.st104{fill:#4E4B48;}
	.st105{fill:#5C5C5C;}
	.st106{fill:#2A2A2A;stroke:#2A2A2A;stroke-miterlimit:10;}
	.st107{fill:#BE7C33;}
	.st108{fill:#3F2401;}
	.st109{fill:#373737;}
	.st110{fill:#241401;}
	.st111{fill:#573102;}
	.st112{fill:#755F44;}
	.st113{fill:#7F561F;}
	.st114{fill:#513913;stroke:#3F3F3F;stroke-miterlimit:10;}
	.st115{fill:#3F3F3F;}
	.st116{fill:#565656;stroke:#2E2E2E;stroke-miterlimit:10;}
	.st117{fill:#FCDBB1;}
	.st118{fill:#333333;stroke:#636363;stroke-miterlimit:10;}
	.st119{fill:#FFC57D;}
	.st120{fill:#242424;}
	.st121{fill:none;stroke:#242424;stroke-width:0.5;stroke-miterlimit:10;}
	.st122{fill:#414141;}
	.st123{fill:none;stroke:#EEEEEE;stroke-width:0.25;stroke-miterlimit:10;}
	.st124{fill:#EFEFEF;}
	.st125{fill:none;stroke:#313131;stroke-miterlimit:10;}
	.st126{fill:none;stroke:#1A1A1A;stroke-width:0.25;stroke-miterlimit:10;}
	.st127{fill:#4F4F4F;stroke:#513913;stroke-width:0.5;stroke-miterlimit:10;}
	.st128{fill:#706B66;}
	.st129{fill:#7A7A7A;}
	.st130{fill:#E01919;}
	.st131{fill:#3D3D3D;}
	.st132{fill:#FDE0BB;}
	.st133{fill:none;stroke:#FD8E05;stroke-miterlimit:10;}
	.st134{fill:none;stroke:#77541C;stroke-miterlimit:10;}
	.st135{fill:#64441B;}
	.st136{fill:#FFB33C;}
	.st137{fill:#FDF3E8;}
	.st138{fill:#494846;}
	.st139{fill:#A3978B;}
	.st140{fill:#FFD38F;}
	.st141{fill:#3A3A3A;}
	.st142{fill:#282828;}
	.st143{fill:#ADADAD;}
	.st144{filter:url(#AI_GaussianBlur_7);}
</style>
<filter  id="AI_GaussianBlur_7">
	<feGaussianBlur  stdDeviation="7"></feGaussianBlur>
</filter>
<g id="night-sky">
	<rect width="960" height="560"/>
	<g class="st0">
		
			<image style="overflow:visible;" width="1032" height="632" xlink:href="98DE534AFCF76096.png"  transform="matrix(1 0 0 1 -36 -36)">
		</image>
	</g>
</g>
<g id="stars">
</g>
<g id="Dirt">
	<path class="st1" d="M0,416.8l15.8-2.9l6.3,0.6l6.2-2.3l7.6,1.4l5.6-1.6H49l3.5-2H56l13.5-0.8l3.5,2.4l4-1.6h6l5-0.2l2.5-3.8H94
		c0,0,6.5-0.8,8-0.2s3.5-2.6,5.5-0.3s5,3.7,5,3.7s-0.5-5.2,2-4.6c2.5,0.6-2.5,0.5,2.5,0.5s8.5-1.2,10.5-0.6c2,0.6-1.5,0.6,2,0.6
		s1.5-2.6,6.5-0.8s5,1.8,5,1.8s0-3.3,2.5-2.4s-4.5-1.2,6-0.2c10.5,1.1,13.4-0.3,13.4-0.3l2.9,2.8l7-1.9h7.2c0,0,2.1-4.8,2.8-4.5
		c0.7,0.3,10.8-0.1,10.8-0.1l16.1-0.1c0,0-0.4-3.8,5.7-2.3s6.1,1.5,6.1,1.5s1.1,0.9,3.8,1.1c2.7,0.3,7,0.4,7,0.4h6.7
		c0,0,6-2.8,8.2-2.8c2.3,0-2.7-1.6,2.3-0.1s7.7,0.1,7.7,0.1s4.1-1.4,6.2-0.6c2.1,0.9,0.1-1.9,3.4,0.5c3.2,2.4,3.2,0.6,5.7,0
		c2.5-0.6,4.5-0.4,8.5-0.5c4-0.1,3.5,5.9,7,2.6c3.5-3.2,4-2.5,10-2.1c6,0.4,9,1.6,12.5-0.5c3.5-2.1-0.5,0.2,6.5-0.5
		c7-0.7,5-3.8,10.5-0.5s4,2.5,6.5,0.9c2.5-1.6-1-1.1,2.5-1.6s-0.5-0.5,3.5-0.5s1.5-1.6,7-0.3c5.5,1.3,3.5-1.3,7.5-0.5
		c4,0.8-2.5,1.6,4,1.1s10.5-1.8,13-1.8s-0.5,0,5.5,0s5.5,2.9,9.5,0.8s-1.5-1.8,8-2.5c9.5-0.7,7.5,0.8,11.5,1.1
		c4,0.2,3.5,0.7,6.5-1.3c3-2-14.5-1.5,3-2s16.3,4.3,18.2,2.2c1.8-2.2,0.4-4.7,3.1-4.7s1.9-1.3,6.8,0s11.6-1.2,13.7-1.4
		c2.2-0.1,1.7,0.4,5.2-0.1s12.3-4.7,15.6-3.5c3.3,1.2,2.5,1.8,5.2,0c2.8-1.8,135.6,1,143.1-0.5s7.7,0.8,11.3-0.1
		c3.7-0.9,4.7,0.1,7.2-0.4s13.8,0,16.6,0s-0.1,0,2.9,0s2.2-0.5,6.1-0.2c3.9,0.2-1.6-1.2,3.9,0.2s8.5,2,17.5,1.7s3.5-0.2,9-0.2
		s5.5,0.5,9.5,0.2s-4.5-1.7,4-0.2s-0.5,1.5,8.5,1.5s5-2,11.5-1.3s1.5,2.8,8.5,2.8s5.5,2,9,0s0-1.5,3.5-2s-5-3.5,10-0.8
		s4.5,6.5,16,5.6C793,387,796,387.1,803,387s1-3,7,0s4,2.5,8,2.5c4,0-9.5-1,4,0s16.5-1.8,16.5-1.8c12,1-2.5,1.2,12,1.2s8.5,0,14.5,0
		s8.5-2.4,15.5-0.6c7,1.8,7,1.7,7,1.7s-4-3.6,8-3.6s11.5,0,18.5,0s4.5-2,9.5-1.5s0.5-1.2,7.5,0.1c7,1.4,8,1.4,12,1.4s7.5,3.5,10.5,3
		c3-0.5,6.5-2.6,6.5-2.6V561H0V416.8z"/>
</g>
<g id="black_version_shadow">
	<g>
		<path class="st2" d="M401.5,565.8c0.1,0,0.2-0.1,0.3-0.1c-0.1,0-0.1,0-0.2,0C401.6,565.7,401.6,565.8,401.5,565.8z"/>
		<path class="st2" d="M411.7,427.5c-2.2,0.8-4.5,1.6-6.8,2.4c0.5-0.1,1-0.3,1.5-0.4C408.2,428.8,409.9,428.2,411.7,427.5z"/>
		<path class="st2" d="M393.8,433.7c-7.9,2.7-15.7,5.5-22.5,8.2c-14.4,5.6-28.6,11.6-42.7,17.7c20.8-8.9,42.9-17.3,64.5-25.3
			C393.4,434.1,393.7,433.9,393.8,433.7z"/>
		<path class="st2" d="M394,433.4c0,0.1-0.1,0.2-0.2,0.3c3.7-1.3,7.4-2.6,11.1-3.8C401.4,430.9,397.8,432,394,433.4z"/>
		<path class="st2" d="M238.1,505.9c-3,1-4.5,1.5-7.5,2.6c3.2-0.1,4.8-0.2,8-0.4C238.4,507.3,238.3,506.8,238.1,505.9z"/>
		<path class="st2" d="M397.5,442.5c4.5,0.9,7.9,1.5,13.7,2.4c-0.7-0.1-1.3-0.2-2.1-0.3C404.1,443.7,401.2,443.2,397.5,442.5z"/>
		<path class="st2" d="M411.2,444.9c0.3,0,0.6,0.1,1,0.1C411.9,445,411.5,444.9,411.2,444.9z"/>
		<path class="st2" d="M937,546.3c-7.2-2.2-15.5-3.7-23.3-2.9c-1-3.7-4.3-6.8-8.8-6.9c-1.8-0.1-3.5-0.1-5.3-0.2
			c-1.7-0.7-3.3-1.4-5-2.1c-5.8-5.5-9.1-8.2-16.1-13.7c-0.4,0.2-0.6,0.3-1.1,0.5c-5.5-2.3-8.3-3.5-13.8-5.9c1.5-0.3,3.1-0.7,4.5-1.2
			c0.3-0.2,0.7-0.4,0.9-0.6c0.3,0.4,0.6,0.8,1.1,1.3c2.5-0.4,3.7-0.6,6-1.1c-2.5-0.4-4-0.6-6-0.9c0.7-0.5,1.4-1,2.3-1.6
			c-4.2-1.4-7.1-2.4-10.3-3.5c0.2,0,0.5,0,0.7,0c-3-1-4.5-1.5-7.5-2.6c0,0.1,0,0.1,0,0.2c0,0-0.1,0-0.1,0c-1.7,0.1-2.6,0.2-4.4,0.3
			c-8.5-3.9-12.8-5.8-21.5-9.6c-3-0.8-4.5-1.2-7.5-2c-0.2,0-0.3,0-0.4-0.1c-0.7-0.3-1-0.5-1.7-0.8c-8.1-4.5-16.4-8.9-24.7-13.1
			c1.6,0.6,2.5,0.9,4.1,1.6c0.3-1.9,0.3-2.8,0-4.7c-1.7,0-2.5,0-4.2,0c-0.8-0.7-1.2-1.2-2-2c0-1.4-0.2-2.4-0.6-4.1
			c0.5,0.4,0.7,0.6,1.1,0.9c-0.3-2.2-0.7-3.3-1.6-5.5c-7.1-3.4-10.7-5.1-17.9-8.4c4.3,2.7,6.4,4.1,10.4,7c-0.6-0.1-1.3-0.2-1.8-0.4
			c-20.5-9.3-41.3-18-62.3-26.2c-1.8-0.8-3.6-1.7-5.4-2.5c0,0.1,0,0.2-0.1,0.4c-9.7-3.8-19.4-7.5-29.1-11.1c0.1,0,0.2,0,0.3,0
			c-0.9-0.4-1.4-0.6-2.3-1c3.8-0.1,5.6-0.2,9.3-0.4c0,0-11-1.8-19.8-2.1c-0.4-0.1-0.7-0.2-1.1-0.3c-2.8,0-5.1,0.1-6.5,0.3
			c-0.5,0-1.1,0-1.6,0c0,0,0,0,0,0c0,0-0.4,0-0.7,0c0,0,0.1-0.1,0.1-0.1c0,0,0-0.1,0-0.1c-6.5,0-11.4,1-15.8,2.7c0.3,0,0.4,0,0.7,0
			c-0.8,0.5-1,0.5-1,0.5c5.2-0.1,7.8-0.2,13-0.4c-0.6,0.4-0.9,0.6-1.5,1c0.5,0,0.7,0,1.2,0c-6.8,3.7-10.6,5.7-19.4,10.2
			c3.2-0.7,4.8-1,7.9-1.7c5.3-3.6,7.7-5.4,12.1-8.6c1.3,0,1.9-0.1,3.2-0.1c0.7-0.4,1-0.6,1.6-1c0.2,0,0.3,0,0.5,0c0,0,0,0,0,0
			c0.3,0,0.4,0,0.7,0c1.5,0.5,1.2,0.5,1.2,0.5c4.6-0.1,6.9-0.2,11.4-0.4c1.1,0.4,1.6,0.6,2.7,1c0.4,0,0.6,0,1,0
			c8.7,3.7,13.6,5.8,23.8,10.4c2.8,1.3,5.3,2.4,7.6,3.3c-0.1,0.4-0.2,0.8-0.4,1.2c-1.3,0.8-2,1.2-3.6,2c-0.7,0.4-1.1,0.6-1.9,1
			c1.9-0.4,2.9-0.5,4.7-0.9c-0.1,0.2-0.2,0.4-0.3,0.6c-1.1,0.2-1.7,0.4-2.8,0.6c-2.4,0.6-3.6,0.9-6.1,1.4
			c-15.4,1.4-30.7,2.3-46.1,2.9c-1.1-0.6-2.2-1.2-3.5-1.7c-3-1.3-8.4-1.3-17-2c0.5,0.4,1.1,0.7,1.7,1c-3.2-0.4-5.5-0.7-7.8-1.1
			c5.6-2.6,11.2-5.3,16.7-8.1c-7.3,1.7-11.1,2.5-19.1,4.3c-2.7,0.5-4.9,0.8-7,1.2c-7.6-3.9-15.2-7.7-22.9-11.5
			c-6.4,0.1-9.6,0.1-16.1,0.1c-3.2-1.5-4.8-2.2-7.9-3.7c4.3,0,6.4,0,10.7,0c0,0-14.1-4.5-23.5-4.6c-1.9,0-3.3,0.2-4.3,0.5
			c-1-0.3-2.3-0.5-4.3-0.5l4.2,4.6c4.2,0,6.8,0,11.5,0c3.2,1.5,4.8,2.2,8,3.7c-7.7,0-11.7,0-19.3-0.1c0,0,0,0,0,0
			c-0.1,0-0.2,0-0.3,0c-0.1,0-0.2,0-0.3,0c0,0,0,0,0,0l0.5,0.2l-0.2,0l-5.5,7.6l-4.2-7.6l-0.1,0l0.4-0.1c0,0,0,0,0,0
			c-0.1,0-0.2,0-0.3,0c-0.1,0-0.2,0-0.3,0c0,0,0,0,0,0c-7.6,0.1-11.6,0.1-19.3,0.1c3.2-1.5,4.8-2.2,8-3.7c4.7,0,7.3,0,11.5,0
			l4.2-4.6c-1.9,0-3.3,0.2-4.3,0.5c-1-0.3-2.4-0.5-4.3-0.5c-9.4,0.1-23.5,4.6-23.5,4.6c4.3,0,6.4,0,10.7,0c-3.2,1.5-4.8,2.2-7.9,3.7
			c-6.5,0-9.7,0-16.1-0.1c-7.7,3.8-15.3,7.6-22.9,11.5c-2.1-0.4-4.3-0.7-7-1.2c-8-1.8-11.8-2.6-19.1-4.3c5.5,2.8,11.1,5.5,16.7,8.1
			c-2.4,0.3-4.7,0.6-7.8,1.1c0.6-0.3,1.2-0.7,1.7-1c-8.6,0.7-14,0.7-17,2c-1.2,0.5-2.4,1-3.5,1.7c-15.4-0.6-30.7-1.5-46.1-2.9
			c-2.6-0.5-3.8-0.8-6.1-1.4c-1.1-0.2-1.7-0.4-2.8-0.6c-0.1-0.2-0.2-0.4-0.3-0.6c1.8,0.4,2.8,0.6,4.7,0.9c-0.8-0.4-1.2-0.6-1.9-1
			c-1.5-0.8-2.2-1.2-3.6-2c-0.2-0.7-0.4-1.3-0.5-1.8l0,0c10.1-4.5,22.3-9.4,31-13.1c0.4,0,0.6,0,1,0c1.1-0.4,1.6-0.6,2.7-1
			c4.5,0.2,2.8,0.2,7.4,0.4c0,0,2.6,1,4.1,0.4c1.3,0.1,1.9,0.1,3.2,0.1c3.5,2.6,5.8,4.3,12.1,8.6c3.1,0.7,4.7,1,7.9,1.7
			c-8.8-4.5-12.6-6.6-19.4-10.2c0.5,0,0.7,0,1.2,0c-0.6-0.4-0.9-0.6-1.5-1c5.2,0.2,7.8,0.2,13,0.4c0,0-0.3,0-1-0.5
			c0.3,0,0.4,0,0.7,0c-4.4-1.7-9.4-2.6-15.8-2.7c0,0,0,0.1,0,0.1c0,0,0.1,0.1,0.1,0.1c-0.3,0-0.7,0-0.7,0c0,0,0,0,0,0
			c-0.6,0-1.1,0-1.6,0c-1.4-0.2-3.6-0.3-6.4-0.3c0.3-0.1,1.4-0.3,1.4-0.3c-8.9,0.2-18.4,2.7-18.4,2.7c3.7,0.2,5.5,0.2,9.3,0.4
			c-0.9,0.4-1.4,0.6-2.3,1c0.1,0,0.2,0,0.3,0c-2.4,0.9-4.8,1.8-7.2,2.7c2.5-0.9,4.9-1.8,7.2-2.6c0.9,0,1.4,0.1,2.3,0.1
			c-4.9,1.8-9.8,3.1-14.9,4.5c-4.4,1.6-8.8,3.2-13.3,4.9c-0.8,0.7-2,1.6-2.8,2.3c-0.1-0.4-0.1-0.7-0.2-1.2
			c-16.8,7.8-33.3,15.9-49.5,24.8c-0.6,0.2-1.6,0.6-2.2,0.8c-7.2,1.4-10.8,2.1-17.8,3.5c2.4-1.7,4.1-2.9,5.9-4.1
			c0.7-0.3,1.4-0.6,2.1-0.9c-0.7,0.3-1.3,0.6-2,0.9c1.3-0.8,2.6-1.7,4.4-2.8c-7.2,3.3-10.8,4.9-17.9,8.4c-0.9,2.2-1.3,3.3-1.6,5.5
			c0.5-0.4,0.7-0.6,1.1-0.9c-0.4,1.7-0.6,2.7-0.6,4.1c-0.8,0.7-1.2,1.2-2,2c-1.7,0-2.5,0-4.2,0c-0.2,1.9-0.2,2.8,0,4.7
			c1.6-0.6,2.5-0.9,4.1-1.6c-8.3,4.2-16.6,8.5-24.7,13.1c-0.7,0.3-1,0.5-1.7,0.8c-0.2,0-0.3,0-0.4,0.1c-3,0.8-4.5,1.2-7.5,2
			c-8.7,3.8-13,5.7-21.5,9.6c-1.8-0.1-2.7-0.2-4.4-0.3c-6.9,2.3-10.3,3.5-17.2,5.8c0.9,0.7,1.5,1.1,2.3,1.6c-2.1,0.3-3.6,0.5-6,0.9
			c2.3,0.4,3.5,0.7,6,1.1c0.4-0.5,0.7-0.9,1.1-1.3c0.3,0.2,0.6,0.4,0.9,0.6c1.4,0.5,2.9,0.9,4.5,1.2c-5.5,2.3-8.3,3.5-13.8,5.9
			c-0.4-0.2-0.6-0.3-1.1-0.5c-7.1,5.5-10.3,8.2-16.1,13.7c-1.7,0.7-3.3,1.4-5,2.1c-1.8,0.1-3.5,0.1-5.3,0.2
			c-6.8,0.2-10.8,7.1-8.6,12.8c-0.4,0-0.8,0-1.3,0.1c0.1-1.5-1.2-2.9-4-3.7c-9.4-2.8-20.4-1.1-29.6,1.7c-10.4,3.3-14.7,8.7-8,10.7
			c10.2,3.1,22.8,1,32.8-2.4c4.9-1.7,8-3.7,9-5.5c-0.5,2.1-0.7,3.3-0.8,5.1l-0.2,0.1l0.2,0.1c0,0.3,0,0.7,0,1
			c0.2-0.2,0.4-0.4,0.7-0.6l5.5,4.1H425l14.9-6l-4.8,0c5.9-1.4,11.9-2.9,17.8-5.4c2-1.1,2.9-1.6,4.9-2.7c2.6-0.6,3.9-0.8,6.5-1.4
			c2.6-0.5,3.8-0.8,6.4-1.4c-1.9,0.5-2.8,0.8-4.7,1.3c5.1-0.5,7.7-0.8,12.8-1.3c-1.1-0.4-1.7-0.7-2.8-1.1c0.5,0,0.8,0,1.4-0.1
			c2-0.7,3-1.1,4.9-1.8c0.4-0.3,0.7-6.3,1-9.8l1.3-2.3c0,0,0,0,0,0c6.4-1,9.9-1.2,15.5-2h2.6l1.3-0.8c13.4-3.9,26.7-14.9,39.9-18.7
			c-0.1,0-0.1,0-0.2,0c0.9-0.9,1.8-3.5,2.6-6.4l0,0l-0.1,0.4l-1.8,0.8l-0.2-0.3l2.1-0.9l0-0.2l0.1,0c0,0,0,0.1,0,0.1l0.3-0.1
			l11.6,0.8l0.3,0.2c0,0,0-0.1,0-0.1l0.2,0l0,0.2l-0.2-0.1c0.7,2.5,1.5,4.7,2.3,5.5c-0.1,0-0.1,0-0.2,0c13.7,3.8,27.4,15.5,41.2,19
			c2.7,0.4,4.8,0.7,6.9,1l-14.3-7.3l15.2,7.4c-0.3,0-0.6-0.1-0.9-0.1l11.2,5.7l1.8,3.7h0c0.2,2.1,0.4,3.9,0.6,4.1
			c2,0.7,3,1.1,4.9,1.8c0.5,0,0.8,0,1.4,0.1c-1.1,0.5-1.6,0.7-2.8,1.1c5.1,0.5,7.7,0.8,12.8,1.3c-1.9-0.5-2.8-0.8-4.7-1.3
			c2.5,0.5,3.8,0.8,6.4,1.4l38.9,15.6H904l-9.3-8.3c0.4,0,0.8,0.1,1.3,0.1c-0.2-1.4-0.3-2.1-0.7-3.5c3.7,2.8,5.6,4.4,8.8,7.1
			c0-2.2-0.2-3.6-0.7-5.7l0.4,0.1c1.3,1.6,4.2,3.3,8.5,4.8c10,3.4,22.6,5.5,32.8,2.4C951.7,554.9,947.4,549.5,937,546.3z
			 M434.7,423.9C434.7,423.9,434.8,423.9,434.7,423.9c0.2,0,0.4,0,0.5,0c0.6,0.3,0.9,0.5,1.4,0.8
			C436.1,424.5,434.5,423.9,434.7,423.9z M793.1,479.2c-0.5,0-0.7,0-1.1,0c-0.3-0.3-0.4-0.4-0.6-0.7
			C792,478.8,792.4,479,793.1,479.2z M789.8,476.4c0,0.2,0,0.3,0,0.4c0,0.1,0,0.1,0,0.1c-0.7-0.7-1-1-1.7-1.7
			C788.8,475.7,789.1,475.9,789.8,476.4z M729,442c17.9,7,35.7,14.6,53.2,22.4c-5.8-1.1-9.4-1.8-15.9-3.1c-0.6-0.2-1.6-0.6-2.2-0.8
			c-13.3-7.3-26.7-14.1-40.4-20.6C725.5,440.5,727.3,441.3,729,442z M683.1,425c0.9,0,1.4-0.1,2.3-0.1c9.8,3.7,19.5,7.5,29.2,11.3
			c0,0.1,0,0.1,0,0.2C704.3,432.6,690.3,427.5,683.1,425z M461.9,446.5c4.1,0.1,6.2,0.1,10.5,0.2c-0.9,0.5-1.4,0.7-2.4,1.2
			c-4.8-0.1-7.2-0.1-11.8-0.2C459.5,447.3,460.8,446.9,461.9,446.5z M315,476.8c0-0.2,0-0.3,0-0.4c0.7-0.5,1-0.7,1.7-1.2
			c-0.7,0.7-1,1-1.7,1.7C315,476.9,315,476.8,315,476.8z M313.5,478.6c-0.3,0.3-0.4,0.4-0.6,0.7c-0.5,0-0.7,0-1.1,0
			C312.4,479,312.8,478.8,313.5,478.6z M636.2,540.5l1,0.3l0.4,0.4L636.2,540.5z M646.3,545.7c0.2,0.1,0.5,0.1,0.7,0.2
			c1.9,1.1,2.9,1.6,4.9,2.7L646.3,545.7z M895,547.8c-0.1-0.4-0.2-0.8-0.3-1.1l3.7,1.3C897.4,548,896.4,547.9,895,547.8z"/>
	</g>
</g>
<g id="black_version" class="st3">
	<path class="st4" d="M529.5,284.2l3-1.9l-3-1.9V284.2z M534.7,275.5l1.9,2.5l1.9-2.5H534.7z M706.6,402.5l-1.3-2h-3l-7.5-16.3
		l-5.8-2l12.8,18.3h-1.1l1,2h-12.3c0,0,0.2,0,0.7,1h-0.7c3.3,3,7.8,4.9,14.3,4.9c0,0,0-0.2,0.1-0.2c0,0-0.1-0.1-0.1-0.1
		c0.3,0,0.8-0.1,0.8-0.1v0c9-0.5,12.5-5.4,12.5-5.4H706.6z M471.5,400.5h-2.6l16.8-30.7l17.1-34.7l-33.9,65.4h-0.3l-1.3,2h-10.4
		c0,0,3.6,4.8,11.6,5.4v0.6c7,0.1,12.4-1,15.9-5h-0.7c0.5-1,0.7-1,0.7-1h-12.3l1-2H472l12.8-18.5l-5.8,2.4L471.5,400.5z
		 M609.2,230.7l-2.9,7.8h5.8L609.2,230.7z M526.1,373.3l-20.4,1.5l17-1.3L526.1,373.3z M663.7,344.8l4-7.1l8.1,8.4l-6.3-11.4l-9.4-5
		l1,1.1l-5.2-2.9l-8.8-7.8l13-12.3l-1.5-0.7l1.6,0.7l-0.4-17l0.1-0.1l-13.3-9.9l-6.4-0.9l-0.5,0.6v-1.7l-1.2-2.2l-0.6,0.1l1.8-2.3
		h-4.6l1.2,1.4l-1.9-1.2l-1.9-1.3l-0.5-3.7l-5.9-19.3l-2.8-1.1l-0.3,0.7l-1.1-0.8l0-0.1l0.4,0.6l4.2-8.3h-32.7l3.8,2v0.5l-4,0.1
		v-3.4v-1.5l1.6-0.6l-0.7-3.1h-2.2c2.3-2,3.8-4.8,3.8-7.9c0-5-4-9.3-8.9-9.3c-4.9,0-8.9,4.4-8.9,9.4c0,3.1,1.5,5.8,3.8,7.8h-2.4
		l-1.2,3.1l1.1,0.6v5.1l-3,0v-2.3l2.5-0.4h-12.4l6.7-4.9l-11.7-1.2l4.1,6.1h-0.5l-0.7,0l0.3-0.7l-3.6,2.7h-24.3l0.1-0.1l-0.1,0.1
		h-0.3l0.2-0.3l-6.7,5.9c1.6-1.7,2.6-4.1,2.6-6.6c0-5.2-4.2-9.4-9.4-9.4s-9.4,4.2-9.4,9.4s4.2,9.4,9.4,9.4c2.2,0,4.2-0.8,5.8-2.1
		l0,0l2.7,2.1l-4.1,3.9l5.9,6.1l8.1-7.8l-5.9-5.8l-3.5,3.2l4.6-8.6l13,6.5l-0.2,2.8l-8,16.3l1-0.4l-0.9,7.9c-1,0.1-2.1,0.2-3.2,0.5
		l-5.2,2l0.2,8.5l2.3,0.5l-2.7,12.9l0.8,3.2l0.1,0.1l-0.2,1l-6.7,16.9l0.3-2.2l-7.6,4.4l2.2,0.8l0,1l-9.2,5.1l1-1.1l-9.4,5
		l-6.3,11.4l8.1-8.4l4,7l0.1,0.8l-25.4,36l13-4.9l7.9-1.8l3.9-0.9l-5.9,0.4l1.7-0.6l3.6-0.3l7.9-0.8l39.5,0.2
		c-0.4,0.8-0.6,1.6-0.5,2.2c-0.3,1.8,3.7,2.1,8.9,3.2c0.2-0.5,0.4-0.9,0.5-1.3l7,2.7l-3.4,17.8h14.6v5h-10.2c0,0,3.9,6,13.1,6.1
		s14.4-6.1,14.4-6.1h-12.2l-0.3-5h17.5l-3-17.5l8.3-2.8c0.1,0.4,0.3,0.7,0.5,1.2c5.2-1.1,9.1-1.4,8.9-3.2c0-0.5-0.1-1.2-0.4-1.9
		l44.5,0.2l3.6,0.3l1.7,0.6l-3.9-0.2l-2-0.1l11.9,2.6l13,4.9l-25.3-35.8L663.7,344.8z M523,327.4l1-1.4l0.7-0.4l0.2-0.1L523,327.4z
		 M526.8,323.6l0.1-1l0.7,0.2L526.8,323.6z M573.3,374.6l-7.9,0c-0.1-0.5-0.3-1.1-0.6-1.7l8.8,0L573.3,374.6z M590.4,243l-1.7-0.1
		l-0.8-0.4l0.2-3h-2.2l-0.4,2.8l-1,0.6v0l-1.4,0.1l-1.4-3.7l1.5-1l-0.8-3.3c1.3,0.8,2.9,1.3,4.6,1.3c1.6,0,3.1-0.4,4.4-1.2l-0.8,3.1
		l1.4,1L590.4,243z M611.2,374.7l-9.1,0l-0.3-1.6l9.9,0.1C611.4,373.7,611.3,374.2,611.2,374.7z M645.5,297.7V319l-0.5-0.5l0.6,4.4
		l-12.1-35.4l1.2-0.2l-0.6,0.9l8.1,6.5l3.6,3.1L645.5,297.7z M648.1,325.3L648.1,325.3l2.1,1.2l2.9,4.1L648.1,325.3z M651.4,325.5
		l0-1.1l4.2,3.4L651.4,325.5z"/>
</g>
<g id="Lunar_Module_outline" class="st3">
	<polygon id="top_antenna_left_1_" class="st5" points="574.5,286 574.5,295.5 576,295.5 576.8,293.1 578.5,293 578.5,290 
		578.5,289 577.1,289.1 575.9,286.1 577,285.3 576.2,282.5 574,282.5 573.3,285.2 	"/>
	<polygon id="top_antenna_right_1_" class="st5" points="585.5,286 585.5,295.5 583.8,295.5 583.1,293.1 581.5,293 581.5,290 
		581.5,289 582.8,289.1 584,286.1 582.8,285.3 583.6,282.5 585.8,282.5 586.6,285.2 	"/>
	<path id="bottle_1_" class="st5" d="M578.5,292.9c0,0-0.2,2,1.4,2c1.6,0,1.6-2,1.6-2v-4l-0.7-0.7l0-2.8H579l0,2.6l-0.5,0.9V292.9z"
		/>
	<g id="center_satellite_1_" class="st6">
		<circle id="satelite_center_3_" class="st7" cx="579.6" cy="275.5" r="7.2"/>
		<line id="cross_1_1_" class="st7" x1="575.3" y1="272.1" x2="583.6" y2="279"/>
		<line id="cross_2_1_" class="st7" x1="575.7" y1="279.3" x2="583.6" y2="272.1"/>
		<ellipse id="satelite_center_2_" class="st7" cx="579.7" cy="275.7" rx="0.8" ry="0.7"/>
	</g>
	<g id="door_2_">
		<polygon id="rectnalge_center_1_" class="st5" points="569,322.5 591,322.5 592.6,342.5 567,342.5 		"/>
		<polygon id="thin_rectangle_1_" class="st5" points="569.5,318.5 569,322.5 590.9,322.5 590.2,318.5 		"/>
		<rect id="door_3_" x="569.8" y="322.5" class="st5" width="20.4" height="18.6"/>
		<polygon id="door_handle_holder_1_" class="st5" points="577.6,341.1 584.5,331.1 584.5,327.5 589.5,327.5 589.5,341 		"/>
		<path id="door_handle_1_" class="st5" d="M588.5,335.4c-2,0-3.7-1.7-3.7-3.7s1.7-3.7,3.7-3.7S590.5,335.4,588.5,335.4z"/>
		<ellipse id="thing_on_left_side_of_door_1_" class="st5" cx="571.1" cy="326.2" rx="1.3" ry="1.9"/>
	</g>
	<g id="center_circle_MAIN_1_" class="st6">
		<circle id="circle_inside_1_" class="st8" cx="580.1" cy="319.8" r="28.8"/>
		<path id="white_rectangle_center_1_" class="st7" d="M573.3,292.3l-3.8,26.2h20.8l-3-26.2C587.2,292.3,581,290.4,573.3,292.3z"/>
		<circle id="circle_dot_center_1_" class="st7" cx="580" cy="311.8" r="2.5"/>
		<path id="circle_chunk_l_1_" class="st7" d="M552,322.3l17-0.2l-1.6,16.4H559C559,338.5,552.2,331.5,552,322.3z"/>
		<path id="circle_chunk_r_1_" class="st7" d="M608.3,322.1l-17.4-0.2l1.4,16.6h9C601.2,338.5,608.3,331,608.3,322.1z"/>
		<polygon id="triangle_l_1_" class="st7" points="558.9,305.2 571.8,302.8 570,314.8 		"/>
		<polygon id="triangle_r_1_" class="st7" points="601,305.2 588.4,302.8 589.8,314.8 		"/>
		<path id="right_circle_side_1_" class="st7" d="M606,308.4l-4.5,13.6v6l-4,10.5v3.6C597.5,342.1,614.2,330.1,606,308.4z"/>
		<path id="circle_top_left_chunk_3_" class="st7" d="M573.3,292.3l-1.5,10.5l-13.5,2.4l0.2-3.8
			C558.5,301.4,562.1,295.7,573.3,292.3"/>
		<path id="circle_top_left_chunk_2_" class="st7" d="M587.3,292.3l1.1,10.5l13.6,2.4l0-3.3C602.1,301.8,598.5,295.7,587.3,292.3"/>
	</g>
	<path id="left_shoulder_1_" class="st5" d="M551.8,316l-0.3-21l10.5-7.5h11.3l-1.8,1.2v4C571.5,292.7,556.3,295.9,551.8,316z"/>
	<path id="right_shoulder_1_" class="st5" d="M608.2,318.5l0.1-23.5l-10.5-7.5h-11l1.7,1.2v4c0,0,16.6,4.8,19.4,22.8"/>
	<polyline id="left_point_1_" class="st5" points="551.5,294.5 539.6,288.5 560.5,288.6 	"/>
	<polyline id="right_point_1_" class="st5" points="608.1,294.5 611.4,287.5 589,287.5 	"/>
	<polyline id="left_antena_1_" class="st5" points="559.6,282.5 563.1,287.5 569,283.6 	"/>
	<line id="right_antenna_1_1_" class="st5" x1="605.6" y1="283.6" x2="619.5" y2="290.2"/>
	<line id="right_antenna_2_1_" class="st5" x1="612.5" y1="281" x2="612.5" y2="294"/>
	<line id="right__antenna_3_1_" class="st5" x1="614.9" y1="284.2" x2="611.4" y2="287.5"/>
	<polygon id="right_triangle_7_" class="st5" points="597.7,277.2 595.4,283.5 597.5,283.5 600,283.5 	"/>
	<line id="right_triangle_stick_1_" class="st5" x1="597.5" y1="287" x2="597.5" y2="284"/>
	<line id="right_T_1_1_" class="st5" x1="603" y1="285.5" x2="608" y2="285.5"/>
	<line id="right_T_2_1_" class="st5" x1="605.5" y1="292" x2="605.5" y2="286"/>
	<path class="st5" d="M541.9,316l2.2-6.3l7.4-3l-0.5,10.8C551,317.5,550.2,315.2,541.9,316z"/>
	<g id="left_satellite_1_" class="st6">
		<circle id="left_satelite_1_" class="st7" cx="529" cy="288.6" r="7.5"/>
		<line id="left_satellite_point_1_" class="st7" x1="528.2" y1="288.6" x2="532.5" y2="291.5"/>
		<polyline id="left_antenna_sign_1_" class="st7" points="539.6,289 533.7,294.5 535.8,296.1 533,298.7 537.5,303 543.2,298 
			538.9,294 536.5,296 		"/>
	</g>
	<polygon id="left_triangle_1_" class="st5" points="551.5,296 544.4,309.2 551.7,306.5 	"/>
	<path id="left_module_1_" class="st5" d="M541.8,316.1l-4.2,1.4v6.5l15.2,3l-1.7-9.5C551,317.5,549.6,315.5,541.8,316.1z"/>
	<ellipse id="left_module_circle_1_" class="st5" cx="541.2" cy="320" rx="1.6" ry="1.5"/>
	<polygon id="left_module_triangle_1_" class="st5" points="534.5,319 534.5,322 536.9,320.5 	"/>
	<polygon id="left_module_triangle_2_1_" class="st5" points="541.2,313.5 538.2,313.5 539.7,315.9 	"/>
	<polygon id="left_thing_1_" class="st5" points="539.1,326.3 536.9,335 537.5,337.6 539.6,328.1 	"/>
	<polygon id="left_shape_3_" class="st5" points="537.4,338.5 531.7,352.7 541.9,355.2 543.2,328.1 540,327.5 	"/>
	<polygon class="st5" points="538.8,324.5 540,327.6 543,328.1 541.9,325.2 	"/>
	<polyline id="left_Z_1_" class="st5" points="546.3,336.8 562.4,353.5 542,353.5 560.5,359.8 	"/>
	<path id="left_wedge_1_" class="st5" d="M541.9,324.9l10.8,2.1l3.1,8.2C555.8,335.2,547.5,334.8,541.9,324.9z"/>
	<path class="st5" d="M548,350l1.4-21.5h2.6c0,0,5.4,12,14.3,17C567.2,346,554.1,354.2,548,350z"/>
	<polyline id="left_shape_2_" class="st5" points="547.8,338.7 542.7,343.5 542,353.5 567.5,353.5 567.5,348 566.3,345.5 	"/>
	<path id="right_thing_5_" class="st5" d="M618.2,352.1l-2.5-27.3c0,0-2,1.3-4.3,1.4c-1.4,0.1-3.8,0.7-3.8,0.7c-1.4,9.8-15,21-15,21
		L618.2,352.1z"/>
	<polyline id="right_Z_1_" class="st5" points="616.1,335 596.9,352.5 615.8,352.5 597.7,360.1 	"/>
	<line id="right_line_1_" class="st5" x1="592.6" y1="348" x2="617" y2="338.5"/>
	<polygon id="right_square_1_" class="st5" points="618.2,353.9 628,355.2 618.2,324.3 615.8,324.9 	"/>
	<polygon id="right_triangle_6_" class="st5" points="618.5,325.2 627.4,332.5 627.4,353.5 	"/>
	<polygon id="right_thing_4_" class="st5" points="624.3,330 627.4,320 622.8,319.8 618.2,324.3 	"/>
	<polygon id="right_thing_3_" class="st5" points="627.4,320 637.6,328.1 627.4,332.5 624.3,330 	"/>
	<polygon id="right_thing_2_1_" class="st5" points="637.5,328 637.5,341 627.4,336.1 627.4,332.5 	"/>
	<polygon id="right_thing_3_1_" class="st5" points="627.4,351.2 637.5,341 627.4,336.1 	"/>
	<polygon id="right_arm_thing_1_" class="st5" points="608.4,295.3 608.8,294.1 611.1,295 616.5,310.5 616.5,313 617.6,314.2 
		621,316 622.5,317.5 622.5,320 618.2,324.3 615.8,324.9 612.6,326.2 607.6,327 608.3,322.1 	"/>
	<circle id="right_circle_1_" class="st5" cx="617.8" cy="318.7" r="1.8"/>
	<polygon id="right_triangle_5_" class="st5" points="608.6,316 618.5,315.4 608.8,321.9 	"/>
	<polygon id="right_triangle_4_" class="st5" points="621.2,312.5 618.2,312.5 619.7,314.9 	"/>
	<g id="Lower_module_1_" class="st6">
		<rect id="_x21__x21__x21__x21___MAIN_RECTANGLE_1_" x="531" y="353.5" class="st7" width="98.1" height="38.8"/>
		<rect id="US_FLAG_1_" x="541.9" y="363" class="st7" width="12.9" height="8.8"/>
		<rect id="rectangle_under_flag_1_" x="542.4" y="371.8" class="st7" width="11.8" height="7"/>
		<rect id="right_rectangle_1_" x="606.5" y="359.1" class="st7" width="13.2" height="8.3"/>
	</g>
	<g id="ladder_1_" class="st6">
		<rect id="ladder_outline_1_" x="573.4" y="368.2" class="st7" width="13" height="33.7"/>
		<line id="ladder_step_1_13_" class="st7" x1="573" y1="371.5" x2="586" y2="371.5"/>
		<line id="ladder_step_1_12_" class="st7" x1="573" y1="375.5" x2="586" y2="375.5"/>
		<line id="ladder_step_1_11_" class="st7" x1="573" y1="379.5" x2="586" y2="379.5"/>
		<line id="ladder_step_1_10_" class="st7" x1="573" y1="384.5" x2="586" y2="384.5"/>
		<line id="ladder_step_1_9_" class="st7" x1="573" y1="389.5" x2="586" y2="389.5"/>
		<line id="ladder_step_1_8_" class="st7" x1="573" y1="394.5" x2="586" y2="394.5"/>
		<line id="ladder_step_1_7_" class="st7" x1="573" y1="398.5" x2="586" y2="398.5"/>
	</g>
	<polygon id="bottom_holder_1_" class="st5" points="569.3,392.5 565.5,410.5 595,410.5 591.7,392.5 	"/>
	<g id="center_leg_1_" class="st6">
		<polyline class="st7" points="579.5,416 579.5,392.2 579.5,364.8 555.9,394.2 604.2,394.3 579.5,364 		"/>
		<path class="st7" d="M555.6,394.2"/>
		<polygon class="st7" points="555.9,394.2 579.5,401.9 604.1,394.3 		"/>
		<path id="center_foot_5_" class="st7" d="M569,416.5h22c0,0-4.1,4.9-11.5,4.9S569,416.5,569,416.5z"/>
	</g>
	<g id="left_leg_1_" class="st6">
		<polyline id="left_leg_part_11_" class="st7" points="531,353.5 514.8,363 531,392.2 517.7,393.3 514.8,393.5 494.7,401.5 
			486.8,416 		"/>
		<line id="left_leg_part_10_" class="st7" x1="514.8" y1="363" x2="494.7" y2="401.5"/>
		<path id="center_foot_4_" class="st7" d="M476,415.5h22c0,0-4.1,4.9-11.5,4.9S476,415.5,476,415.5z"/>
		<line id="left_leg_part_9_" class="st7" x1="531" y1="384.8" x2="517.7" y2="393.3"/>
	</g>
	<g id="right_leg_1_" class="st6">
		<polyline id="left_leg_part_8_" class="st7" points="629,353.5 645.2,363 629,392.2 642.3,393.3 645.2,393.5 665.3,401.5 
			673.2,416 		"/>
		<line id="left_leg_part_7_" class="st7" x1="645.2" y1="363" x2="665.3" y2="401.5"/>
		<path id="center_foot_3_" class="st7" d="M684,415.5h-22c0,0,4.1,4.9,11.5,4.9S684,415.5,684,415.5z"/>
		<line id="left_leg_part_6_" class="st7" x1="629" y1="384.8" x2="642.3" y2="393.3"/>
	</g>
	<g id="box_1_" class="st6">
		<polygon id="center_box_1_" class="st7" points="592.6,359.8 567.5,359.8 567.5,348 592.6,348 592.6,352.7 		"/>
		<path id="s_in_center_box_1_" class="st7" d="M575.9,348.5c0,0-2.4,0.8-1.7,5c0.7,4.2-6.7,6.2-6.7,6.2"/>
	</g>
</g>
<g id="Raster_Lunar_Module_illustration" class="st3">
	<polyline id="left_antenna_sign" class="st9" points="503.7,255.4 495.8,262.7 498.7,264.9 498.7,264.9 	"/>
	<polyline id="left_antena" class="st10" points="528.4,247.6 532.7,253.9 540.1,249 	"/>
	<ellipse id="satelite_center" class="st11" cx="553.8" cy="240.1" rx="8.9" ry="9.1"/>
	<line id="cross_1" class="st12" x1="548.6" y1="235.9" x2="558.9" y2="244.5"/>
	<path class="st13" d="M506,289.1l7.4-23.3l5.3-4l-1.2,30c0,0,1.4,43.6-3.4,43c-1.2-0.1-7.4-8.7-9.2-8.6
		C504.4,326.2,506.5,289.1,506,289.1z"/>
	<polygon id="left_thing" class="st14" points="501.9,300.9 499.9,313.4 500.7,316.6 507.6,324.4 514.2,317.7 515,310.4 	"/>
	<polygon id="right_triangle_3_" class="st15" points="606.3,286 601.7,286 604,289.7 	"/>
	<polyline id="left_point" class="st16" points="518.3,263 503.3,255.5 530,255.5 	"/>
	<path id="left_shoulder" class="st17" d="M518.2,289.6l-0.2-26.8l13.9-9.3h13.8l-2.3,1.3v4.5C543.5,259.3,524,263.5,518.2,289.6z"
		/>
	<path id="left_module" class="st18" d="M505.3,289.4l-5.2,2l0.2,8.5l18.5,3.7l-0.8-11.4C518,291.7,514.7,287.3,505.3,289.4z"/>
	<path id="circle_inside" class="st15" d="M590,294.3c0,1,0,2-0.1,2.9c-1.5,18.5-17,33.1-35.9,33.1c-19.9,0-36-16.1-36-36
		c0-19.9,16.1-36,36-36C573.8,258.3,590,274.4,590,294.3z"/>
	<g id="right_arm_thing" class="st6">
		<polygon class="st19" points="589.4,263.7 590,262.2 592.8,263.3 598.6,282.6 599.1,286.2 601,287.4 605,289.6 606,291.8 
			606,294.6 601.6,300 598.5,300.7 594.6,302.4 587,304.3 589.3,297.2 		"/>
		<g>
			<path class="st20" d="M589.7,263.7c0.2-0.5,0.4-1,0.6-1.4c-0.1,0-0.3,0.1-0.4,0.1c0.5,0.2,0.9,0.4,1.4,0.6
				c0.3,0.1,0.6,0.3,0.9,0.4c0.2,0.1,0.5,0.3,0.4,0.1c0.2,0.3,0.3,1,0.4,1.4c0.7,2.4,1.5,4.8,2.2,7.3c0.8,2.6,1.6,5.3,2.4,7.9
				c0.4,1.4,0.8,2.6,1,3.9c0.1,0.7,0,1.9,0.4,2.5c0.4,0.5,1.5,1,2.1,1.3c1.1,0.6,2.3,1.2,3.5,1.8c0.6,0.4,1.2,1.4,1.5,2.2
				c0.2,0.7,0.3,2.2,0.1,2.9c-0.1,0.4-1.2,1.5-1.7,2c-0.8,1-1.7,2-2.5,3c-0.3,0.4-0.1,0.2-0.4,0.3c-0.6,0.2-1.2,0.3-1.8,0.4
				c-1.9,0.4-3.7,1.6-5.4,2.1c-2.4,0.7-4.8,1.2-7.2,1.8c0.1,0.1,0.2,0.2,0.4,0.2c0.4-1.3,0.9-2.7,1.3-4c0.3-1,0.9-2.1,1-3.2
				c0.2-1.7,0-3.6,0-5.2c0-7.4,0-14.8,0.1-22.1C589.7,267.8,589.7,265.7,589.7,263.7c0-0.3-0.6-0.3-0.6,0c0,5.2,0,10.4,0,15.6
				c0,3.8,0,7.5,0,11.3c0,2.1,0.2,4.3,0,6.4c-0.1,0.8-0.5,1.8-0.8,2.6c-0.5,1.6-1,3.1-1.5,4.7c-0.1,0.2,0.2,0.3,0.4,0.2
				c2.3-0.6,4.6-1.1,6.8-1.7c1.7-0.4,3.3-1.4,4.9-2c0.9-0.3,2.2-0.2,3.1-0.7c0.6-0.3,1.1-1.2,1.5-1.7c0.9-1.1,1.8-2.2,2.7-3.3
				c0.6-0.7,0.5-0.9,0.5-1.9c0-1.2,0-1.6-0.6-2.7c-0.5-1-0.6-1.2-1.6-1.7c-1.1-0.6-2.1-1.1-3.2-1.7c-0.8-0.4-1.7-0.9-1.9-1.5
				c-0.4-1.5-0.4-3-0.8-4.5c-0.8-2.5-1.5-5-2.3-7.5c-0.9-3-1.8-5.9-2.7-8.9c-0.1-0.4-0.2-1.3-0.5-1.6c-0.5-0.6-2.2-0.9-2.9-1.2
				c-0.1,0-0.4,0-0.4,0.1c-0.2,0.5-0.4,1-0.6,1.4C589,263.9,589.6,263.9,589.7,263.7z"/>
		</g>
	</g>
	<line id="cross_2" class="st12" x1="549.1" y1="244.9" x2="558.9" y2="235.9"/>
	<ellipse id="satelite_center_1_" class="st21" cx="553.9" cy="240.6" rx="0.8" ry="0.8"/>
	<path id="white_rectangle_center" class="st13" d="M545.5,259.3l-4.8,35.6l-0.2,1.7l0.5,0.2l0.3-1.8h24.9l0.4,2l0.4-0.1l-0.3-2.2
		l-3.8-35.2C562.9,259.4,555.1,257,545.5,259.3z"/>
	<polygon id="triangle_l" class="st22" points="527.9,275.3 543.6,272.3 541.4,288.2 	"/>
	<circle id="circle_dot_center" class="st23" cx="553.9" cy="284.3" r="3.1"/>
	<polygon id="rectnalge_center" class="st6" points="540.5,296.4 567,296.5 569.7,323 537.6,323 	"/>
	<rect id="door" x="541.4" y="297.7" class="st24" width="25" height="23.2"/>
	<polygon id="door_handle_holder" class="st11" points="550.2,320.8 559,308.5 559,305 565,305 565,320.7 	"/>
	<polygon id="thin_rectangle" class="st22" points="541.1,295 540.6,298 566.9,298 566.1,295 	"/>
	<path id="door_handle" class="st25" d="M564.5,313.9c-2,0-3.5-2.1-3.5-4.6c0-2.5,1.5-4.6,3.5-4.6
		C567.5,304.7,567.5,313.9,564.5,313.9z"/>
	<line id="right__antenna_3" class="st26" x1="597.5" y1="249.8" x2="593.2" y2="253.9"/>
	<polygon class="st13" points="543,259.9 543,255.8 546.6,253.7 549.5,252 559.1,252 564,255.8 564,260.2 548.1,260.2 544.6,260.2 	
		"/>
	<ellipse id="thing_on_left_side_of_door" class="st6" cx="542.9" cy="302.5" rx="2.2" ry="2.5"/>
	<polyline id="right_point" class="st16" points="589,262.3 593.2,253.5 565,253.5 	"/>
	<polygon id="top_antenna_left" class="st27" points="546.5,252 546.5,263.5 548.9,263.5 549.6,260.7 551.5,260.8 551.5,257 
		551.5,255.8 550,255.9 548.6,252.1 550,251.1 549.2,247.5 546.4,247.5 545.3,251 	"/>
	<path id="right_shoulder" class="st17" d="M589.2,292.7l0.1-29.6l-13.2-9.6h-13.8l2.1,1.7l-0.1,5c0,0,21.4,5.5,24.9,28"/>
	<polygon id="top_antenna_right" class="st27" points="560.5,252 560.5,263.5 558.6,263.5 557.7,260.7 555.5,260.8 555.5,257 
		555.5,255.8 557.2,255.9 558.8,252.1 557.4,251.1 558.3,247.5 561.1,247.5 562,251 	"/>
	<line id="right_antenna_2" class="st26" x1="594.5" y1="246" x2="594.5" y2="262"/>
	<line id="right_T_1" class="st26" x1="583" y1="251.5" x2="589" y2="251.5"/>
	<line id="right_T_2" class="st26" x1="585.5" y1="260" x2="585.5" y2="252"/>
	<line id="right_antenna_1" class="st28" x1="585.9" y1="249" x2="603.3" y2="257.3"/>
	<path id="circle_top_left_chunk" class="st13" d="M545.5,259.3l-1.8,13.2l-15.8,2.9l-1.2-4.5c0,0,6.6-9.6,18.4-11.4"/>
	<circle id="left_satelite" class="st11" cx="490" cy="255.3" r="9.4"/>
	<g id="left_satellite_point" class="st6">
		<g>
			<path class="st29" d="M489.4,256c1.6,1.1,3.2,2.2,4.8,3.2c0.4,0.3,0.8-0.4,0.4-0.6c-1.6-1.1-3.2-2.2-4.8-3.2
				C489.3,255,489,255.7,489.4,256L489.4,256z"/>
		</g>
	</g>
	<polygon id="left_triangle" class="st18" points="518,262.7 508.9,281.3 518,278 	"/>
	<ellipse id="left_module_circle" class="st27" cx="505.2" cy="294.6" rx="2" ry="1.9"/>
	<polygon id="left_module_triangle" class="st17" points="496.5,293.3 496.5,297.1 499.5,295.2 	"/>
	<polygon id="left_module_triangle_2" class="st17" points="505.3,287.5 501.5,287.5 503.4,290 	"/>
	<g class="st6">
		<g>
			<path class="st30" d="M499.9,313.4c4.4-0.2,8.9-0.4,13.3-0.5c0.6,0,1.3-0.1,1.9-0.1c0.1,0,0.2-0.1,0-0.1
				c-4.4,0.2-8.9,0.4-13.3,0.5c-0.6,0-1.3,0.1-1.9,0.1C499.7,313.3,499.7,313.4,499.9,313.4L499.9,313.4z"/>
		</g>
	</g>
	<path class="st15" d="M513,332.2l2.2-27.3l4.1,0.6c0,0,6.3,15.2,17.3,21.5C537.8,327.7,520.7,337.6,513,332.2z"/>
	<polygon class="st15" points="503.9,300.7 504.3,303.5 506.6,304 506.1,301.1 	"/>
	<path id="left_wedge" class="st5" d="M506.1,300.7l13.5,2.6l3.9,10.3C523.6,313.6,513.2,313.1,506.1,300.7z"/>
	<polyline id="left_shape_1_" class="st5" points="513.6,318 507.1,324 506.3,336.5 538.5,336.5 538.5,329.6 536.8,326.6 	"/>
	<path id="right_thing" class="st22" d="M601.8,334.8l-3.1-34.1c0,0-2.5,1.6-5.4,1.8c-1.7,0.1-4.7,0.8-4.7,0.8
		c-1.7,12.3-18.8,26.3-18.8,26.3L601.8,334.8z"/>
	<path id="circle_chunk_l" class="st13" d="M518.2,298h22.2l-2.2,19h-12.8C525.3,317,518.5,309,518.2,298z"/>
	<g id="right_line" class="st6">
		<g>
			<path class="st20" d="M569.8,329.8c8.9-3.5,17.8-7,26.7-10.4c1.3-0.5,2.5-1,3.8-1.5c0.4-0.1-0.1-0.4-0.3-0.3
				c-8.9,3.5-17.8,7-26.7,10.4c-1.3,0.5-2.5,1-3.8,1.5C569.2,329.6,569.6,329.9,569.8,329.8L569.8,329.8z"/>
		</g>
	</g>
	<g id="right_triangle_1_" class="st6">
		<polygon class="st29" points="602.3,301.6 613.2,310.2 613.3,336.5 		"/>
		<g>
			<path class="st20" d="M602,301.7c2.1,1.7,4.3,3.4,6.4,5.1c1.3,1,2.5,2,3.8,3c0.2,0.2,0.6,0.3,0.7,0.6c-0.1-0.2-0.1,0.1-0.1,0.3
				c0.1,6.4,0,12.7,0.1,19.1c0,2.3,0,4.5,0,6.8c0.2,0,0.4,0,0.6,0c-3.2-10.2-6.4-20.4-9.6-30.6c-0.5-1.4-0.9-2.9-1.4-4.3
				C602.5,301.3,601.9,301.4,602,301.7c3.1,10.1,6.3,20.3,9.6,30.5c0.5,1.4,0.9,2.9,1.4,4.3c0.1,0.2,0.6,0.2,0.6,0
				c0-5.8,0-11.5-0.1-17.3c0-2.8,0-5.6,0-8.4c0-0.5,0-0.5-0.2-0.9c-0.7-0.9-2.1-1.7-3-2.4c-2.6-2-5.2-4.1-7.7-6.1
				C602.3,301.3,601.8,301.5,602,301.7z"/>
		</g>
	</g>
	<polygon id="right_thing_1_" class="st18" points="609,307.4 613.2,293.8 606.8,292.8 600.9,300.9 	"/>
	<polygon id="right_thing_2_" class="st15" points="613.2,293.8 626.5,303.6 613.2,310.9 609,307.4 	"/>
	<polygon id="right_thing_2" class="st22" points="626.6,303.6 627.2,320.7 613,314.2 613,310.6 	"/>
	<polygon id="right_thing_3" class="st18" points="613,334.1 627.2,320.7 613,314 	"/>
	<circle id="right_circle" class="st15" cx="602.1" cy="293.3" r="1.9"/>
	<g id="right_triangle_2_" class="st6">
		<g>
			<path class="st20" d="M589.9,289.3c4.6-0.1,9.1-0.2,13.7-0.4c-0.1-0.1-0.1-0.2-0.2-0.3c-4.5,2.7-9.1,5.4-13.6,8.2
				c0.2,0,0.3,0.1,0.5,0.1c0-2.6-0.1-5.2-0.1-7.8c0-0.3-0.6-0.3-0.6,0c0,2.6,0.1,5.2,0.1,7.8c0,0.2,0.4,0.2,0.5,0.1
				c4.5-2.7,9.1-5.4,13.6-8.2c0.2-0.1-0.1-0.3-0.2-0.3c-4.6,0.1-9.1,0.2-13.7,0.4C589.5,288.9,589.5,289.3,589.9,289.3z"/>
		</g>
	</g>
	<g id="left_leg_part_2_" class="st6">
		<g>
			<path class="st31" d="M492.3,375.2c-5.6,3.6-11.1,7.1-16.7,10.7c-0.5,0.3,0,1.2,0.5,0.9c5.6-3.6,11.1-7.1,16.7-10.7
				C493.3,375.7,492.8,374.9,492.3,375.2L492.3,375.2z"/>
		</g>
	</g>
	<polygon id="bottom_holder" class="st15" points="540.5,385 535.7,409 572.6,409 568.5,385 	"/>
	<g id="left_leg_part_5_" class="st6">
		<g>
			<path class="st31" d="M614.6,376.1c5.6,3.6,11.1,7.1,16.7,10.7c0.5,0.3,1-0.5,0.5-0.9c-5.6-3.6-11.1-7.1-16.7-10.7
				C614.6,374.9,614.1,375.7,614.6,376.1L614.6,376.1z"/>
		</g>
	</g>
	<g id="left_leg_part_4_" class="st6">
		<g>
			<path class="st32" d="M671,414.3c-2.6-5.5-4.7-12.3-8.2-17.3c-2.4-3.4-9.5-4.5-13.3-5.9c-5.3-2-10.9-5.1-16.7-5.6
				c-5.9-0.5-11.8-1.2-17.7-1.8c0.3,0.5,0.6,1,0.9,1.5c6.9-12.2,13.8-24.3,20.7-36.5c0.3-0.5,0.1-1.1-0.4-1.4c-7-3.9-14-7.8-21-11.6
				c-1.1-0.6-2.1,1.1-1,1.7c7,3.9,14,7.8,21,11.6c-0.1-0.5-0.2-0.9-0.4-1.4c-6.9,12.2-13.8,24.3-20.7,36.5c-0.4,0.7,0.1,1.4,0.9,1.5
				c5.5,0.6,11.1,1.2,16.6,1.7c5.7,0.5,11,3.2,16.3,5.2c3.4,1.3,6.8,2.6,10.3,3.9c0.8,0.3,2.1,0.5,2.7,1c-0.4-0.3-0.1-0.2,0.3,0.9
				c2.1,5.8,5.3,11.3,8,16.9C669.9,416.4,671.6,415.4,671,414.3L671,414.3z"/>
		</g>
	</g>
	<g id="left_leg_part_3_" class="st6">
		<g>
			<path class="st32" d="M635.5,348.9c8.4,16.1,16.8,32.1,25.2,48.2c0.6,1.1,2.3,0.1,1.7-1c-8.4-16.1-16.8-32.1-25.2-48.2
				C636.6,346.8,634.9,347.8,635.5,348.9L635.5,348.9z"/>
		</g>
	</g>
	<g class="st6">
		<g>
			<path class="st33" d="M636.1,347.3c-6.3,11-12.5,22.1-18.8,33.1c-0.9,1.6-1.8,3.1-2.7,4.7c-0.1,0.2,0.5,0.3,0.6,0.1
				c6.3-11,12.5-22.1,18.8-33.1c0.9-1.6,1.8-3.1,2.7-4.7C636.8,347.2,636.2,347.1,636.1,347.3L636.1,347.3z"/>
		</g>
	</g>
	<g class="st6">
		<g>
			<path class="st33" d="M637.3,347.2c-8.1-4.7-16.2-9.4-24.3-14.1c-0.6-0.3-1.1,0.5-0.5,0.9c8.1,4.7,16.2,9.4,24.3,14.1
				C637.3,348.4,637.8,347.5,637.3,347.2L637.3,347.2z"/>
		</g>
	</g>
	<g class="st6">
		<g>
			<path class="st32" d="M638,347.2c-7.1-4.2-14.3-8.4-21.4-12.6c-1-0.6-2-1.2-3-1.8c-0.2-0.1-0.7,0.1-0.4,0.2
				c7.1,4.2,14.3,8.4,21.4,12.6c1,0.6,2,1.2,3,1.8C637.8,347.5,638.3,347.4,638,347.2L638,347.2z"/>
		</g>
	</g>
	<g class="st6">
		<g>
			<path class="st33" d="M636.6,348.1c10.2,19.7,20.5,39.4,30.7,59.1c1.4,2.8,2.9,5.5,4.3,8.3c0.3,0.6,1.2,0.1,0.9-0.5
				c-10.2-19.7-20.5-39.4-30.7-59.1c-1.4-2.8-2.9-5.5-4.3-8.3C637.2,347,636.3,347.5,636.6,348.1L636.6,348.1z"/>
		</g>
	</g>
	<g class="st6">
		<g>
			<path class="st32" d="M637.5,347.4c4,7.6,7.9,15.3,11.9,22.9c6.3,12.1,12.6,24.1,18.8,36.2c1.5,2.8,2.9,5.6,4.4,8.4
				c0.1,0.2,0.7,0.1,0.6-0.1c-4-7.6-7.9-15.3-11.9-22.9c-6.3-12.1-12.6-24.1-18.8-36.2c-1.5-2.8-2.9-5.6-4.4-8.4
				C638,347.1,637.4,347.1,637.5,347.4L637.5,347.4z"/>
		</g>
	</g>
	<line class="st16" x1="663.8" y1="399.2" x2="636.4" y2="387.9"/>
	<g class="st6">
		<g>
			<path class="st33" d="M636.4,387.4c-7.6-0.9-15.2-1.8-22.7-2.7c-0.6-0.1-0.6,0.9,0,1c7.6,0.9,15.2,1.8,22.7,2.7
				C637,388.4,637,387.4,636.4,387.4L636.4,387.4z"/>
		</g>
	</g>
	<g class="st6">
		<g>
			<path class="st30" d="M644,358.2c-2.1-3.8-4.2-7.6-6.3-11.4c-0.6-1.2-2.4-1.1-3,0c-2.3,3.8-4.6,7.6-6.9,11.4
				c-1.2,1.9,1.9,3.7,3,1.8c2.3-3.8,4.6-7.6,6.9-11.4c0.5-0.8,0.2-2-0.6-2.4c-3.1-1.7-6.3-3.3-9.4-5c-2-1.1-3.8,2-1.8,3
				c3.1,1.7,6.3,3.3,9.4,5c-0.2-0.8-0.4-1.6-0.6-2.4c-2.3,3.8-4.6,7.6-6.9,11.4c-1.2,1.9,1.9,3.7,3,1.8c2.3-3.8,4.6-7.6,6.9-11.4
				c-1,0-2,0-3,0c2.1,3.8,4.2,7.6,6.3,11.4C642.1,361.9,645.1,360.2,644,358.2L644,358.2z"/>
		</g>
	</g>
	<g class="st6">
		<polyline class="st34" points="642.8,389.5 636.8,387.2 631,386.9 		"/>
		<g>
			<path class="st30" d="M643.3,387.8c-1.9-0.7-4-1.8-6-2.3c-2-0.5-4.3-0.3-6.3-0.4c-2.2-0.1-2.2,3.4,0,3.5c1.1,0.1,2.1,0.1,3.2,0.2
				c0.6,0,1.2,0.1,1.9,0.1c0.5,0,1,0.2,0.5,0c2,0.6,3.9,1.5,5.9,2.2C644.5,392,645.4,388.6,643.3,387.8L643.3,387.8z"/>
		</g>
	</g>
	<g id="center_foot_2_" class="st6">
		<path class="st33" d="M683.7,415h-27.5c0,0,5.2,6.2,14.4,6.1S683.7,415,683.7,415z"/>
	</g>
	<path class="st22" d="M672,415v5.9c-7,0.1-12.3-1.9-15.8-5.9H672z"/>
	<polygon class="st35" points="673.8,415 672.1,412 667.5,412 668.8,415 	"/>
	<rect id="_x21__x21__x21__x21___MAIN_RECTANGLE" x="491.5" y="335.5" class="st36" width="124.6" height="50.7"/>
	<rect x="585.7" y="335.5" class="st37" width="30.4" height="50.8"/>
	<polygon class="st38" points="599.6,386.2 575,386.2 542.3,335.7 587,335.5 	"/>
	<rect id="rectangle_under_flag" x="506.8" y="359.4" class="st39" width="14.7" height="8.8"/>
	<polyline class="st13" points="620.9,336.3 618.2,337.3 618.2,340.1 615,338.3 612.7,336.9 611.9,331.4 	"/>
	<g class="st6">
		<g>
			<path class="st20" d="M612.5,314.2c-1.5,2.1-3,4.3-4.5,6.4c-0.2,0.3,0.4,0.4,0.5,0.2c1.5-2.1,3-4.3,4.5-6.4
				C613.2,314.1,612.7,314,612.5,314.2L612.5,314.2z"/>
		</g>
	</g>
	<path id="right_circle_side" class="st40" d="M586.2,280.5l-5.7,16.6v7.5l-5,13.1v4.5C575.5,322.2,596.4,307.7,586.2,280.5z"/>
	<path class="st11" d="M583.7,315h12.8l0.6-13.4l-8.6,1.4C587.5,306.7,585.9,311,583.7,315z"/>
	<polygon class="st41" points="530.9,386.3 491.5,386.3 491.5,335.5 516.2,335.5 	"/>
	<g id="right_Z" class="st6">
		<g>
			<path class="st20" d="M599.6,314.2c-7.3,6.7-14.5,13.5-21.8,20.2c-1,1-2.1,1.9-3.1,2.9c-0.2,0.2,0.1,0.3,0.3,0.3
				c8.2,0,16.5,0,24.7,0c-0.1-0.1-0.1-0.2-0.2-0.3c-6.9,2.9-13.8,5.8-20.7,8.7c-1,0.4-2,0.8-3,1.2c-0.4,0.2,0.1,0.4,0.3,0.3
				c6.9-2.9,13.8-5.8,20.7-8.7c1-0.4,2-0.8,3-1.2c0.3-0.1,0.1-0.3-0.2-0.3c-8.2,0-16.5,0-24.7,0c0.1,0.1,0.2,0.2,0.3,0.3
				c7.3-6.7,14.5-13.5,21.8-20.2c1-1,2.1-1.9,3.1-2.9C600.3,314.2,599.8,314,599.6,314.2L599.6,314.2z"/>
		</g>
	</g>
	<g class="st6">
		<g>
			<path class="st34" d="M497.2,344.8c11.4-2.1,22.8-4.1,34.2-6.2c0.6-0.1,0.4-1.1-0.3-1c-11.4,2.1-22.8,4.1-34.2,6.2
				C496.3,344,496.6,344.9,497.2,344.8L497.2,344.8z"/>
		</g>
	</g>
	<path class="st22" d="M506.1,336.2l-0.6,9.8c3.9-2.1,7.9-2,12,0l-1.6-10H506"/>
	<polygon id="right_square" class="st15" points="601.8,337 614,338.7 601.8,300 598.6,300.7 	"/>
	<rect id="right_rectangle" x="587" y="343.5" class="st18" width="16.5" height="10.4"/>
	<g class="st6">
		<g>
			<path class="st19" d="M528,386.7c13.1-6.9,26.2-13.8,39.3-20.7c1.1-0.6,0.1-2.3-1-1.7c-13.1,6.9-26.2,13.8-39.3,20.7
				C525.9,385.6,526.9,387.3,528,386.7L528,386.7z"/>
		</g>
	</g>
	<g class="st6">
		<g>
			<path class="st34" d="M493.6,337.8c11.8,2.9,23.7,5.7,35.5,8.6c0.6,0.2,0.9-0.8,0.3-1c-11.8-2.9-23.7-5.7-35.5-8.6
				C493.3,336.7,493,337.6,493.6,337.8L493.6,337.8z"/>
		</g>
	</g>
	<g class="st6">
		<g>
			<path class="st32" d="M555.4,414.8c0-21.4,0-42.7,0-64.1c0-1.2-1.7-2.1-2.6-1.1c-9.8,12.2-19.5,24.5-29.3,36.7
				c-0.8,1-0.3,2.6,1.1,2.6c20.2,0.1,40.5,0.1,60.7,0.2c1.4,0,1.9-1.6,1.1-2.6c-10.4-12.6-20.8-25.3-31.2-37.9
				c-1.2-1.5-3.3,0.6-2.1,2.1c10.4,12.6,20.8,25.3,31.2,37.9c0.4-0.9,0.7-1.7,1.1-2.6c-20.2-0.1-40.5-0.1-60.7-0.2
				c0.4,0.9,0.7,1.7,1.1,2.6c9.8-12.2,19.5-24.5,29.3-36.7c-0.9-0.4-1.7-0.7-2.6-1.1c0,21.4,0,42.7,0,64.1
				C552.4,416.7,555.4,416.7,555.4,414.8L555.4,414.8z"/>
		</g>
	</g>
	<g class="st6">
		<g>
			<path class="st32" d="M524.5,388.4c1.3,0,1.3-2,0-2C523.3,386.4,523.3,388.4,524.5,388.4L524.5,388.4z"/>
		</g>
	</g>
	<g class="st6">
		<g>
			<path class="st32" d="M524.6,388.4c5.2,1.7,10.5,3.4,15.7,5.2c3.5,1.1,6.9,2.3,10.4,3.4c1.2,0.4,2.7,1.2,4,1.1
				c1.5-0.1,3.3-1,4.6-1.4c3.4-1.1,6.9-2.1,10.3-3.2c5.3-1.6,10.6-3.3,15.9-4.9c1.1-0.3,0.9-2-0.3-2c-20.1-0.1-40.3-0.1-60.4-0.2
				c-1.3,0-1.3,2,0,2c20.1,0.1,40.3,0.1,60.4,0.2c-0.1-0.7-0.2-1.3-0.3-2c-5,1.5-10,3.1-14.9,4.6c-3.4,1-6.8,2.1-10.2,3.1
				c-1.7,0.5-3.9,1.7-5.6,1.7c0.8,0,0-0.2-0.5-0.3c-1.1-0.3-2.1-0.7-3.2-1c-3.4-1.1-6.8-2.2-10.2-3.4c-5.1-1.7-10.2-3.3-15.3-5
				C524,386.1,523.4,388,524.6,388.4z"/>
		</g>
	</g>
	<g id="center_foot" class="st6">
		<path class="st33" d="M540.1,415h27.5c0,0-5.2,6.2-14.4,6.1S540.1,415,540.1,415z"/>
	</g>
	<g id="left_leg_part" class="st6">
		<g>
			<path class="st32" d="M438.1,415.3c2.6-5.5,6-11.1,8-16.9c0.3-0.8,0.9-1.5,0.2-0.9c0.7-0.5,2.1-0.8,2.8-1.1
				c3.4-1.3,6.8-2.6,10.3-3.9c5.3-2,10.6-4.7,16.3-5.2c5.6-0.5,11.1-1.1,16.6-1.7c0.7-0.1,1.3-0.8,0.9-1.5
				c-6.9-12.2-13.8-24.3-20.7-36.5c-0.1,0.5-0.2,0.9-0.4,1.4c7-3.9,14-7.8,21-11.6c1.1-0.6,0.1-2.4-1-1.7c-7,3.9-14,7.8-21,11.6
				c-0.5,0.3-0.6,0.9-0.4,1.4c6.9,12.2,13.8,24.3,20.7,36.5c0.3-0.5,0.6-1,0.9-1.5c-5.8,0.6-11.5,1.3-17.3,1.7
				c-5.9,0.5-11.6,3.5-17.1,5.6c-3.8,1.4-10.7,2.5-13.2,5.8c-2.1,2.6-3.2,6.7-4.6,9.7c-1.2,2.6-2.4,5.2-3.7,7.8
				C435.8,415.4,437.5,416.4,438.1,415.3L438.1,415.3z"/>
		</g>
	</g>
	<g id="left_leg_part_1_" class="st6">
		<g>
			<path class="st32" d="M470.2,347.9c-8.4,16.1-16.8,32.1-25.2,48.2c-0.6,1.1,1.1,2.2,1.7,1c8.4-16.1,16.8-32.1,25.2-48.2
				C472.5,347.8,470.8,346.8,470.2,347.9L470.2,347.9z"/>
		</g>
	</g>
	<g class="st6">
		<g>
			<path class="st33" d="M470.7,347.4c6.6,11.3,13.1,22.6,19.7,33.8c0.9,1.6,1.8,3.2,2.7,4.7c0.1,0.2,0.7,0.1,0.6-0.1
				c-6.6-11.3-13.1-22.6-19.7-33.8c-0.9-1.6-1.8-3.2-2.7-4.7C471.2,347.1,470.6,347.2,470.7,347.4L470.7,347.4z"/>
		</g>
	</g>
	<polygon id="center_box" class="st42" points="569.7,344.4 538.2,344.4 538.2,329.6 569.7,329.6 569.7,335.6 	"/>
	<g id="s_in_center_box" class="st6">
		<path class="st33" d="M548.7,330.8c0,0-3,0.5-2.2,5.7c0.8,5.2-7,7-7,7"/>
		<g>
			<path class="st43" d="M548.6,330.3c-2.8,0.5-2.7,4.1-2.5,6.2c0.3,3.8-3.4,5.8-6.6,6.5c-0.6,0.1-0.4,1.1,0.3,1
				c2.3-0.5,4.9-1.7,6.4-3.7c1.3-1.8,0.9-3.3,0.9-5.3c0-1.3,0.3-3.4,2-3.7C549.5,331.2,549.2,330.2,548.6,330.3L548.6,330.3z"/>
		</g>
	</g>
	<path id="bottle" class="st44" d="M551.5,260.7c0,0-0.1,2.6,1.9,2.6c2.1,0,2.1-2.5,2.1-2.5v-5l-0.8-0.9l0.2-3.4h-2.2l-0.3,3.2
		l-0.9,1.1V260.7z"/>
	<g class="st6">
		<g>
			<path class="st30" d="M503.9,338.1c-3.1,2.3-6.3,4.6-9.4,6.8c-0.5,0.4,0,1.2,0.5,0.9c3.1-2.3,6.3-4.6,9.4-6.8
				C504.9,338.6,504.4,337.7,503.9,338.1L503.9,338.1z"/>
		</g>
	</g>
	<g class="st6">
		<g>
			<path class="st33" d="M470.6,348.1c8.1-4.7,16.2-9.4,24.3-14.1c0.6-0.3,0.1-1.2-0.5-0.9c-8.1,4.7-16.2,9.4-24.3,14.1
				C469.6,347.5,470.1,348.4,470.6,348.1L470.6,348.1z"/>
		</g>
	</g>
	<rect x="551.5" y="256.5" class="st45" width="4" height="1"/>
	<g class="st6">
		<g>
			<path class="st32" d="M469.8,347.4c7.1-4.2,14.3-8.4,21.4-12.6c1-0.6,2-1.2,3-1.8c0.3-0.2-0.2-0.3-0.4-0.2
				c-7.1,4.2-14.3,8.4-21.4,12.6c-1,0.6-2,1.2-3,1.8C469.1,347.4,469.6,347.5,469.8,347.4L469.8,347.4z"/>
		</g>
	</g>
	<circle class="st46" cx="545.8" cy="282.7" r="0.7"/>
	<circle class="st46" cx="563" cy="282.6" r="0.6"/>
	<circle class="st46" cx="559.2" cy="270.1" r="0.9"/>
	<polygon id="left_shape" class="st17" points="500.5,317.7 493.5,335.5 506.2,338.7 507.9,304.7 503.8,304 	"/>
	<polygon id="triangle_l_2_" class="st22" points="582.1,275.9 564.4,272.3 566.1,288.7 	"/>
	<path class="st13" d="M590,297.2l-10-0.1v7.6l-5,13.1v5.9C575,323.7,588.1,315.6,590,297.2z"/>
	<polygon class="st22" points="566.1,288.6 567.1,297 580,297 586.4,278.6 584.1,274.6 581.2,270.7 581.8,276 581.6,276 	"/>
	<g class="st6">
		<g>
			<path class="st34" d="M569.4,318.6c3.9,0,7.7,0,11.6,0c0.4,0,0.4-0.3,0-0.3c-3.9,0-7.7,0-11.6,0C569,318.3,569,318.6,569.4,318.6
				L569.4,318.6z"/>
		</g>
	</g>
	<polygon class="st36" points="549,321.4 566.2,321.4 565.7,297 548,297 548,296.6 566.3,296.6 568.9,322.2 549,322.1 	"/>
	<polyline class="st47" points="551.8,318.6 552.8,319.3 554.5,316.8 553.5,316.1 	"/>
	<path id="circle_top_left_chunk_4_" class="st22" d="M563,260.6c15.9,3.8,23.5,18.4,23.5,18.4l3.2,2.6l0,7.6l1.3-0.3v-25.2
		l-6.9-4.7l3.3,3.8l0.3,3.9l2,2.1l-7.5,0L563.9,256h-2.5l1.3,1.1L563,260.6z"/>
	<polyline class="st47" points="575.6,316.5 576.7,316.8 578,314.2 576.7,313.8 	"/>
	<ellipse class="st22" cx="551.1" cy="310.1" rx="0.7" ry="1.4"/>
	<path class="st13" d="M526.4,318.4l11.7,0l-0.9,8.8C537.2,327.3,532,325.3,526.4,318.4z"/>
	<polyline class="st15" points="525,317 538.1,317 538,318 526,318 	"/>
	<line class="st48" x1="576" y1="248.1" x2="575.9" y2="253.9"/>
	<polygon id="right_triangle" class="st49" points="576,242.2 573.1,250 575.8,250 578.9,250 	"/>
	<g class="st6">
		<g>
			<path class="st33" d="M554.2,414.8c0-9.2,0-18.4,0-27.7c0-7.9,0-15.9,0-23.8c0-4.2,0-8.4,0-12.6c0-0.2-0.5-0.2-0.6-0.1
				c-8.5,10.7-17.1,21.4-25.6,32.1c-1.2,1.5-2.4,3.1-3.7,4.6c-0.1,0.2,0.1,0.3,0.3,0.3c6.8,0,13.7,0,20.5,0.1
				c10.9,0,21.8,0.1,32.7,0.1c2.5,0,5,0,7.5,0c0.1,0,0.4-0.1,0.3-0.3c-9.1-11.1-18.2-22.1-27.4-33.2c-1.3-1.6-2.6-3.1-3.9-4.7
				c-0.1-0.2-0.7-0.1-0.5,0.2c9.1,11.1,18.2,22.1,27.4,33.2c1.3,1.6,2.6,3.1,3.9,4.7c0.1-0.1,0.2-0.2,0.3-0.3
				c-6.8,0-13.7,0-20.5-0.1c-10.9,0-21.8-0.1-32.7-0.1c-2.5,0-5,0-7.5,0c0.1,0.1,0.2,0.2,0.3,0.3c8.5-10.7,17.1-21.4,25.6-32.1
				c1.2-1.5,2.4-3.1,3.7-4.6c-0.2,0-0.4-0.1-0.6-0.1c0,9.3,0,18.7,0,28c0,7.5,0,14.9,0,22.4c0,4.6,0,9.1,0,13.7
				C553.6,415,554.2,415,554.2,414.8L554.2,414.8z"/>
		</g>
	</g>
	<g class="st6">
		<g>
			<path class="st33" d="M524.8,387.6c8.9,2.9,17.8,5.8,26.6,8.7c0.9,0.3,2.1,0.9,3,1c0.9,0,2-0.6,2.8-0.8
				c5.2-1.6,10.5-3.2,15.7-4.9c4.2-1.3,8.4-2.6,12.6-3.9c0.3-0.1,0.1-0.3-0.2-0.3c-6.8,0-13.6,0-20.3-0.1c-10.9,0-21.7-0.1-32.6-0.1
				c-2.5,0-5,0-7.5,0c-0.4,0-0.4,0.4,0,0.4c6.8,0,13.6,0,20.3,0.1c10.9,0,21.7,0.1,32.6,0.1c2.5,0,5,0,7.5,0
				c-0.1-0.1-0.1-0.2-0.2-0.3c-8.8,2.7-17.7,5.5-26.5,8.2c-1.4,0.4-2.8,0.8-4.1,1.3c-0.3,0.1,0.3,0.2-0.2,0
				c-0.5-0.3-1.1-0.4-1.7-0.5c-5-1.7-10.1-3.3-15.1-5c-4.2-1.4-8.3-2.7-12.5-4.1C524.8,387.2,524.4,387.5,524.8,387.6z"/>
		</g>
	</g>
	<path class="st22" d="M526.7,270.8c0,0-3.2,4-4.5,6.6l5.7-2L526.7,270.8z"/>
	<polygon class="st46" points="494.4,268.6 502.5,261 508.4,266.8 500.3,274.7 	"/>
	<circle class="st22" cx="494.6" cy="259" r="0.7"/>
	<rect id="ladder_outline" x="545.6" y="354.9" class="st5" width="16.3" height="42.2"/>
	<line id="ladder_step_1" class="st5" x1="546" y1="359.5" x2="562" y2="359.5"/>
	<line id="ladder_step_1_1_" class="st5" x1="546" y1="364.5" x2="562" y2="364.5"/>
	<line id="ladder_step_1_2_" class="st5" x1="546" y1="369.5" x2="562" y2="369.5"/>
	<line id="ladder_step_1_3_" class="st5" x1="546" y1="375.5" x2="562" y2="375.5"/>
	<line id="ladder_step_1_4_" class="st5" x1="546" y1="381.5" x2="562" y2="381.5"/>
	<line id="ladder_step_1_5_" class="st5" x1="546" y1="387.5" x2="562" y2="387.5"/>
	<line id="ladder_step_1_6_" class="st5" x1="546" y1="392.5" x2="562" y2="392.5"/>
	<polyline class="st50" points="502.8,272.3 500,269.5 503.1,266.4 506,269.2 	"/>
	<path class="st35" d="M509,293.3v2.5c0,0,3.2,0.2,3.2,2.5s-3.2,1.2-3.2,1.2v1.3l9.8,2l-0.5-4.5c-2.3-3.2-5.6-5.4-9.4-6.6L509,293.3
		z"/>
	<circle class="st51" cx="554" cy="326" r="1"/>
	<g id="left_Z" class="st6">
		<g>
			<path class="st30" d="M510.3,314.6c7.1,8,14.1,16,21.2,23.9c0.1-0.3,0.2-0.6,0.4-0.9c-6.7,0.2-13.4,0.4-20.1,0.6
				c-0.6,0-0.7,0.8-0.1,1c5.9,1.9,11.8,3.8,17.7,5.6c0.6,0.2,0.9-0.8,0.3-1c-5.9-1.9-11.8-3.8-17.7-5.6c0,0.3-0.1,0.7-0.1,1
				c6.7-0.2,13.4-0.4,20.1-0.6c0.4,0,0.6-0.5,0.4-0.9c-7.1-8-14.1-16-21.2-23.9C510.6,313.4,509.9,314.1,510.3,314.6L510.3,314.6z"
				/>
		</g>
	</g>
	<g id="flag" class="st6">
		<rect id="US_FLAG" x="505.6" y="347.3" class="st52" width="17.2" height="10.7"/>
		<rect x="506.6" y="348.7" class="st53" width="7.3" height="4.6"/>
		<g>
			<g>
				<path class="st54" d="M514.9,349.2c2.1,0,4.3,0,6.4,0c0.4,0,0.4-0.4,0-0.4c-2.1,0-4.3,0-6.4,0
					C514.5,348.9,514.5,349.2,514.9,349.2L514.9,349.2z"/>
			</g>
		</g>
		<g>
			<g>
				<path class="st54" d="M514.9,350.5c2.1,0,4.3,0,6.4,0c0.4,0,0.4-0.4,0-0.4c-2.1,0-4.3,0-6.4,0
					C514.5,350.1,514.5,350.5,514.9,350.5L514.9,350.5z"/>
			</g>
		</g>
		<g>
			<g>
				<path class="st54" d="M514.9,351.7c2.1,0,4.3,0,6.4,0c0.4,0,0.4-0.4,0-0.4c-2.1,0-4.3,0-6.4,0
					C514.5,351.4,514.5,351.7,514.9,351.7L514.9,351.7z"/>
			</g>
		</g>
		<g>
			<g>
				<path class="st54" d="M514.9,353c2.1,0,4.3,0,6.4,0c0.4,0,0.4-0.4,0-0.4c-2.1,0-4.3,0-6.4,0C514.5,352.6,514.5,353,514.9,353
					L514.9,353z"/>
			</g>
		</g>
		<g>
			<g>
				<path class="st54" d="M506.8,354.2c4.8,0,9.7,0,14.5,0c0.4,0,0.4-0.4,0-0.4c-4.8,0-9.7,0-14.5,0
					C506.5,353.9,506.5,354.2,506.8,354.2L506.8,354.2z"/>
			</g>
		</g>
		<g>
			<g>
				<path class="st54" d="M506.8,355.5c4.8,0,9.7,0,14.5,0c0.4,0,0.4-0.4,0-0.4c-4.8,0-9.7,0-14.5,0
					C506.5,355.1,506.5,355.5,506.8,355.5L506.8,355.5z"/>
			</g>
		</g>
		<g>
			<g>
				<path class="st54" d="M506.8,356.7c4.8,0,9.7,0,14.5,0c0.4,0,0.4-0.4,0-0.4c-4.8,0-9.7,0-14.5,0
					C506.5,356.4,506.5,356.7,506.8,356.7L506.8,356.7z"/>
			</g>
		</g>
	</g>
	<g class="st6">
		<g>
			<path class="st34" d="M542.8,345.5c1.8,0.9,3.7,1.7,5.5,2.6c1.2,0.6,2.4,1.1,3.6,1.7c0.4,0.2,1,0.7,1.5,0.7c0.4,0,1-0.5,1.4-0.6
				c1.2-0.6,2.3-1.1,3.5-1.7c1.8-0.9,3.7-1.8,5.5-2.7c0.3-0.2-0.2-0.4-0.4-0.3c-1.7,0.8-3.4,1.7-5.1,2.5c-1.1,0.6-2.3,1.1-3.4,1.7
				c-0.4,0.2-0.8,0.4-1.2,0.6c-0.2,0.1-0.7,0.2-0.4,0.2c0.4,0-0.3-0.2-0.4-0.3c-0.4-0.2-0.8-0.4-1.2-0.6c-1.2-0.6-2.3-1.1-3.5-1.7
				c-1.7-0.8-3.5-1.7-5.2-2.5C542.9,345.1,542.5,345.3,542.8,345.5L542.8,345.5z"/>
		</g>
	</g>
	<path class="st55" d="M552.9,347.1l-2.5,4.9h7.8l-2.4-5C555,346.3,554.1,346.2,552.9,347.1z"/>
	<g class="st6">
		<g>
			<path class="st33" d="M469.9,347.6c-10.2,19.7-20.5,39.4-30.7,59.1c-1.4,2.8-2.9,5.5-4.3,8.3c-0.3,0.6,0.6,1.1,0.9,0.5
				c10.2-19.7,20.5-39.4,30.7-59.1c1.4-2.8,2.9-5.5,4.3-8.3C471.1,347.5,470.2,347,469.9,347.6L469.9,347.6z"/>
		</g>
	</g>
	<g class="st6">
		<g>
			<path class="st32" d="M469.3,347.3c-4,7.6-7.9,15.3-11.9,22.9c-6.3,12.1-12.6,24.1-18.8,36.2c-1.5,2.8-2.9,5.6-4.4,8.4
				c-0.1,0.2,0.5,0.3,0.6,0.1c4-7.6,7.9-15.3,11.9-22.9c6.3-12.1,12.6-24.1,18.8-36.2c1.5-2.8,2.9-5.6,4.4-8.4
				C470,347.1,469.4,347.1,469.3,347.3L469.3,347.3z"/>
		</g>
	</g>
	<line class="st56" x1="492.2" y1="334.9" x2="492.2" y2="334.9"/>
	<line class="st16" x1="443.6" y1="399.2" x2="471" y2="387.9"/>
	<g class="st6">
		<g>
			<path class="st33" d="M471,389.3c7.3-0.9,14.6-1.7,21.9-2.6c0.6-0.1,0.6-1.1,0-1c-7.3,0.9-14.6,1.7-21.9,2.6
				C470.4,388.4,470.4,389.4,471,389.3L471,389.3z"/>
		</g>
	</g>
	<g class="st6">
		<g>
			<path class="st30" d="M466.4,359.9c2.1-3.8,4.2-7.6,6.3-11.4c-1,0-2,0-3,0c2.3,3.8,4.6,7.6,6.9,11.4c1.2,1.9,4.2,0.2,3-1.8
				c-2.3-3.8-4.6-7.6-6.9-11.4c-0.2,0.8-0.4,1.6-0.6,2.4c3.1-1.7,6.3-3.3,9.4-5c2-1.1,0.2-4.1-1.8-3c-3.1,1.7-6.3,3.3-9.4,5
				c-0.8,0.4-1.1,1.6-0.6,2.4c2.3,3.8,4.6,7.6,6.9,11.4c1.2,1.9,4.2,0.2,3-1.8c-2.3-3.8-4.6-7.6-6.9-11.4c-0.7-1.1-2.4-1.2-3,0
				c-2.1,3.8-4.2,7.6-6.3,11.4C462.3,360.1,465.3,361.9,466.4,359.9L466.4,359.9z"/>
		</g>
	</g>
	<polyline class="st13" points="486.5,336.8 488.8,337.6 488.8,340.1 491.5,338.5 493.5,337.3 494.1,332.4 	"/>
	<g class="st6">
		<polyline class="st34" points="464.6,389.5 470.6,387.2 476.5,386.9 		"/>
		<g>
			<path class="st30" d="M465.1,391.2c2-0.7,3.9-1.6,5.9-2.2c-0.4,0.1-0.2,0,0.3,0c0.7,0,1.4-0.1,2-0.1c1.1-0.1,2.1-0.1,3.2-0.2
				c2.2-0.1,2.3-3.6,0-3.5c-2,0.1-4.3,0-6.3,0.4c-2,0.5-4,1.5-6,2.3C462,388.6,463,392,465.1,391.2L465.1,391.2z"/>
		</g>
	</g>
	<g id="center_foot_1_" class="st6">
		<path class="st33" d="M423.7,415h27.5c0,0-5.2,6.2-14.4,6.1S423.7,415,423.7,415z"/>
	</g>
	<path class="st22" d="M436,415v5.9c7,0.1,11.7-1.9,15.2-5.9H436z"/>
	<path class="st35" d="M522.8,388c-0.3,1.8,3.7,2.1,8.9,3.2c1.1-2,0.8-3.7-0.1-5.6c-0.8-1.9-2.8-3.4-5.1-4.4
		C524.6,383.1,522.6,386.2,522.8,388z"/>
	<path class="st35" d="M587.4,388c0.3,1.8-3.7,2.1-8.9,3.2c-1.1-2-0.8-3.7,0.1-5.6c0.8-1.9,2.8-3.4,5.1-4.4
		C585.6,383.1,587.5,386.2,587.4,388z"/>
	<rect x="551" y="411" class="st35" width="5" height="4"/>
	<polygon class="st35" points="433.7,415 435.3,412 439.9,412 438.6,415 	"/>
</g>
<g id="Raster_Lunar_Module_illustration_alternate_lighting">
	<polyline id="left_antenna_sign_2_" class="st57" points="503.7,255.4 495.8,262.7 498.7,264.9 498.7,264.9 	"/>
	<polyline id="left_antena_2_" class="st58" points="528.4,247.6 532.7,253.9 540.1,249 	"/>
	<ellipse id="satelite_center_5_" class="st59" cx="553.8" cy="240.1" rx="8.9" ry="9.1"/>
	<line id="cross_1_2_" class="st60" x1="548.6" y1="235.9" x2="558.9" y2="244.5"/>
	<path class="st61" d="M506,289.1l7.4-23.3l5.3-4l-1.2,30c0,0,1.4,43.6-3.4,43c-1.2-0.1-7.4-8.7-9.2-8.6
		C504.4,326.2,506.5,289.1,506,289.1z"/>
	<polygon id="left_thing_2_" class="st62" points="501.9,300.9 499.9,313.4 500.7,316.6 507.6,324.4 514.2,317.7 515,310.4 	"/>
	<polygon id="right_triangle_15_" class="st20" points="606.3,286 601.7,286 604,289.7 	"/>
	<polyline id="left_point_2_" class="st63" points="518.3,263 503.3,255.5 530,255.5 	"/>
	<path id="left_shoulder_2_" class="st64" d="M518.2,289.6l-0.2-26.8l13.9-9.3h13.8l-2.3,1.3v4.5C543.5,259.3,524,263.5,518.2,289.6
		z"/>
	<path id="left_module_2_" class="st65" d="M505.3,289.4l-5.2,2l0.2,8.5l18.5,3.7l-0.8-11.4C518,291.7,514.7,287.3,505.3,289.4z"/>
	<path id="circle_inside_2_" class="st66" d="M590,294.3c0,1,0,2-0.1,2.9c-1.5,18.5-17,33.1-35.9,33.1c-19.9,0-36-16.1-36-36
		c0-19.9,16.1-36,36-36C573.8,258.3,590,274.4,590,294.3z"/>
	<g id="right_arm_thing_2_">
		<polygon class="st67" points="589.4,263.7 590,262.2 592.8,263.3 598.6,282.6 599.1,286.2 601,287.4 605,289.6 606,291.8 
			606,294.6 601.6,300 598.5,300.7 594.6,302.4 587,304.3 589.3,297.2 		"/>
		<g>
			<path class="st68" d="M589.7,263.7c0.2-0.5,0.4-1,0.6-1.4c-0.1,0-0.3,0.1-0.4,0.1c0.5,0.2,0.9,0.4,1.4,0.6
				c0.3,0.1,0.6,0.3,0.9,0.4c0.2,0.1,0.5,0.3,0.4,0.1c0.2,0.3,0.3,1,0.4,1.4c0.7,2.4,1.5,4.8,2.2,7.3c0.8,2.6,1.6,5.3,2.4,7.9
				c0.4,1.4,0.8,2.6,1,3.9c0.1,0.7,0,1.9,0.4,2.5c0.4,0.5,1.5,1,2.1,1.3c1.1,0.6,2.3,1.2,3.5,1.8c0.6,0.4,1.2,1.4,1.5,2.2
				c0.2,0.7,0.3,2.2,0.1,2.9c-0.1,0.4-1.2,1.5-1.7,2c-0.8,1-1.7,2-2.5,3c-0.3,0.4-0.1,0.2-0.4,0.3c-0.6,0.2-1.2,0.3-1.8,0.4
				c-1.9,0.4-3.7,1.6-5.4,2.1c-2.4,0.7-4.8,1.2-7.2,1.8c0.1,0.1,0.2,0.2,0.4,0.2c0.4-1.3,0.9-2.7,1.3-4c0.3-1,0.9-2.1,1-3.2
				c0.2-1.7,0-3.6,0-5.2c0-7.4,0-14.8,0.1-22.1C589.7,267.8,589.7,265.7,589.7,263.7c0-0.3-0.6-0.3-0.6,0c0,5.2,0,10.4,0,15.6
				c0,3.8,0,7.5,0,11.3c0,2.1,0.2,4.3,0,6.4c-0.1,0.8-0.5,1.8-0.8,2.6c-0.5,1.6-1,3.1-1.5,4.7c-0.1,0.2,0.2,0.3,0.4,0.2
				c2.3-0.6,4.6-1.1,6.8-1.7c1.7-0.4,3.3-1.4,4.9-2c0.9-0.3,2.2-0.2,3.1-0.7c0.6-0.3,1.1-1.2,1.5-1.7c0.9-1.1,1.8-2.2,2.7-3.3
				c0.6-0.7,0.5-0.9,0.5-1.9c0-1.2,0-1.6-0.6-2.7c-0.5-1-0.6-1.2-1.6-1.7c-1.1-0.6-2.1-1.1-3.2-1.7c-0.8-0.4-1.7-0.9-1.9-1.5
				c-0.4-1.5-0.4-3-0.8-4.5c-0.8-2.5-1.5-5-2.3-7.5c-0.9-3-1.8-5.9-2.7-8.9c-0.1-0.4-0.2-1.3-0.5-1.6c-0.5-0.6-2.2-0.9-2.9-1.2
				c-0.1,0-0.4,0-0.4,0.1c-0.2,0.5-0.4,1-0.6,1.4C589,263.9,589.6,263.9,589.7,263.7z"/>
		</g>
	</g>
	<line id="cross_2_2_" class="st60" x1="549.1" y1="244.9" x2="558.9" y2="235.9"/>
	<ellipse id="satelite_center_4_" class="st69" cx="553.9" cy="240.6" rx="0.8" ry="0.8"/>
	<path id="white_rectangle_center_2_" class="st70" d="M545.5,259.3l-4.8,35.6l-0.2,1.7l0.5,0.2l0.3-1.8h24.9l0.4,2l0.4-0.1
		l-0.3-2.2l-3.8-35.2C562.9,259.4,555.1,257,545.5,259.3z"/>
	<polygon id="triangle_l_4_" class="st29" points="527.9,275.3 543.6,272.3 541.4,288.2 	"/>
	<circle id="circle_dot_center_2_" class="st71" cx="553.9" cy="284.3" r="3.1"/>
	<polygon id="rectnalge_center_2_" points="540.5,296.4 567,296.5 569.7,323 537.6,323 	"/>
	<rect id="door_1_" x="541.4" y="297.7" class="st72" width="25" height="23.2"/>
	<polygon id="door_handle_holder_2_" class="st73" points="550.2,320.8 559,308.5 559,305 565,305 565,320.7 	"/>
	<polygon id="thin_rectangle_2_" class="st29" points="541.1,295 540.6,298 566.9,298 566.1,295 	"/>
	<path id="door_handle_2_" class="st74" d="M564.5,313.9c-2,0-3.5-2.1-3.5-4.6c0-2.5,1.5-4.6,3.5-4.6
		C567.5,304.7,567.5,313.9,564.5,313.9z"/>
	<line id="right__antenna_3_2_" class="st75" x1="597.5" y1="249.8" x2="593.2" y2="253.9"/>
	<polygon class="st76" points="543,259.9 543,255.8 546.6,253.7 549.5,252 559.1,252 564,255.8 564,260.2 548.1,260.2 544.6,260.2 	
		"/>
	<ellipse id="thing_on_left_side_of_door_2_" cx="542.9" cy="302.5" rx="2.2" ry="2.5"/>
	<polyline id="right_point_2_" class="st77" points="589,262.3 593.2,253.5 565,253.5 	"/>
	<polygon id="top_antenna_left_2_" class="st78" points="546.5,252 546.5,263.5 548.9,263.5 549.6,260.7 551.5,260.8 551.5,257 
		551.5,255.8 550,255.9 548.6,252.1 550,251.1 549.2,247.5 546.4,247.5 545.3,251 	"/>
	<path id="right_shoulder_2_" class="st79" d="M589.2,292.7l1.8-29.1L576.2,253h-15.7l3.9,3.1l0,4.1c0,0,21.4,5.5,24.9,27.9"/>
	<polygon id="top_antenna_right_2_" class="st78" points="560.5,252 560.5,263.5 558.6,263.5 557.7,260.7 555.5,260.8 555.5,257 
		555.5,255.8 557.2,255.9 558.8,252.1 557.4,251.1 558.3,247.5 561.1,247.5 562,251 	"/>
	<line id="right_antenna_2_2_" class="st80" x1="594.5" y1="246" x2="594.5" y2="262"/>
	<line id="right_T_1_2_" class="st81" x1="583" y1="251.5" x2="589" y2="251.5"/>
	<line id="right_T_2_2_" class="st81" x1="585.5" y1="260" x2="585.5" y2="252"/>
	<line id="right_antenna_1_2_" class="st82" x1="585.9" y1="249" x2="603.3" y2="257.3"/>
	<path id="circle_top_left_chunk_5_" class="st83" d="M545.5,259.3l-1.8,13.2l-15.8,2.9l-1.2-4.5c0,0,6.6-9.6,18.4-11.4"/>
	<circle id="left_satelite_2_" class="st84" cx="490" cy="255.3" r="9.4"/>
	<g id="left_satellite_point_2_">
		<g>
			<path class="st29" d="M489.4,256c1.6,1.1,3.2,2.2,4.8,3.2c0.4,0.3,0.8-0.4,0.4-0.6c-1.6-1.1-3.2-2.2-4.8-3.2
				C489.3,255,489,255.7,489.4,256L489.4,256z"/>
		</g>
	</g>
	<polygon id="left_triangle_2_" class="st65" points="518,262.7 508.9,281.3 518,278 	"/>
	<ellipse id="left_module_circle_2_" class="st78" cx="505.2" cy="294.6" rx="2" ry="1.9"/>
	<polygon id="left_module_triangle_2_" class="st85" points="496.5,293.3 496.5,297.1 499.5,295.2 	"/>
	<polygon id="left_module_triangle_2_2_" class="st85" points="505.3,287.5 501.5,287.5 503.4,290 	"/>
	<g>
		<g>
			<path class="st61" d="M499.9,313.4c4.4-0.2,8.9-0.4,13.3-0.5c0.6,0,1.3-0.1,1.9-0.1c0.1,0,0.2-0.1,0-0.1
				c-4.4,0.2-8.9,0.4-13.3,0.5c-0.6,0-1.3,0.1-1.9,0.1C499.7,313.3,499.7,313.4,499.9,313.4L499.9,313.4z"/>
		</g>
	</g>
	<path class="st68" d="M513,332.2l2.2-27.3l4.1,0.6c0,0,6.3,15.2,17.3,21.5C537.8,327.7,520.7,337.6,513,332.2z"/>
	<polygon class="st86" points="503.9,300.7 504.3,303.5 506.6,304 506.1,301.1 	"/>
	<path id="left_wedge_2_" class="st87" d="M506.1,300.7l13.5,2.6l3.9,10.3C523.6,313.6,513.2,313.1,506.1,300.7z"/>
	<polyline id="left_shape_5_" class="st88" points="513.6,318 507.1,324 506.3,336.5 538.5,336.5 538.5,329.6 538.5,329.6 	"/>
	<path id="right_thing_8_" class="st29" d="M601.8,334.8l-3.1-34.1c0,0-2.5,1.6-5.4,1.8c-1.7,0.1-4.7,0.8-4.7,0.8
		c-1.7,12.3-18.8,26.3-18.8,26.3L601.8,334.8z"/>
	<path id="circle_chunk_l_2_" class="st89" d="M518.2,298h22.2l-2.2,19h-12.8C525.3,317,518.5,309,518.2,298z"/>
	<g id="right_line_2_">
		<g>
			<path class="st70" d="M569.8,329.8c8.9-3.5,17.8-7,26.7-10.4c1.3-0.5,2.5-1,3.8-1.5c0.4-0.1-0.1-0.4-0.3-0.3
				c-8.9,3.5-17.8,7-26.7,10.4c-1.3,0.5-2.5,1-3.8,1.5C569.2,329.6,569.6,329.9,569.8,329.8L569.8,329.8z"/>
		</g>
	</g>
	<g id="right_triangle_13_">
		<polygon class="st29" points="600.5,300.7 613.6,309.8 613.8,337.6 		"/>
		<g>
			<path class="st59" d="M600.3,300.8c2.4,1.7,4.9,3.4,7.3,5.1c1.5,1,3,2.1,4.5,3.1c0.4,0.3,0.9,0.5,1.2,0.8c0.3,0.3,0-0.2,0.1,0.2
				c0.2,0.8,0,1.9,0,2.7c0,1.6,0,3.3,0,4.9c0,4.1,0,8.3,0,12.4c0,2.5,0,5,0,7.6c0.2,0,0.4,0,0.6,0c-3.9-10.8-7.7-21.6-11.6-32.4
				c-0.5-1.5-1.1-3.1-1.6-4.6C600.8,300.4,600.2,300.4,600.3,300.8c3.8,10.7,7.6,21.5,11.5,32.3c0.5,1.5,1.1,3.1,1.6,4.6
				c0.1,0.2,0.6,0.2,0.6,0c0-6.3,0-12.6-0.1-18.9c0-1.8,0-3.6,0-5.5c0-1,0.1-2.1,0-3.1c-0.1-0.5-0.1-0.5-0.5-0.8
				c-1.3-0.9-2.6-1.8-3.9-2.7c-2.9-2-5.8-4.1-8.7-6.1C600.6,300.4,600,300.6,600.3,300.8z"/>
		</g>
	</g>
	<polygon id="right_thing_7_" class="st90" points="609,307.4 613.2,293.8 606.8,292.8 600.9,300.9 	"/>
	<polygon id="right_thing_6_" class="st91" points="613.2,293.8 626.5,303.6 613.2,310.9 609,307.4 	"/>
	<polygon id="right_thing_2_2_" class="st29" points="626.6,303.6 627.2,320.7 613,314.2 613,310.6 	"/>
	<polygon id="right_thing_3_2_" class="st92" points="613,334.1 627.2,320.7 613,314 	"/>
	<circle id="right_circle_2_" class="st66" cx="602.1" cy="293.3" r="1.9"/>
	<g id="right_triangle_11_">
		<g>
			<path class="st68" d="M589.9,289.3c4.6-0.1,9.1-0.2,13.7-0.4c-0.1-0.1-0.1-0.2-0.2-0.3c-4.5,2.7-9.1,5.4-13.6,8.2
				c0.2,0,0.3,0.1,0.5,0.1c0-2.6-0.1-5.2-0.1-7.8c0-0.3-0.6-0.3-0.6,0c0,2.6,0.1,5.2,0.1,7.8c0,0.2,0.4,0.2,0.5,0.1
				c4.5-2.7,9.1-5.4,13.6-8.2c0.2-0.1-0.1-0.3-0.2-0.3c-4.6,0.1-9.1,0.2-13.7,0.4C589.5,288.9,589.5,289.3,589.9,289.3z"/>
		</g>
	</g>
	<g id="left_leg_part_28_">
		<g>
			<path class="st31" d="M492.3,375.2c-5.6,3.6-11.1,7.1-16.7,10.7c-0.5,0.3,0,1.2,0.5,0.9c5.6-3.6,11.1-7.1,16.7-10.7
				C493.3,375.7,492.8,374.9,492.3,375.2L492.3,375.2z"/>
		</g>
	</g>
	<polygon id="bottom_holder_2_" class="st66" points="540.5,385 535.7,409 572.6,409 568.5,385 	"/>
	<g id="left_leg_part_26_">
		<g>
			<path class="st31" d="M614.6,376.1c5.6,3.6,11.1,7.1,16.7,10.7c0.5,0.3,1-0.5,0.5-0.9c-5.6-3.6-11.1-7.1-16.7-10.7
				C614.6,374.9,614.1,375.7,614.6,376.1L614.6,376.1z"/>
		</g>
	</g>
	<g id="left_leg_part_24_">
		<g>
			<path class="st93" d="M671,414.3c-2.6-5.5-4.7-12.3-8.2-17.3c-2.4-3.4-9.5-4.5-13.3-5.9c-5.3-2-10.9-5.1-16.7-5.6
				c-5.9-0.5-11.8-1.2-17.7-1.8c0.3,0.5,0.6,1,0.9,1.5c6.9-12.2,13.8-24.3,20.7-36.5c0.3-0.5,0.1-1.1-0.4-1.4c-7-3.9-14-7.8-21-11.6
				c-1.1-0.6-2.1,1.1-1,1.7c7,3.9,14,7.8,21,11.6c-0.1-0.5-0.2-0.9-0.4-1.4c-6.9,12.2-13.8,24.3-20.7,36.5c-0.4,0.7,0.1,1.4,0.9,1.5
				c5.5,0.6,11.1,1.2,16.6,1.7c5.7,0.5,11,3.2,16.3,5.2c3.4,1.3,6.8,2.6,10.3,3.9c0.8,0.3,2.1,0.5,2.7,1c-0.4-0.3-0.1-0.2,0.3,0.9
				c2.1,5.8,5.3,11.3,8,16.9C669.9,416.4,671.6,415.4,671,414.3L671,414.3z"/>
		</g>
	</g>
	<g id="left_leg_part_22_">
		<g>
			<path class="st32" d="M635.5,348.9c8.4,16.1,16.8,32.1,25.2,48.2c0.6,1.1,2.3,0.1,1.7-1c-8.4-16.1-16.8-32.1-25.2-48.2
				C636.6,346.8,634.9,347.8,635.5,348.9L635.5,348.9z"/>
		</g>
	</g>
	<g>
		<g>
			<path class="st94" d="M636.1,347.3c-6.3,11-12.5,22.1-18.8,33.1c-0.9,1.6-1.8,3.1-2.7,4.7c-0.1,0.2,0.5,0.3,0.6,0.1
				c6.3-11,12.5-22.1,18.8-33.1c0.9-1.6,1.8-3.1,2.7-4.7C636.8,347.2,636.2,347.1,636.1,347.3L636.1,347.3z"/>
		</g>
	</g>
	<g>
		<g>
			<path class="st33" d="M637.3,347.2c-8.1-4.7-16.2-9.4-24.3-14.1c-0.6-0.3-1.1,0.5-0.5,0.9c8.1,4.7,16.2,9.4,24.3,14.1
				C637.3,348.4,637.8,347.5,637.3,347.2L637.3,347.2z"/>
		</g>
	</g>
	<g>
		<g>
			<path class="st32" d="M638,347.2c-7.1-4.2-14.3-8.4-21.4-12.6c-1-0.6-2-1.2-3-1.8c-0.2-0.1-0.7,0.1-0.4,0.2
				c7.1,4.2,14.3,8.4,21.4,12.6c1,0.6,2,1.2,3,1.8C637.8,347.5,638.3,347.4,638,347.2L638,347.2z"/>
		</g>
	</g>
	<g>
		<g>
			<path class="st33" d="M636.6,348.1c10.2,19.7,20.5,39.4,30.7,59.1c1.4,2.8,2.9,5.5,4.3,8.3c0.3,0.6,1.2,0.1,0.9-0.5
				c-10.2-19.7-20.5-39.4-30.7-59.1c-1.4-2.8-2.9-5.5-4.3-8.3C637.2,347,636.3,347.5,636.6,348.1L636.6,348.1z"/>
		</g>
	</g>
	<g>
		<g>
			<path class="st32" d="M637.5,347.4c4,7.6,7.9,15.3,11.9,22.9c6.3,12.1,12.6,24.1,18.8,36.2c1.5,2.8,2.9,5.6,4.4,8.4
				c0.1,0.2,0.7,0.1,0.6-0.1c-4-7.6-7.9-15.3-11.9-22.9c-6.3-12.1-12.6-24.1-18.8-36.2c-1.5-2.8-2.9-5.6-4.4-8.4
				C638,347.1,637.4,347.1,637.5,347.4L637.5,347.4z"/>
		</g>
	</g>
	<line class="st95" x1="663.8" y1="399.2" x2="636.4" y2="387.9"/>
	<g>
		<g>
			<path class="st94" d="M636.4,387.4c-7.6-0.9-15.2-1.8-22.7-2.7c-0.6-0.1-0.6,0.9,0,1c7.6,0.9,15.2,1.8,22.7,2.7
				C637,388.4,637,387.4,636.4,387.4L636.4,387.4z"/>
		</g>
	</g>
	<g>
		<g>
			<path class="st96" d="M644,358.2c-2.1-3.8-4.2-7.6-6.3-11.4c-0.6-1.2-2.4-1.1-3,0c-2.3,3.8-4.6,7.6-6.9,11.4
				c-1.2,1.9,1.9,3.7,3,1.8c2.3-3.8,4.6-7.6,6.9-11.4c0.5-0.8,0.2-2-0.6-2.4c-3.1-1.7-6.3-3.3-9.4-5c-2-1.1-3.8,2-1.8,3
				c3.1,1.7,6.3,3.3,9.4,5c-0.2-0.8-0.4-1.6-0.6-2.4c-2.3,3.8-4.6,7.6-6.9,11.4c-1.2,1.9,1.9,3.7,3,1.8c2.3-3.8,4.6-7.6,6.9-11.4
				c-1,0-2,0-3,0c2.1,3.8,4.2,7.6,6.3,11.4C642.1,361.9,645.1,360.2,644,358.2L644,358.2z"/>
		</g>
	</g>
	<g>
		<polyline class="st97" points="642.8,389.5 636.8,387.2 631,386.9 		"/>
		<g>
			<path class="st98" d="M643.3,387.8c-1.9-0.7-4-1.8-6-2.3c-2-0.5-4.3-0.3-6.3-0.4c-2.2-0.1-2.2,3.4,0,3.5c1.1,0.1,2.1,0.1,3.2,0.2
				c0.6,0,1.2,0.1,1.9,0.1c0.5,0,1,0.2,0.5,0c2,0.6,3.9,1.5,5.9,2.2C644.5,392,645.4,388.6,643.3,387.8L643.3,387.8z"/>
		</g>
	</g>
	<g id="center_foot_13_">
		<path class="st33" d="M683.7,415h-27.5c0,0,5.2,6.2,14.4,6.1S683.7,415,683.7,415z"/>
	</g>
	<path class="st29" d="M672,415v5.9c-7,0.1-12.3-1.9-15.8-5.9H672z"/>
	<polygon class="st99" points="673.8,415 672.1,412 667.5,412 668.8,415 	"/>
	<rect id="_x21__x21__x21__x21___MAIN_RECTANGLE_2_" x="491.5" y="335.5" class="st100" width="124.6" height="50.7"/>
	<rect x="585.7" y="335.5" class="st101" width="30.4" height="50.8"/>
	<polygon class="st102" points="599.6,386.2 575,386.2 542.3,335.7 587,335.5 	"/>
	<rect id="rectangle_under_flag_2_" x="506.8" y="359.4" class="st103" width="14.7" height="8.8"/>
	<polyline class="st104" points="620.9,336.3 618.2,337.3 618.2,340.1 615,338.3 612.7,336.9 611.9,331.4 	"/>
	<g>
		<line class="st105" x1="612.8" y1="314.3" x2="608.3" y2="320.7"/>
	</g>
	<path id="right_circle_side_2_" class="st106" d="M586.2,280.5l-5.7,16.6v7.5l-5,13.1v4.5C575.5,322.2,596.4,307.7,586.2,280.5z"/>
	<path class="st67" d="M583.7,315h12.8l0.6-13.4l-8.6,1.4C587.5,306.7,585.9,311,583.7,315z"/>
	<polygon class="st107" points="530.9,386.3 491.5,386.3 491.5,335.5 516.2,335.5 	"/>
	<g id="right_Z_2_">
		<g>
			<path class="st70" d="M599.6,314.2c-7.3,6.7-14.5,13.5-21.8,20.2c-1,1-2.1,1.9-3.1,2.9c-0.2,0.2,0.1,0.3,0.3,0.3
				c8.2,0,16.5,0,24.7,0c-0.1-0.1-0.1-0.2-0.2-0.3c-6.9,2.9-13.8,5.8-20.7,8.7c-1,0.4-2,0.8-3,1.2c-0.4,0.2,0.1,0.4,0.3,0.3
				c6.9-2.9,13.8-5.8,20.7-8.7c1-0.4,2-0.8,3-1.2c0.3-0.1,0.1-0.3-0.2-0.3c-8.2,0-16.5,0-24.7,0c0.1,0.1,0.2,0.2,0.3,0.3
				c7.3-6.7,14.5-13.5,21.8-20.2c1-1,2.1-1.9,3.1-2.9C600.3,314.2,599.8,314,599.6,314.2L599.6,314.2z"/>
		</g>
	</g>
	<polygon class="st108" points="534.1,386.3 503.3,386.5 511.8,335.7 519.5,335.5 	"/>
	<g>
		<g>
			<path d="M497.2,344.8c11.4-2.1,22.8-4.1,34.2-6.2c0.6-0.1,0.4-1.1-0.3-1c-11.4,2.1-22.8,4.1-34.2,6.2
				C496.3,344,496.6,344.9,497.2,344.8L497.2,344.8z"/>
		</g>
	</g>
	<path class="st29" d="M506.1,336.2l-0.6,9.8c3.9-2.1,7.9-2,12,0l-1.6-10H506"/>
	<polygon id="right_square_2_" class="st67" points="601.8,337 614.5,338.3 602.6,300 598.6,300.7 	"/>
	<rect id="right_rectangle_2_" x="587" y="343.5" class="st90" width="16.5" height="10.4"/>
	<g>
		<g>
			<path class="st109" d="M528,386.7c13.1-6.9,26.2-13.8,39.3-20.7c1.1-0.6,0.1-2.3-1-1.7c-13.1,6.9-26.2,13.8-39.3,20.7
				C525.9,385.6,526.9,387.3,528,386.7L528,386.7z"/>
		</g>
	</g>
	<g>
		<g>
			<path d="M493.6,337.8c11.8,2.9,23.7,5.7,35.5,8.6c0.6,0.2,0.9-0.8,0.3-1c-11.8-2.9-23.7-5.7-35.5-8.6
				C493.3,336.7,493,337.6,493.6,337.8L493.6,337.8z"/>
		</g>
	</g>
	<g>
		<g>
			<path class="st110" d="M555.4,414.8c0-21.4,0-42.7,0-64.1c0-1.2-1.7-2.1-2.6-1.1c-9.8,12.2-19.5,24.5-29.3,36.7
				c-0.8,1-0.3,2.6,1.1,2.6c20.2,0.1,40.5,0.1,60.7,0.2c1.4,0,1.9-1.6,1.1-2.6c-10.4-12.6-20.8-25.3-31.2-37.9
				c-1.2-1.5-3.3,0.6-2.1,2.1c10.4,12.6,20.8,25.3,31.2,37.9c0.4-0.9,0.7-1.7,1.1-2.6c-20.2-0.1-40.5-0.1-60.7-0.2
				c0.4,0.9,0.7,1.7,1.1,2.6c9.8-12.2,19.5-24.5,29.3-36.7c-0.9-0.4-1.7-0.7-2.6-1.1c0,21.4,0,42.7,0,64.1
				C552.4,416.7,555.4,416.7,555.4,414.8L555.4,414.8z"/>
		</g>
	</g>
	<g>
		<g>
			<path class="st111" d="M524.5,388.4c1.3,0,1.3-2,0-2C523.3,386.4,523.3,388.4,524.5,388.4L524.5,388.4z"/>
		</g>
	</g>
	<g>
		<g>
			<path class="st110" d="M524.6,388.4c5.2,1.7,10.5,3.4,15.7,5.2c3.5,1.1,6.9,2.3,10.4,3.4c1.2,0.4,2.7,1.2,4,1.1
				c1.5-0.1,3.3-1,4.6-1.4c3.4-1.1,6.9-2.1,10.3-3.2c5.3-1.6,10.6-3.3,15.9-4.9c1.1-0.3,0.9-2-0.3-2c-20.1-0.1-40.3-0.1-60.4-0.2
				c-1.3,0-1.3,2,0,2c20.1,0.1,40.3,0.1,60.4,0.2c-0.1-0.7-0.2-1.3-0.3-2c-5,1.5-10,3.1-14.9,4.6c-3.4,1-6.8,2.1-10.2,3.1
				c-1.7,0.5-3.9,1.7-5.6,1.7c0.8,0,0-0.2-0.5-0.3c-1.1-0.3-2.1-0.7-3.2-1c-3.4-1.1-6.8-2.2-10.2-3.4c-5.1-1.7-10.2-3.3-15.3-5
				C524,386.1,523.4,388,524.6,388.4z"/>
		</g>
	</g>
	<g id="center_foot_11_">
		<path class="st100" d="M540.1,415h27.5c0,0-5.2,6.2-14.4,6.1S540.1,415,540.1,415z"/>
	</g>
	<g id="left_leg_part_20_">
		<g>
			<path class="st112" d="M438.1,415.3c2.6-5.5,6-11.1,8-16.9c0.3-0.8,0.9-1.5,0.2-0.9c0.7-0.5,2.1-0.8,2.8-1.1
				c3.4-1.3,6.8-2.6,10.3-3.9c5.3-2,10.6-4.7,16.3-5.2c5.6-0.5,11.1-1.1,16.6-1.7c0.7-0.1,1.3-0.8,0.9-1.5
				c-6.9-12.2-13.8-24.3-20.7-36.5c-0.1,0.5-0.2,0.9-0.4,1.4c7-3.9,14-7.8,21-11.6c1.1-0.6,0.1-2.4-1-1.7c-7,3.9-14,7.8-21,11.6
				c-0.5,0.3-0.6,0.9-0.4,1.4c6.9,12.2,13.8,24.3,20.7,36.5c0.3-0.5,0.6-1,0.9-1.5c-5.8,0.6-11.5,1.3-17.3,1.7
				c-5.9,0.5-11.6,3.5-17.1,5.6c-3.8,1.4-10.7,2.5-13.2,5.8c-2.1,2.6-3.2,6.7-4.6,9.7c-1.2,2.6-2.4,5.2-3.7,7.8
				C435.8,415.4,437.5,416.4,438.1,415.3L438.1,415.3z"/>
		</g>
	</g>
	<g>
		<g>
			<path class="st113" d="M470.7,347.4c6.6,11.3,13.1,22.6,19.7,33.8c0.9,1.6,1.8,3.2,2.7,4.7c0.1,0.2,0.7,0.1,0.6-0.1
				c-6.6-11.3-13.1-22.6-19.7-33.8c-0.9-1.6-1.8-3.2-2.7-4.7C471.2,347.1,470.6,347.2,470.7,347.4L470.7,347.4z"/>
		</g>
	</g>
	<polygon id="center_box_2_" class="st114" points="569.7,344.4 538.2,344.4 538.2,329.6 569.7,329.6 569.7,335.6 	"/>
	<g id="s_in_center_box_2_">
		<path class="st100" d="M548.7,330.8c0,0-3,0.5-2.2,5.7c0.8,5.2-7,7-7,7"/>
		<g>
			<path class="st115" d="M548.6,330.3c-2.8,0.5-2.7,4.1-2.5,6.2c0.3,3.8-3.4,5.8-6.6,6.5c-0.6,0.1-0.4,1.1,0.3,1
				c2.3-0.5,4.9-1.7,6.4-3.7c1.3-1.8,0.9-3.3,0.9-5.3c0-1.3,0.3-3.4,2-3.7C549.5,331.2,549.2,330.2,548.6,330.3L548.6,330.3z"/>
		</g>
	</g>
	<path id="bottle_2_" class="st116" d="M551.5,260.7c0,0-0.1,2.6,1.9,2.6c2.1,0,2.1-2.5,2.1-2.5v-5l-0.8-0.9l0.2-3.4h-2.2l-0.3,3.2
		l-0.9,1.1V260.7z"/>
	<g>
		<g>
			<path class="st61" d="M503.9,338.1c-3.1,2.3-6.3,4.6-9.4,6.8c-0.5,0.4,0,1.2,0.5,0.9c3.1-2.3,6.3-4.6,9.4-6.8
				C504.9,338.6,504.4,337.7,503.9,338.1L503.9,338.1z"/>
		</g>
	</g>
	<g>
		<g>
			<path class="st117" d="M470.6,348.1c8.1-4.7,16.2-9.4,24.3-14.1c0.6-0.3,0.1-1.2-0.5-0.9c-8.1,4.7-16.2,9.4-24.3,14.1
				C469.6,347.5,470.1,348.4,470.6,348.1L470.6,348.1z"/>
		</g>
	</g>
	<rect x="551.5" y="256.5" class="st118" width="4" height="1"/>
	<g>
		<g>
			<path class="st119" d="M469.8,347.4c7.1-4.2,14.3-8.4,21.4-12.6c1-0.6,2-1.2,3-1.8c0.3-0.2-0.2-0.3-0.4-0.2
				c-7.1,4.2-14.3,8.4-21.4,12.6c-1,0.6-2,1.2-3,1.8C469.1,347.4,469.6,347.5,469.8,347.4L469.8,347.4z"/>
		</g>
	</g>
	<circle class="st120" cx="545.8" cy="282.7" r="0.7"/>
	<circle class="st120" cx="563" cy="282.6" r="0.6"/>
	<circle class="st120" cx="559.2" cy="270.1" r="0.9"/>
	<polygon id="left_shape_4_" class="st85" points="500.5,317.7 493.5,335.5 506.2,338.7 507.9,304.7 503.8,304 	"/>
	<polygon id="triangle_l_3_" class="st29" points="582.1,275.9 564.4,272.3 566.1,288.7 	"/>
	<path class="st70" d="M590,297.2l-10-0.1v7.6l-5,13.1v5.9C575,323.7,588.1,315.6,590,297.2z"/>
	<polygon class="st29" points="566.1,288.6 567.1,297 580,297 586.4,278.6 584.1,274.6 581.2,270.7 581.8,276 581.6,276 	"/>
	<g>
		<g>
			<path class="st120" d="M569.4,318.6c3.9,0,7.7,0,11.6,0c0.4,0,0.4-0.3,0-0.3c-3.9,0-7.7,0-11.6,0
				C569,318.3,569,318.6,569.4,318.6L569.4,318.6z"/>
		</g>
	</g>
	<polygon class="st100" points="549,321.4 566.2,321.4 565.7,297 548,297 548,296.6 566.3,296.6 568.9,322.2 549,322.1 	"/>
	<polyline class="st121" points="551.8,318.6 552.8,319.3 554.5,316.8 553.5,316.1 	"/>
	<path id="circle_top_left_chunk_1_" class="st29" d="M563,260.6c15.9,3.8,23.1,18.5,23.1,18.5l0.9,3.8l2,6.3l0.4,3.9h0.3l-0.1-3.8
		l1.5-0.4v-25.2l-6.9-4.7l4.9,3.4l-1.4,4.3l2,2.1l-7.5,0L563.9,256h-2.5l1.3,1.1L563,260.6z"/>
	<polyline class="st121" points="575.6,316.5 576.7,316.8 578,314.2 576.7,313.8 	"/>
	<ellipse class="st29" cx="551.1" cy="310.1" rx="0.7" ry="1.4"/>
	<path class="st122" d="M526.4,318.4l11.7,0l-0.9,8.8C537.2,327.3,532,325.3,526.4,318.4z"/>
	<polyline class="st66" points="525,317 538.1,317 538,318 526,318 	"/>
	<line class="st123" x1="576" y1="248.1" x2="575.9" y2="253.9"/>
	<polygon id="right_triangle_8_" class="st124" points="576,242.2 573.1,250 575.8,250 578.9,250 	"/>
	<g>
		<g>
			<path class="st100" d="M554.2,414.8c0-9.2,0-18.4,0-27.7c0-7.9,0-15.9,0-23.8c0-4.2,0-8.4,0-12.6c0-0.2-0.5-0.2-0.6-0.1
				c-8.5,10.7-17.1,21.4-25.6,32.1c-1.2,1.5-2.4,3.1-3.7,4.6c-0.1,0.2,0.1,0.3,0.3,0.3c6.8,0,13.7,0,20.5,0.1
				c10.9,0,21.8,0.1,32.7,0.1c2.5,0,5,0,7.5,0c0.1,0,0.4-0.1,0.3-0.3c-9.1-11.1-18.2-22.1-27.4-33.2c-1.3-1.6-2.6-3.1-3.9-4.7
				c-0.1-0.2-0.7-0.1-0.5,0.2c9.1,11.1,18.2,22.1,27.4,33.2c1.3,1.6,2.6,3.1,3.9,4.7c0.1-0.1,0.2-0.2,0.3-0.3
				c-6.8,0-13.7,0-20.5-0.1c-10.9,0-21.8-0.1-32.7-0.1c-2.5,0-5,0-7.5,0c0.1,0.1,0.2,0.2,0.3,0.3c8.5-10.7,17.1-21.4,25.6-32.1
				c1.2-1.5,2.4-3.1,3.7-4.6c-0.2,0-0.4-0.1-0.6-0.1c0,9.3,0,18.7,0,28c0,7.5,0,14.9,0,22.4c0,4.6,0,9.1,0,13.7
				C553.6,415,554.2,415,554.2,414.8L554.2,414.8z"/>
		</g>
	</g>
	<g>
		<g>
			<path class="st100" d="M524.8,387.6c8.9,2.9,17.8,5.8,26.6,8.7c0.9,0.3,2.1,0.9,3,1c0.9,0,2-0.6,2.8-0.8
				c5.2-1.6,10.5-3.2,15.7-4.9c4.2-1.3,8.4-2.6,12.6-3.9c0.3-0.1,0.1-0.3-0.2-0.3c-6.8,0-13.6,0-20.3-0.1c-10.9,0-21.7-0.1-32.6-0.1
				c-2.5,0-5,0-7.5,0c-0.4,0-0.4,0.4,0,0.4c6.8,0,13.6,0,20.3,0.1c10.9,0,21.7,0.1,32.6,0.1c2.5,0,5,0,7.5,0
				c-0.1-0.1-0.1-0.2-0.2-0.3c-8.8,2.7-17.7,5.5-26.5,8.2c-1.4,0.4-2.8,0.8-4.1,1.3c-0.3,0.1,0.3,0.2-0.2,0
				c-0.5-0.3-1.1-0.4-1.7-0.5c-5-1.7-10.1-3.3-15.1-5c-4.2-1.4-8.3-2.7-12.5-4.1C524.8,387.2,524.4,387.5,524.8,387.6z"/>
		</g>
	</g>
	<path class="st29" d="M526.7,270.8c0,0-3.2,4-4.5,6.6l5.7-2L526.7,270.8z"/>
	<polygon class="st59" points="494.4,268.6 502.5,261 508.4,266.8 500.3,274.7 	"/>
	<circle class="st29" cx="494.6" cy="259" r="0.7"/>
	<rect id="ladder_outline_2_" x="545.6" y="354.9" class="st125" width="16.3" height="42.2"/>
	<line id="ladder_step_1_20_" class="st125" x1="546" y1="359.5" x2="562" y2="359.5"/>
	<line id="ladder_step_1_19_" class="st125" x1="546" y1="364.5" x2="562" y2="364.5"/>
	<line id="ladder_step_1_18_" class="st125" x1="546" y1="369.5" x2="562" y2="369.5"/>
	<line id="ladder_step_1_17_" class="st125" x1="546" y1="375.5" x2="562" y2="375.5"/>
	<line id="ladder_step_1_16_" class="st125" x1="546" y1="381.5" x2="562" y2="381.5"/>
	<line id="ladder_step_1_15_" class="st125" x1="546" y1="387.5" x2="562" y2="387.5"/>
	<line id="ladder_step_1_14_" class="st125" x1="546" y1="392.5" x2="562" y2="392.5"/>
	<polyline class="st126" points="502.8,272.3 500,269.5 503.1,266.4 506,269.2 	"/>
	<path class="st84" d="M509,293.3v2.5c0,0,3.2,0.2,3.2,2.5s-3.2,1.2-3.2,1.2v1.3l9.8,2l-0.5-4.5c-2.3-3.2-5.6-5.4-9.4-6.6L509,293.3
		z"/>
	<circle class="st127" cx="554" cy="326" r="1"/>
	<g id="left_Z_2_">
		<g>
			<path class="st128" d="M510.3,314.6c7.1,8,14.1,16,21.2,23.9c0.1-0.3,0.2-0.6,0.4-0.9c-6.7,0.2-13.4,0.4-20.1,0.6
				c-0.6,0-0.7,0.8-0.1,1c5.9,1.9,11.8,3.8,17.7,5.6c0.6,0.2,0.9-0.8,0.3-1c-5.9-1.9-11.8-3.8-17.7-5.6c0,0.3-0.1,0.7-0.1,1
				c6.7-0.2,13.4-0.4,20.1-0.6c0.4,0,0.6-0.5,0.4-0.9c-7.1-8-14.1-16-21.2-23.9C510.6,313.4,509.9,314.1,510.3,314.6L510.3,314.6z"
				/>
		</g>
	</g>
	<g id="flag_1_">
		<rect id="US_FLAG_2_" x="505.6" y="347.3" class="st129" width="17.2" height="10.7"/>
		<rect x="506.6" y="348.7" width="7.3" height="4.6"/>
		<g>
			<g>
				<path class="st130" d="M514.9,349.2c2.1,0,4.3,0,6.4,0c0.4,0,0.4-0.4,0-0.4c-2.1,0-4.3,0-6.4,0
					C514.5,348.9,514.5,349.2,514.9,349.2L514.9,349.2z"/>
			</g>
		</g>
		<g>
			<g>
				<path class="st130" d="M514.9,350.5c2.1,0,4.3,0,6.4,0c0.4,0,0.4-0.4,0-0.4c-2.1,0-4.3,0-6.4,0
					C514.5,350.1,514.5,350.5,514.9,350.5L514.9,350.5z"/>
			</g>
		</g>
		<g>
			<g>
				<path class="st130" d="M514.9,351.7c2.1,0,4.3,0,6.4,0c0.4,0,0.4-0.4,0-0.4c-2.1,0-4.3,0-6.4,0
					C514.5,351.4,514.5,351.7,514.9,351.7L514.9,351.7z"/>
			</g>
		</g>
		<g>
			<g>
				<path class="st130" d="M514.9,353c2.1,0,4.3,0,6.4,0c0.4,0,0.4-0.4,0-0.4c-2.1,0-4.3,0-6.4,0C514.5,352.6,514.5,353,514.9,353
					L514.9,353z"/>
			</g>
		</g>
		<g>
			<g>
				<path class="st130" d="M506.8,354.2c4.8,0,9.7,0,14.5,0c0.4,0,0.4-0.4,0-0.4c-4.8,0-9.7,0-14.5,0
					C506.5,353.9,506.5,354.2,506.8,354.2L506.8,354.2z"/>
			</g>
		</g>
		<g>
			<g>
				<path class="st130" d="M506.8,355.5c4.8,0,9.7,0,14.5,0c0.4,0,0.4-0.4,0-0.4c-4.8,0-9.7,0-14.5,0
					C506.5,355.1,506.5,355.5,506.8,355.5L506.8,355.5z"/>
			</g>
		</g>
		<g>
			<g>
				<path class="st130" d="M506.8,356.7c4.8,0,9.7,0,14.5,0c0.4,0,0.4-0.4,0-0.4c-4.8,0-9.7,0-14.5,0
					C506.5,356.4,506.5,356.7,506.8,356.7L506.8,356.7z"/>
			</g>
		</g>
	</g>
	<g>
		<g>
			<path class="st120" d="M542.8,345.5c1.8,0.9,3.7,1.7,5.5,2.6c1.2,0.6,2.4,1.1,3.6,1.7c0.4,0.2,1,0.7,1.5,0.7c0.4,0,1-0.5,1.4-0.6
				c1.2-0.6,2.3-1.1,3.5-1.7c1.8-0.9,3.7-1.8,5.5-2.7c0.3-0.2-0.2-0.4-0.4-0.3c-1.7,0.8-3.4,1.7-5.1,2.5c-1.1,0.6-2.3,1.1-3.4,1.7
				c-0.4,0.2-0.8,0.4-1.2,0.6c-0.2,0.1-0.7,0.2-0.4,0.2c0.4,0-0.3-0.2-0.4-0.3c-0.4-0.2-0.8-0.4-1.2-0.6c-1.2-0.6-2.3-1.1-3.5-1.7
				c-1.7-0.8-3.5-1.7-5.2-2.5C542.9,345.1,542.5,345.3,542.8,345.5L542.8,345.5z"/>
		</g>
	</g>
	<path class="st131" d="M552.9,347.1l-2.5,4.9h7.8l-2.4-5C555,346.3,554.1,346.2,552.9,347.1z"/>
	<g>
		<g>
			<path class="st132" d="M469.3,347.3c-4,7.6-7.9,15.3-11.9,22.9c-6.3,12.1-12.6,24.1-18.8,36.2c-1.5,2.8-2.9,5.6-4.4,8.4
				c-0.1,0.2,0.5,0.3,0.6,0.1c4-7.6,7.9-15.3,11.9-22.9c6.3-12.1,12.6-24.1,18.8-36.2c1.5-2.8,2.9-5.6,4.4-8.4
				C470,347.1,469.4,347.1,469.3,347.3L469.3,347.3z"/>
		</g>
	</g>
	<line class="st133" x1="492.2" y1="334.9" x2="492.2" y2="334.9"/>
	<line class="st134" x1="443.6" y1="399.2" x2="471" y2="387.9"/>
	<g>
		<g>
			<path class="st113" d="M471,388.4c7.3-0.6,14.6-1.1,21.9-1.7c0.6,0,0.6-1,0-1c-7.3,0.6-14.6,1.1-21.9,1.7
				C470.4,387.4,470.4,388.4,471,388.4L471,388.4z"/>
		</g>
	</g>
	<g id="left_leg_part_12_">
		<g>
			<path class="st135" d="M470.2,347.9C459.1,369.6,448,391.3,437,413c-0.6,1.1,1.1,2.2,1.7,1c11.1-21.7,22.1-43.4,33.2-65.1
				C472.5,347.8,470.8,346.8,470.2,347.9L470.2,347.9z"/>
		</g>
	</g>
	<g>
		<g>
			<path class="st136" d="M469.9,347.6c-10.2,19.7-20.5,39.4-30.7,59.1c-1.4,2.8-2.9,5.5-4.3,8.3c-0.3,0.6,0.6,1.1,0.9,0.5
				c10.2-19.7,20.5-39.4,30.7-59.1c1.4-2.8,2.9-5.5,4.3-8.3C471.1,347.5,470.2,347,469.9,347.6L469.9,347.6z"/>
		</g>
	</g>
	<g>
		<g>
			<path class="st137" d="M466.4,359.9c2.1-3.8,4.2-7.6,6.3-11.4c-1,0-2,0-3,0c2.3,3.8,4.6,7.6,6.9,11.4c1.2,1.9,4.2,0.2,3-1.8
				c-2.3-3.8-4.6-7.6-6.9-11.4c-0.2,0.8-0.4,1.6-0.6,2.4c3.1-1.7,6.3-3.3,9.4-5c2-1.1,0.2-4.1-1.8-3c-3.1,1.7-6.3,3.3-9.4,5
				c-0.8,0.4-1.1,1.6-0.6,2.4c2.3,3.8,4.6,7.6,6.9,11.4c1.2,1.9,4.2,0.2,3-1.8c-2.3-3.8-4.6-7.6-6.9-11.4c-0.7-1.1-2.4-1.2-3,0
				c-2.1,3.8-4.2,7.6-6.3,11.4C462.3,360.1,465.3,361.9,466.4,359.9L466.4,359.9z"/>
		</g>
	</g>
	<polyline class="st137" points="486.5,336.8 488.8,337.6 488.8,340.1 491.5,338.5 493.5,337.3 494.1,332.4 	"/>
	<g>
		<polyline class="st138" points="464.6,389.5 470.6,387.2 476.5,386.9 		"/>
		<g>
			<path class="st139" d="M465.1,391.2c2-0.7,3.9-1.6,5.9-2.2c-0.4,0.1-0.2,0,0.3,0c0.7,0,1.4-0.1,2-0.1c1.1-0.1,2.1-0.1,3.2-0.2
				c2.2-0.1,2.3-3.6,0-3.5c-2,0.1-4.3,0-6.3,0.4c-2,0.5-4,1.5-6,2.3C462,388.6,463,392,465.1,391.2L465.1,391.2z"/>
		</g>
	</g>
	<g id="center_foot_6_">
		<path class="st140" d="M423.7,415h27.5c0,0-5.2,6.2-14.4,6.1S423.7,415,423.7,415z"/>
	</g>
	<path class="st29" d="M436,415v6.4c7,0.1,11.7-2.4,15.2-6.4H436z"/>
	<path class="st141" d="M522.8,388c-0.3,1.8,3.7,2.1,8.9,3.2c1.1-2,0.8-3.7-0.1-5.6c-0.8-1.9-2.8-3.4-5.1-4.4
		C524.6,383.1,522.6,386.2,522.8,388z"/>
	<path class="st142" d="M587.4,388c0.3,1.8-3.7,2.1-8.9,3.2c-1.1-2-0.8-3.7,0.1-5.6c0.8-1.9,2.8-3.4,5.1-4.4
		C585.6,383.1,587.5,386.2,587.4,388z"/>
	<rect x="551" y="411" class="st70" width="5" height="4"/>
	<polygon class="st84" points="433.7,415 435.3,412 439.9,412 438.6,415 	"/>
	<polygon class="st143" points="531.6,253.1 528.1,268.8 517.5,291.5 517,278.4 518,277.9 517.2,262.7 	"/>
	<g>
		<g>
			<path class="st129" d="M479.7,358.2c-1.8-2.9-3.5-5.8-5.3-8.8c-1.2-1.9-4.2-0.2-3,1.8c1.8,2.9,3.5,5.8,5.3,8.8
				C477.8,361.9,480.8,360.1,479.7,358.2L479.7,358.2z"/>
		</g>
	</g>
	<g>
		<g>
			<path class="st129" d="M629.9,361.3c2.1-3.4,4.1-6.7,6.2-10.1c1.2-1.9-1.8-3.7-3-1.8c-2.1,3.4-4.1,6.7-6.2,10.1
				C625.7,361.4,628.7,363.2,629.9,361.3L629.9,361.3z"/>
		</g>
	</g>
</g>
<g id="Raster_Frame-_lunar_module" class="st3">
	
		<image style="display:inline;overflow:visible;opacity:0.5;" width="400" height="400" id="lunar_pic__33_x25_" xlink:href="Image For Website/lunar landing module.jpg"  transform="matrix(0.6578 0 0 0.6619 422.3948 196)">
	</image>
	
		<image style="display:inline;overflow:visible;opacity:0.5;" width="400" height="400" id="lunar_pic_full_opacity" xlink:href="Image For Website/lunar landing module.jpg"  transform="matrix(0.6578 0 0 0.6619 422.3948 196)">
	</image>
</g>
<g id="Frame-_lights" class="st3">
	
		<image style="display:inline;overflow:visible;" width="1200" height="450" id="_x32_001_pic" xlink:href="Image For Website/2001- monolith.jpg"  transform="matrix(1.13 0 0 1.1789 51.5 -93)">
	</image>
</g>
<g id="Light_poles">
	<g>
		<g>
			<path class="st2" d="M204.9,197.4c0,22.8-0.1,45.7-0.1,68.5c-0.1,36.4-0.1,72.8-0.2,109.2c0,8.4,0,16.7,0,25.1c0,3.2,5,3.2,5,0
				c0-22.8,0.1-45.7,0.1-68.5c0.1-36.4,0.1-72.8,0.2-109.2c0-8.4,0-16.7,0-25.1C209.9,194.2,204.9,194.2,204.9,197.4L204.9,197.4z"
				/>
		</g>
	</g>
	<g>
		<g>
			<path class="st2" d="M203.7,353.6c-9.9,15.6-19.9,31.2-29.8,46.8c-2.4,3.8,3.6,7.3,6,3.5c9.9-15.6,19.9-31.2,29.8-46.8
				C212.1,353.3,206.1,349.8,203.7,353.6L203.7,353.6z"/>
		</g>
	</g>
	<g>
		<g>
			<path class="st2" d="M204.7,358.1c10.2,14.1,20.4,28.2,30.7,42.4c2.6,3.6,8.7,0.1,6-3.5c-10.2-14.1-20.4-28.2-30.7-42.4
				C208.1,351,202,354.4,204.7,358.1L204.7,358.1z"/>
		</g>
	</g>
	<g>
		<g>
			<path class="st2" d="M735.9,184.4c-0.1,22.4-0.2,44.7-0.3,67.1c-0.1,35.7-0.3,71.4-0.4,107c0,8.3-0.1,16.5-0.1,24.8
				c0,3.2,5,3.2,5,0c0.1-22.4,0.2-44.7,0.3-67.1c0.1-35.7,0.3-71.4,0.4-107c0-8.3,0.1-16.5,0.1-24.8
				C740.9,181.2,735.9,181.2,735.9,184.4L735.9,184.4z"/>
		</g>
	</g>
	<g>
		<g>
			<path class="st2" d="M734.7,340.6c-8,13.2-16,26.3-24,39.5c-2.3,3.9,3.7,7.4,6,3.5c8-13.2,16-26.3,24-39.5
				C743,340.2,737,336.7,734.7,340.6L734.7,340.6z"/>
		</g>
	</g>
	<g>
		<g>
			<path class="st2" d="M734.7,344.1c9.3,13.3,18.5,26.6,27.8,39.9c2.6,3.7,8.6,0.2,6-3.5c-9.3-13.3-18.5-26.6-27.8-39.9
				C738.1,336.9,732.1,340.4,734.7,344.1L734.7,344.1z"/>
		</g>
	</g>
</g>
<g id="Light_Blur_2">
	<g id="left_lights__x28_change_to_white_x29__2_" class="st144">
		<path class="st59" d="M180.4,179.9l-17.5-1.8c-0.9-0.1-1.4-1-1.3-2l1.6-10.6c0.2-1,1-1.7,1.8-1.6l17.5,1.8c0.9,0.1,1.4,1,1.3,2
			l-1.6,10.6C182.1,179.3,181.3,180,180.4,179.9z"/>
		<path class="st59" d="M177.1,202.5l-17.5-1.8c-0.9-0.1-1.4-1-1.3-2l1.6-10.6c0.2-1,1-1.7,1.8-1.6l17.5,1.8c0.9,0.1,1.4,1,1.3,2
			l-1.6,10.6C178.7,201.9,177.9,202.6,177.1,202.5z"/>
		<path class="st59" d="M173.7,225.1l-17.5-1.8c-0.9-0.1-1.4-1-1.3-2l1.6-10.6c0.2-1,1-1.7,1.8-1.6l17.5,1.8c0.9,0.1,1.4,1,1.3,2
			l-1.6,10.6C175.3,224.4,174.5,225.2,173.7,225.1z"/>
		<path class="st59" d="M208.1,182.9l-17.5-1.8c-0.9-0.1-1.4-1-1.3-2l1.6-10.6c0.2-1,1-1.7,1.8-1.6l17.5,1.8c0.9,0.1,1.4,1,1.3,2
			l-1.6,10.6C209.7,182.2,208.9,183,208.1,182.9z"/>
		<path class="st59" d="M204.7,205.4l-17.5-1.8c-0.9-0.1-1.4-1-1.3-2l1.6-10.6c0.2-1,1-1.7,1.8-1.6l17.5,1.8c0.9,0.1,1.4,1,1.3,2
			l-1.6,10.6C206.3,204.8,205.5,205.5,204.7,205.4z"/>
		<path class="st59" d="M201.3,228l-17.5-1.8c-0.9-0.1-1.4-1-1.3-2l1.6-10.6c0.2-1,1-1.7,1.8-1.6l17.5,1.8c0.9,0.1,1.4,1,1.3,2
			l-1.6,10.6C203,227.4,202.1,228.1,201.3,228z"/>
		<path class="st59" d="M235.7,185.8l-17.5-1.8c-0.9-0.1-1.4-1-1.3-2l1.6-10.6c0.2-1,1-1.7,1.8-1.6l17.5,1.8c0.9,0.1,1.4,1,1.3,2
			l-1.6,10.6C237.4,185.1,236.5,185.9,235.7,185.8z"/>
		<path class="st59" d="M232.3,208.4l-17.5-1.8c-0.9-0.1-1.4-1-1.3-2l1.6-10.6c0.2-1,1-1.7,1.8-1.6l17.5,1.8c0.9,0.1,1.4,1,1.3,2
			l-1.6,10.6C234,207.7,233.2,208.5,232.3,208.4z"/>
		<path class="st59" d="M228.9,230.9l-17.5-1.8c-0.9-0.1-1.4-1-1.3-2l1.6-10.6c0.2-1,1-1.7,1.8-1.6l17.5,1.8c0.9,0.1,1.4,1,1.3,2
			l-1.6,10.6C230.6,230.3,229.8,231,228.9,230.9z"/>
		<path class="st59" d="M263.3,188.7l-17.5-1.8c-0.9-0.1-1.4-1-1.3-2l1.6-10.6c0.2-1,1-1.7,1.8-1.6l17.5,1.8c0.9,0.1,1.4,1,1.3,2
			l-1.6,10.6C265,188.1,264.2,188.8,263.3,188.7z"/>
		<path class="st59" d="M259.9,211.3l-17.5-1.8c-0.9-0.1-1.4-1-1.3-2l1.6-10.6c0.2-1,1-1.7,1.8-1.6l17.5,1.8c0.9,0.1,1.4,1,1.3,2
			l-1.6,10.6C261.6,210.6,260.8,211.4,259.9,211.3z"/>
		<path class="st59" d="M256.5,233.9l-17.5-1.8c-0.9-0.1-1.4-1-1.3-2l1.6-10.6c0.2-1,1-1.7,1.8-1.6l17.5,1.8c0.9,0.1,1.4,1,1.3,2
			l-1.6,10.6C258.2,233.2,257.4,234,256.5,233.9z"/>
	</g>
	<g id="right_lights_2_" class="st144">
		<path class="st59" d="M765.6,245.9h-52.2c-16.4,0-29.7-13.3-29.7-29.7v-22.7c0-16.4,13.3-29.7,29.7-29.7h52.2
			c16.4,0,29.7,13.3,29.7,29.7v22.7C795.3,232.6,782,245.9,765.6,245.9z"/>
	</g>
</g>
<g id="Light_Blur_1">
	<g id="left_lights__x28_change_to_white_x29__6_" class="st144">
		<path class="st59" d="M180.4,179.9l-17.5-1.8c-0.9-0.1-1.4-1-1.3-2l1.6-10.6c0.2-1,1-1.7,1.8-1.6l17.5,1.8c0.9,0.1,1.4,1,1.3,2
			l-1.6,10.6C182.1,179.3,181.3,180,180.4,179.9z"/>
		<path class="st59" d="M177.1,202.5l-17.5-1.8c-0.9-0.1-1.4-1-1.3-2l1.6-10.6c0.2-1,1-1.7,1.8-1.6l17.5,1.8c0.9,0.1,1.4,1,1.3,2
			l-1.6,10.6C178.7,201.9,177.9,202.6,177.1,202.5z"/>
		<path class="st59" d="M173.7,225.1l-17.5-1.8c-0.9-0.1-1.4-1-1.3-2l1.6-10.6c0.2-1,1-1.7,1.8-1.6l17.5,1.8c0.9,0.1,1.4,1,1.3,2
			l-1.6,10.6C175.3,224.4,174.5,225.2,173.7,225.1z"/>
		<path class="st59" d="M208.1,182.9l-17.5-1.8c-0.9-0.1-1.4-1-1.3-2l1.6-10.6c0.2-1,1-1.7,1.8-1.6l17.5,1.8c0.9,0.1,1.4,1,1.3,2
			l-1.6,10.6C209.7,182.2,208.9,183,208.1,182.9z"/>
		<path class="st59" d="M204.7,205.4l-17.5-1.8c-0.9-0.1-1.4-1-1.3-2l1.6-10.6c0.2-1,1-1.7,1.8-1.6l17.5,1.8c0.9,0.1,1.4,1,1.3,2
			l-1.6,10.6C206.3,204.8,205.5,205.5,204.7,205.4z"/>
		<path class="st59" d="M201.3,228l-17.5-1.8c-0.9-0.1-1.4-1-1.3-2l1.6-10.6c0.2-1,1-1.7,1.8-1.6l17.5,1.8c0.9,0.1,1.4,1,1.3,2
			l-1.6,10.6C203,227.4,202.1,228.1,201.3,228z"/>
		<path class="st59" d="M235.7,185.8l-17.5-1.8c-0.9-0.1-1.4-1-1.3-2l1.6-10.6c0.2-1,1-1.7,1.8-1.6l17.5,1.8c0.9,0.1,1.4,1,1.3,2
			l-1.6,10.6C237.4,185.1,236.5,185.9,235.7,185.8z"/>
		<path class="st59" d="M232.3,208.4l-17.5-1.8c-0.9-0.1-1.4-1-1.3-2l1.6-10.6c0.2-1,1-1.7,1.8-1.6l17.5,1.8c0.9,0.1,1.4,1,1.3,2
			l-1.6,10.6C234,207.7,233.2,208.5,232.3,208.4z"/>
		<path class="st59" d="M228.9,230.9l-17.5-1.8c-0.9-0.1-1.4-1-1.3-2l1.6-10.6c0.2-1,1-1.7,1.8-1.6l17.5,1.8c0.9,0.1,1.4,1,1.3,2
			l-1.6,10.6C230.6,230.3,229.8,231,228.9,230.9z"/>
		<path class="st59" d="M263.3,188.7l-17.5-1.8c-0.9-0.1-1.4-1-1.3-2l1.6-10.6c0.2-1,1-1.7,1.8-1.6l17.5,1.8c0.9,0.1,1.4,1,1.3,2
			l-1.6,10.6C265,188.1,264.2,188.8,263.3,188.7z"/>
		<path class="st59" d="M259.9,211.3l-17.5-1.8c-0.9-0.1-1.4-1-1.3-2l1.6-10.6c0.2-1,1-1.7,1.8-1.6l17.5,1.8c0.9,0.1,1.4,1,1.3,2
			l-1.6,10.6C261.6,210.6,260.8,211.4,259.9,211.3z"/>
		<path class="st59" d="M256.5,233.9l-17.5-1.8c-0.9-0.1-1.4-1-1.3-2l1.6-10.6c0.2-1,1-1.7,1.8-1.6l17.5,1.8c0.9,0.1,1.4,1,1.3,2
			l-1.6,10.6C258.2,233.2,257.4,234,256.5,233.9z"/>
	</g>
	<g id="right_lights_4_" class="st144">
		<path class="st59" d="M765.6,245.9h-52.2c-16.4,0-29.7-13.3-29.7-29.7v-22.7c0-16.4,13.3-29.7,29.7-29.7h52.2
			c16.4,0,29.7,13.3,29.7,29.7v22.7C795.3,232.6,782,245.9,765.6,245.9z"/>
	</g>
</g>
<g id="Lights">
	<g id="left_lights__x28_change_to_white_x29__1_">
		<path class="st59" d="M182.7,182.5l-15.7-1.7c-0.8-0.1-1.3-0.8-1.2-1.6l1.3-8.7c0.1-0.8,0.9-1.4,1.6-1.3l15.7,1.7
			c0.8,0.1,1.3,0.8,1.2,1.6l-1.3,8.7C184.2,182,183.4,182.6,182.7,182.5z"/>
		<path class="st59" d="M179.8,201l-15.7-1.7c-0.8-0.1-1.3-0.8-1.2-1.6l1.3-8.7c0.1-0.8,0.9-1.4,1.6-1.3l15.7,1.7
			c0.8,0.1,1.3,0.8,1.2,1.6l-1.3,8.7C181.3,200.5,180.6,201.1,179.8,201z"/>
		<path class="st59" d="M176.9,219.5l-15.7-1.7c-0.8-0.1-1.3-0.8-1.2-1.6l1.3-8.7c0.1-0.8,0.9-1.4,1.6-1.3l15.7,1.7
			c0.8,0.1,1.3,0.8,1.2,1.6l-1.3,8.7C178.4,219,177.7,219.6,176.9,219.5z"/>
		<path class="st59" d="M207.5,185.1l-15.7-1.7c-0.8-0.1-1.3-0.8-1.2-1.6l1.3-8.7c0.1-0.8,0.9-1.4,1.6-1.3l15.7,1.7
			c0.8,0.1,1.3,0.8,1.2,1.6l-1.3,8.7C208.9,184.6,208.2,185.2,207.5,185.1z"/>
		<path class="st59" d="M204.6,203.6l-15.7-1.7c-0.8-0.1-1.3-0.8-1.2-1.6l1.3-8.7c0.1-0.8,0.9-1.4,1.6-1.3l15.7,1.7
			c0.8,0.1,1.3,0.8,1.2,1.6l-1.3,8.7C206.1,203.1,205.4,203.7,204.6,203.6z"/>
		<path class="st59" d="M201.7,222.1l-15.7-1.7c-0.8-0.1-1.3-0.8-1.2-1.6l1.3-8.7c0.1-0.8,0.9-1.4,1.6-1.3l15.7,1.7
			c0.8,0.1,1.3,0.8,1.2,1.6l-1.3,8.7C203.2,221.6,202.5,222.2,201.7,222.1z"/>
		<path class="st59" d="M232.3,187.8l-15.7-1.7c-0.8-0.1-1.3-0.8-1.2-1.6l1.3-8.7c0.1-0.8,0.9-1.4,1.6-1.3l15.7,1.7
			c0.8,0.1,1.3,0.8,1.2,1.6l-1.3,8.7C233.7,187.2,233,187.8,232.3,187.8z"/>
		<path class="st59" d="M229.4,206.3l-15.7-1.7c-0.8-0.1-1.3-0.8-1.2-1.6l1.3-8.7c0.1-0.8,0.9-1.4,1.6-1.3l15.7,1.7
			c0.8,0.1,1.3,0.8,1.2,1.6l-1.3,8.7C230.9,205.7,230.2,206.3,229.4,206.3z"/>
		<path class="st59" d="M226.5,224.8l-15.7-1.7c-0.8-0.1-1.3-0.8-1.2-1.6l1.3-8.7c0.1-0.8,0.9-1.4,1.6-1.3l15.7,1.7
			c0.8,0.1,1.3,0.8,1.2,1.6l-1.3,8.7C228,224.2,227.3,224.8,226.5,224.8z"/>
		<path class="st59" d="M257,190.4l-15.7-1.7c-0.8-0.1-1.3-0.8-1.2-1.6l1.3-8.7c0.1-0.8,0.9-1.4,1.6-1.3l15.7,1.7
			c0.8,0.1,1.3,0.8,1.2,1.6l-1.3,8.7C258.5,189.9,257.8,190.5,257,190.4z"/>
		<path class="st59" d="M254.2,208.9l-15.7-1.7c-0.8-0.1-1.3-0.8-1.2-1.6l1.3-8.7c0.1-0.8,0.9-1.4,1.6-1.3l15.7,1.7
			c0.8,0.1,1.3,0.8,1.2,1.6l-1.3,8.7C255.7,208.4,255,209,254.2,208.9z"/>
		<path class="st59" d="M251.3,227.4l-15.7-1.7c-0.8-0.1-1.3-0.8-1.2-1.6l1.3-8.7c0.1-0.8,0.9-1.4,1.6-1.3l15.7,1.7
			c0.8,0.1,1.3,0.8,1.2,1.6l-1.3,8.7C252.8,226.9,252.1,227.5,251.3,227.4z"/>
	</g>
	<path id="right_lights_1_" class="st59" d="M759.6,239.9h-40.2c-16.4,0-29.7-13.3-29.7-29.7v-13.9c0-16.4,13.3-29.7,29.7-29.7h40.2
		c16.4,0,29.7,13.3,29.7,29.7v13.9C789.3,226.6,776,239.9,759.6,239.9z"/>
</g>
</svg>
